PalanquinDark Reg.ufo
<glyph name="dollar" format="1">
  <advance width="552"/>
  <unicode hex="0024"/>
  <outline>
    <contour>
      <point x="154" y="-128" type="line"/>
      <point x="242" y="-128" type="line"/>
      <point x="242" y="-13" type="line"/>
      <point x="255" y="-13" type="line" smooth="yes"/>
      <point x="270" y="-13"/>
      <point x="285" y="-12"/>
      <point x="299" y="-11" type="curve"/>
      <point x="299" y="-119" type="line"/>
      <point x="388" y="-128" type="line"/>
      <point x="388" y="9" type="line"/>
      <point x="466" y="41"/>
      <point x="509" y="101"/>
      <point x="509" y="174" type="curve"/>
      <point x="509" y="291"/>
      <point x="401" y="349"/>
      <point x="304" y="399" type="curve"/>
      <point x="230" y="437"/>
      <point x="176" y="465"/>
      <point x="176" y="514" type="curve" smooth="yes"/>
      <point x="176" y="561"/>
      <point x="220" y="583"/>
      <point x="278" y="583" type="curve" smooth="yes"/>
      <point x="337" y="583"/>
      <point x="384" y="561"/>
      <point x="425" y="541" type="curve"/>
      <point x="468" y="645" type="line"/>
      <point x="444" y="656"/>
      <point x="417" y="668"/>
      <point x="388" y="676" type="curve"/>
      <point x="388" y="808" type="line"/>
      <point x="299" y="808" type="line"/>
      <point x="299" y="694" type="line"/>
      <point x="291" y="695"/>
      <point x="285" y="696"/>
      <point x="276" y="696" type="curve" smooth="yes"/>
      <point x="265" y="696"/>
      <point x="253" y="695"/>
      <point x="242" y="694" type="curve"/>
      <point x="242" y="804" type="line"/>
      <point x="154" y="808" type="line"/>
      <point x="154" y="673" type="line"/>
      <point x="83" y="643"/>
      <point x="42" y="584"/>
      <point x="42" y="514" type="curve"/>
      <point x="42" y="394"/>
      <point x="148" y="337"/>
      <point x="245" y="288" type="curve" smooth="yes"/>
      <point x="310" y="255"/>
      <point x="375" y="222"/>
      <point x="375" y="176" type="curve" smooth="yes"/>
      <point x="375" y="128"/>
      <point x="335" y="102"/>
      <point x="253" y="102" type="curve" smooth="yes"/>
      <point x="196" y="102"/>
      <point x="124" y="129"/>
      <point x="83" y="150" type="curve"/>
      <point x="54" y="45" type="line"/>
      <point x="71" y="31"/>
      <point x="111" y="15"/>
      <point x="154" y="3" type="curve"/>
    </contour>
  </outline>
</glyph>
<glyph name="percent" format="1">
  <advance width="946"/>
  <unicode hex="0025"/>
  <outline>
    <contour>
      <point x="113" y="702"/>
      <point x="31" y="638"/>
      <point x="31" y="533" type="curve" smooth="yes"/>
      <point x="31" y="426"/>
      <point x="113" y="363"/>
      <point x="197" y="363" type="curve" smooth="yes"/>
      <point x="281" y="363"/>
      <point x="363" y="428"/>
      <point x="363" y="533" type="curve" smooth="yes"/>
      <point x="363" y="640"/>
      <point x="283" y="702"/>
      <point x="197" y="702" type="curve" smooth="yes"/>
    </contour>
    <contour>
      <point x="164" y="456"/>
      <point x="140" y="481"/>
      <point x="140" y="534" type="curve" smooth="yes"/>
      <point x="140" y="582"/>
      <point x="168" y="608"/>
      <point x="197" y="608" type="curve" smooth="yes"/>
      <point x="229" y="608"/>
      <point x="255" y="581"/>
      <point x="255" y="532" type="curve" smooth="yes"/>
      <point x="255" y="482"/>
      <point x="227" y="456"/>
      <point x="197" y="456" type="curve" smooth="yes"/>
    </contour>
    <contour>
      <point x="684" y="706" type="line"/>
      <point x="553" y="706" type="line"/>
      <point x="255" y="0" type="line"/>
      <point x="386" y="0" type="line"/>
    </contour>
    <contour>
      <point x="664" y="338"/>
      <point x="583" y="276"/>
      <point x="583" y="169" type="curve" smooth="yes"/>
      <point x="583" y="62"/>
      <point x="664" y="0"/>
      <point x="749" y="0" type="curve" smooth="yes"/>
      <point x="832" y="0"/>
      <point x="913" y="65"/>
      <point x="913" y="170" type="curve" smooth="yes"/>
      <point x="913" y="278"/>
      <point x="834" y="338"/>
      <point x="749" y="338" type="curve" smooth="yes"/>
    </contour>
    <contour>
      <point x="715" y="92"/>
      <point x="691" y="118"/>
      <point x="691" y="171" type="curve" smooth="yes"/>
      <point x="691" y="219"/>
      <point x="719" y="245"/>
      <point x="749" y="245" type="curve" smooth="yes"/>
      <point x="780" y="245"/>
      <point x="806" y="218"/>
      <point x="806" y="169" type="curve" smooth="yes"/>
      <point x="806" y="119"/>
      <point x="779" y="92"/>
      <point x="749" y="92" type="curve" smooth="yes"/>
    </contour>
  </outline>
</glyph>
<glyph name="hyphen" format="1">
  <advance width="304"/>
  <unicode hex="002D"/>
  <outline>
    <contour>
      <point x="288" y="223" type="line"/>
      <point x="278" y="325" type="line"/>
      <point x="16" y="325" type="line"/>
      <point x="27" y="223" type="line"/>
    </contour>
  </outline>
</glyph>
<glyph name="two" format="1">
  <advance width="508"/>
  <unicode hex="0032"/>
  <outline>
    <contour>
      <point x="437" y="489"/>
      <point x="386" y="579"/>
      <point x="232" y="579" type="curve" smooth="yes"/>
      <point x="138" y="579"/>
      <point x="75" y="537"/>
      <point x="38" y="507" type="curve"/>
      <point x="94" y="419" type="line"/>
      <point x="98" y="421"/>
      <point x="181" y="474"/>
      <point x="230" y="474" type="curve" smooth="yes"/>
      <point x="287" y="474"/>
      <point x="321" y="441"/>
      <point x="321" y="398" type="curve" smooth="yes"/>
      <point x="321" y="357"/>
      <point x="302" y="324"/>
      <point x="227" y="259" type="curve" smooth="yes"/>
      <point x="31" y="87" type="line"/>
      <point x="31" y="0" type="line"/>
      <point x="466" y="0" type="line"/>
      <point x="449" y="99" type="line"/>
      <point x="202" y="99" type="line"/>
      <point x="297" y="178" type="line" smooth="yes"/>
      <point x="395" y="259"/>
      <point x="437" y="318"/>
      <point x="437" y="398" type="curve" smooth="yes"/>
    </contour>
  </outline>
</glyph>
<glyph name="three" format="1">
  <advance width="537"/>
  <unicode hex="0033"/>
  <outline>
    <contour>
      <point x="463" y="499"/>
      <point x="394" y="579"/>
      <point x="253" y="579" type="curve" smooth="yes"/>
      <point x="173" y="579"/>
      <point x="105" y="552"/>
      <point x="40" y="509" type="curve"/>
      <point x="101" y="422" type="line"/>
      <point x="137" y="447"/>
      <point x="190" y="474"/>
      <point x="250" y="474" type="curve" smooth="yes"/>
      <point x="308" y="474"/>
      <point x="344" y="442"/>
      <point x="344" y="403" type="curve" smooth="yes"/>
      <point x="344" y="353"/>
      <point x="294" y="321"/>
      <point x="212" y="321" type="curve" smooth="yes"/>
      <point x="146" y="321" type="line"/>
      <point x="164" y="220" type="line"/>
      <point x="206" y="220" type="line" smooth="yes"/>
      <point x="312" y="220"/>
      <point x="356" y="181"/>
      <point x="356" y="120" type="curve" smooth="yes"/>
      <point x="356" y="63"/>
      <point x="300" y="29"/>
      <point x="241" y="29" type="curve" smooth="yes"/>
      <point x="182" y="29"/>
      <point x="140" y="42"/>
      <point x="87" y="74" type="curve"/>
      <point x="21" y="-13" type="line"/>
      <point x="82" y="-45"/>
      <point x="165" y="-76"/>
      <point x="239" y="-76" type="curve" smooth="yes"/>
      <point x="384" y="-76"/>
      <point x="475" y="10"/>
      <point x="475" y="121" type="curve" smooth="yes"/>
      <point x="475" y="204"/>
      <point x="420" y="263"/>
      <point x="382" y="273" type="curve"/>
      <point x="421" y="290"/>
      <point x="463" y="344"/>
      <point x="463" y="405" type="curve" smooth="yes"/>
    </contour>
  </outline>
</glyph>
<glyph name="four" format="1">
  <advance width="593"/>
  <unicode hex="0034"/>
  <outline>
    <contour>
      <point x="548" y="59" type="line"/>
      <point x="561" y="166" type="line"/>
      <point x="456" y="166" type="line"/>
      <point x="456" y="571" type="line"/>
      <point x="359" y="571" type="line"/>
      <point x="31" y="166" type="line"/>
      <point x="48" y="59" type="line"/>
      <point x="325" y="59" type="line"/>
      <point x="325" y="-69" type="line"/>
      <point x="456" y="-69" type="line"/>
      <point x="456" y="59" type="line"/>
    </contour>
    <contour>
      <point x="171" y="166" type="line"/>
      <point x="325" y="363" type="line"/>
      <point x="325" y="166" type="line"/>
    </contour>
  </outline>
</glyph>
<glyph name="five" format="1">
  <advance width="546"/>
  <unicode hex="0035"/>
  <outline>
    <contour>
      <point x="85" y="206" type="line"/>
      <point x="200" y="206" type="line"/>
      <point x="209" y="227"/>
      <point x="239" y="253"/>
      <point x="286" y="253" type="curve" smooth="yes"/>
      <point x="344" y="253"/>
      <point x="386" y="213"/>
      <point x="386" y="147" type="curve" smooth="yes"/>
      <point x="386" y="76"/>
      <point x="332" y="33"/>
      <point x="261" y="33" type="curve" smooth="yes"/>
      <point x="201" y="33"/>
      <point x="159" y="47"/>
      <point x="106" y="77" type="curve"/>
      <point x="42" y="-14" type="line"/>
      <point x="101" y="-46"/>
      <point x="183" y="-76"/>
      <point x="258" y="-76" type="curve" smooth="yes"/>
      <point x="411" y="-76"/>
      <point x="504" y="16"/>
      <point x="504" y="147" type="curve" smooth="yes"/>
      <point x="504" y="260"/>
      <point x="431" y="357"/>
      <point x="281" y="357" type="curve" smooth="yes"/>
      <point x="254" y="357"/>
      <point x="229" y="353"/>
      <point x="207" y="342" type="curve"/>
      <point x="213" y="461" type="line"/>
      <point x="455" y="461" type="line"/>
      <point x="469" y="566" type="line"/>
      <point x="103" y="566" type="line"/>
    </contour>
  </outline>
</glyph>
<glyph name="question" format="1">
  <advance width="416"/>
  <unicode hex="003F"/>
  <outline>
    <contour>
      <point x="401" y="629"/>
      <point x="334" y="701"/>
      <point x="200" y="701" type="curve" smooth="yes"/>
      <point x="127" y="701"/>
      <point x="67" y="684"/>
      <point x="6" y="645" type="curve"/>
      <point x="23" y="529" type="line"/>
      <point x="90" y="575"/>
      <point x="155" y="593"/>
      <point x="197" y="593" type="curve" smooth="yes"/>
      <point x="245" y="593"/>
      <point x="282" y="566"/>
      <point x="282" y="520" type="curve" smooth="yes"/>
      <point x="282" y="465"/>
      <point x="214" y="414"/>
      <point x="119" y="383" type="curve"/>
      <point x="127" y="218" type="line"/>
      <point x="219" y="179" type="line"/>
      <point x="236" y="316" type="line"/>
      <point x="330" y="366"/>
      <point x="401" y="449"/>
      <point x="401" y="522" type="curve" smooth="yes"/>
    </contour>
    <contour>
      <point x="239" y="115"/>
      <point x="207" y="146"/>
      <point x="166" y="146" type="curve" smooth="yes"/>
      <point x="125" y="146"/>
      <point x="92" y="115"/>
      <point x="92" y="73" type="curve" smooth="yes"/>
      <point x="92" y="31"/>
      <point x="125" y="0"/>
      <point x="166" y="0" type="curve" smooth="yes"/>
      <point x="207" y="0"/>
      <point x="239" y="31"/>
      <point x="239" y="73" type="curve" smooth="yes"/>
    </contour>
  </outline>
</glyph>
<glyph name="D" format="1">
  <advance width="703"/>
  <unicode hex="0044"/>
  <outline>
    <contour>
      <point x="332" y="0" type="line" smooth="yes"/>
      <point x="532" y="0"/>
      <point x="645" y="132"/>
      <point x="645" y="344" type="curve" smooth="yes"/>
      <point x="645" y="539"/>
      <point x="546" y="680"/>
      <point x="336" y="680" type="curve" smooth="yes"/>
      <point x="84" y="680" type="line"/>
      <point x="84" y="0" type="line"/>
    </contour>
    <contour>
      <point x="337" y="570" type="line" smooth="yes"/>
      <point x="458" y="570"/>
      <point x="511" y="486"/>
      <point x="511" y="344" type="curve" smooth="yes"/>
      <point x="511" y="174"/>
      <point x="440" y="109"/>
      <point x="330" y="109" type="curve" smooth="yes"/>
      <point x="213" y="109" type="line"/>
      <point x="213" y="570" type="line"/>
    </contour>
    <contour>
      <point x="321" y="702" type="move" name="topU"/>
    </contour>
  </outline>
</glyph>
<glyph name="E" format="1">
  <advance width="580"/>
  <unicode hex="0045"/>
  <outline>
    <contour>
      <point x="560" y="0" type="line"/>
      <point x="539" y="101" type="line"/>
      <point x="213" y="101" type="line"/>
      <point x="213" y="292" type="line"/>
      <point x="416" y="292" type="line"/>
      <point x="395" y="395" type="line"/>
      <point x="213" y="395" type="line"/>
      <point x="213" y="578" type="line"/>
      <point x="510" y="578" type="line"/>
      <point x="490" y="680" type="line"/>
      <point x="84" y="680" type="line"/>
      <point x="84" y="0" type="line"/>
    </contour>
    <contour>
      <point x="293" y="702" type="move" name="topU"/>
    </contour>
    <contour>
      <point x="397" y="0" type="move" name="bottom"/>
    </contour>
  </outline>
</glyph>
<glyph name="F" format="1">
  <advance width="500"/>
  <unicode hex="0046"/>
  <outline>
    <contour>
      <point x="405" y="288" type="line"/>
      <point x="386" y="389" type="line"/>
      <point x="213" y="389" type="line"/>
      <point x="213" y="578" type="line"/>
      <point x="489" y="578" type="line"/>
      <point x="469" y="680" type="line"/>
      <point x="84" y="680" type="line"/>
      <point x="84" y="0" type="line"/>
      <point x="213" y="0" type="line"/>
      <point x="213" y="288" type="line"/>
    </contour>
  </outline>
</glyph>
<glyph name="G" format="1">
  <advance width="656"/>
  <unicode hex="0047"/>
  <outline>
    <contour>
      <point x="339" y="372" type="line"/>
      <point x="328" y="272" type="line"/>
      <point x="471" y="272" type="line"/>
      <point x="471" y="106" type="line"/>
      <point x="447" y="100"/>
      <point x="416" y="95"/>
      <point x="372" y="95" type="curve" smooth="yes"/>
      <point x="253" y="95"/>
      <point x="192" y="188"/>
      <point x="192" y="338" type="curve" smooth="yes"/>
      <point x="192" y="504"/>
      <point x="272" y="585"/>
      <point x="393" y="585" type="curve" smooth="yes"/>
      <point x="452" y="585"/>
      <point x="477" y="575"/>
      <point x="536" y="557" type="curve"/>
      <point x="577" y="650" type="line"/>
      <point x="517" y="682"/>
      <point x="431" y="694"/>
      <point x="391" y="694" type="curve" smooth="yes"/>
      <point x="184" y="694"/>
      <point x="57" y="545"/>
      <point x="57" y="337" type="curve" smooth="yes"/>
      <point x="57" y="141"/>
      <point x="162" y="-14"/>
      <point x="375" y="-14" type="curve" smooth="yes"/>
      <point x="460" y="-14"/>
      <point x="535" y="8"/>
      <point x="587" y="36" type="curve"/>
      <point x="587" y="372" type="line"/>
    </contour>
    <contour>
      <point x="391" y="702" type="move" name="topU"/>
    </contour>
    <contour>
      <point x="375" y="0" type="move" name="bottom"/>
    </contour>
  </outline>
</glyph>
<glyph name="H" format="1">
  <advance width="694"/>
  <unicode hex="0048"/>
  <outline>
    <contour>
      <point x="213" y="685" type="line"/>
      <point x="84" y="680" type="line"/>
      <point x="84" y="0" type="line"/>
      <point x="213" y="0" type="line"/>
      <point x="213" y="288" type="line"/>
      <point x="481" y="288" type="line"/>
      <point x="481" y="0" type="line"/>
      <point x="610" y="0" type="line"/>
      <point x="610" y="680" type="line"/>
      <point x="481" y="680" type="line"/>
      <point x="481" y="392" type="line"/>
      <point x="213" y="392" type="line"/>
    </contour>
  </outline>
</glyph>
<glyph name="I" format="1">
  <advance width="297"/>
  <unicode hex="0049"/>
  <outline>
    <contour>
      <point x="213" y="680" type="line"/>
      <point x="84" y="680" type="line"/>
      <point x="84" y="0" type="line"/>
      <point x="213" y="0" type="line"/>
    </contour>
    <contour>
      <point x="148" y="702" type="move" name="topU"/>
    </contour>
    <contour>
      <point x="135" y="0" type="move" name="bottom"/>
    </contour>
  </outline>
</glyph>
<glyph name="J" format="1">
  <advance width="309"/>
  <unicode hex="004A"/>
  <outline>
    <contour>
      <point x="225" y="680" type="line"/>
      <point x="94" y="680" type="line"/>
      <point x="94" y="167" type="line" smooth="yes"/>
      <point x="94" y="111"/>
      <point x="87" y="100"/>
      <point x="16" y="74" type="curve"/>
      <point x="68" y="-22" type="line"/>
      <point x="189" y="17"/>
      <point x="225" y="55"/>
      <point x="225" y="148" type="curve" smooth="yes"/>
    </contour>
  </outline>
</glyph>
<glyph name="S" format="1">
  <advance width="552"/>
  <unicode hex="0053"/>
  <outline>
    <contour>
      <point x="196" y="102"/>
      <point x="124" y="129"/>
      <point x="83" y="150" type="curve"/>
      <point x="54" y="45" type="line"/>
      <point x="85" y="18"/>
      <point x="197" y="-13"/>
      <point x="255" y="-13" type="curve" smooth="yes"/>
      <point x="420" y="-13"/>
      <point x="509" y="66"/>
      <point x="509" y="174" type="curve" smooth="yes"/>
      <point x="509" y="291"/>
      <point x="401" y="349"/>
      <point x="304" y="399" type="curve"/>
      <point x="297" y="403" type="line"/>
      <point x="230" y="437"/>
      <point x="176" y="465"/>
      <point x="176" y="514" type="curve" smooth="yes"/>
      <point x="176" y="561"/>
      <point x="220" y="583"/>
      <point x="278" y="583" type="curve" smooth="yes"/>
      <point x="337" y="583"/>
      <point x="384" y="561"/>
      <point x="425" y="541" type="curve"/>
      <point x="468" y="645" type="line"/>
      <point x="416" y="671"/>
      <point x="344" y="696"/>
      <point x="276" y="696" type="curve" smooth="yes"/>
      <point x="126" y="696"/>
      <point x="42" y="617"/>
      <point x="42" y="514" type="curve" smooth="yes"/>
      <point x="42" y="394"/>
      <point x="148" y="337"/>
      <point x="245" y="288" type="curve" smooth="yes"/>
      <point x="310" y="255"/>
      <point x="375" y="222"/>
      <point x="375" y="176" type="curve" smooth="yes"/>
      <point x="375" y="128"/>
      <point x="335" y="102"/>
      <point x="253" y="102" type="curve" smooth="yes"/>
    </contour>
    <contour>
      <point x="255" y="0" type="move" name="bottom"/>
    </contour>
  </outline>
</glyph>
<glyph name="T" format="1">
  <advance width="582"/>
  <unicode hex="0054"/>
  <outline>
    <contour>
      <point x="6" y="680" type="line"/>
      <point x="6" y="578" type="line"/>
      <point x="213" y="578" type="line"/>
      <point x="213" y="0" type="line"/>
      <point x="344" y="0" type="line"/>
      <point x="344" y="578" type="line"/>
      <point x="577" y="578" type="line"/>
      <point x="556" y="680" type="line"/>
    </contour>
    <contour>
      <point x="281" y="0" type="move" name="bottom"/>
    </contour>
  </outline>
</glyph>
<glyph name="V" format="1">
  <advance width="651"/>
  <unicode hex="0056"/>
  <outline>
    <contour>
      <point x="270" y="0" type="line"/>
      <point x="380" y="0" type="line"/>
      <point x="645" y="680" type="line"/>
      <point x="514" y="680" type="line"/>
      <point x="327" y="177" type="line"/>
      <point x="134" y="680" type="line"/>
      <point x="6" y="662" type="line"/>
    </contour>
  </outline>
</glyph>
<glyph name="X" format="1">
  <advance width="663"/>
  <unicode hex="0058"/>
  <outline>
    <contour>
      <point x="6" y="9" type="line"/>
      <point x="126" y="-10" type="line"/>
      <point x="190" y="77"/>
      <point x="254" y="167"/>
      <point x="319" y="256" type="curve"/>
      <point x="508" y="0" type="line"/>
      <point x="644" y="0" type="line"/>
      <point x="395" y="339" type="line"/>
      <point x="657" y="680" type="line"/>
      <point x="522" y="680" type="line"/>
      <point x="330" y="428" type="line"/>
      <point x="145" y="680" type="line"/>
      <point x="20" y="661" type="line"/>
      <point x="253" y="344" type="line"/>
    </contour>
  </outline>
</glyph>
<glyph name="Y" format="1">
  <advance width="605"/>
  <unicode hex="0059"/>
  <outline>
    <contour>
      <point x="234" y="0" type="line"/>
      <point x="364" y="0" type="line"/>
      <point x="364" y="260" type="line"/>
      <point x="600" y="680" type="line"/>
      <point x="463" y="680" type="line"/>
      <point x="298" y="396" type="line"/>
      <point x="140" y="680" type="line"/>
      <point x="6" y="663" type="line"/>
      <point x="234" y="265" type="line"/>
    </contour>
  </outline>
</glyph>
<glyph name="backslash" format="1">
  <advance width="445"/>
  <unicode hex="005C"/>
  <outline>
    <contour>
      <point x="6" y="706" type="line"/>
      <point x="141" y="706" type="line"/>
      <point x="440" y="0" type="line"/>
      <point x="304" y="0" type="line"/>
    </contour>
  </outline>
</glyph>
<glyph name="h" format="1">
  <advance width="585"/>
  <unicode hex="0068"/>
  <outline>
    <contour>
      <point x="302" y="504"/>
      <point x="241" y="486"/>
      <point x="198" y="453" type="curve"/>
      <point x="198" y="706" type="line"/>
      <point x="69" y="695" type="line"/>
      <point x="69" y="0" type="line"/>
      <point x="198" y="0" type="line"/>
      <point x="198" y="345" type="line"/>
      <point x="231" y="371"/>
      <point x="274" y="393"/>
      <point x="311" y="393" type="curve" smooth="yes"/>
      <point x="368" y="393"/>
      <point x="398" y="360"/>
      <point x="398" y="298" type="curve" smooth="yes"/>
      <point x="398" y="0" type="line"/>
      <point x="528" y="0" type="line"/>
      <point x="528" y="304" type="line" smooth="yes"/>
      <point x="528" y="417"/>
      <point x="479" y="504"/>
      <point x="346" y="504" type="curve" smooth="yes"/>
    </contour>
  </outline>
</glyph>
<glyph name="l" format="1">
  <advance width="266"/>
  <unicode hex="006C"/>
  <outline>
    <contour>
      <point x="198" y="706" type="line"/>
      <point x="69" y="695" type="line"/>
      <point x="69" y="0" type="line"/>
      <point x="198" y="0" type="line"/>
    </contour>
    <contour>
      <point x="134" y="0" type="move" name="bottom"/>
    </contour>
  </outline>
</glyph>
<glyph name="m" format="1">
  <advance width="893"/>
  <unicode hex="006D"/>
  <outline>
    <contour>
      <point x="599" y="504"/>
      <point x="520" y="475"/>
      <point x="479" y="428" type="curve"/>
      <point x="451" y="475"/>
      <point x="402" y="504"/>
      <point x="325" y="504" type="curve" smooth="yes"/>
      <point x="276" y="504"/>
      <point x="206" y="481"/>
      <point x="162" y="441" type="curve"/>
      <point x="130" y="485" type="line"/>
      <point x="62" y="485" type="line"/>
      <point x="62" y="0" type="line"/>
      <point x="192" y="0" type="line"/>
      <point x="192" y="356" type="line"/>
      <point x="223" y="377"/>
      <point x="258" y="393"/>
      <point x="291" y="393" type="curve" smooth="yes"/>
      <point x="346" y="393"/>
      <point x="376" y="360"/>
      <point x="376" y="298" type="curve" smooth="yes"/>
      <point x="376" y="0" type="line"/>
      <point x="507" y="0" type="line"/>
      <point x="507" y="304" type="line" smooth="yes"/>
      <point x="507" y="318"/>
      <point x="506" y="331"/>
      <point x="504" y="344" type="curve"/>
      <point x="537" y="370"/>
      <point x="582" y="393"/>
      <point x="619" y="393" type="curve" smooth="yes"/>
      <point x="675" y="393"/>
      <point x="705" y="360"/>
      <point x="705" y="298" type="curve" smooth="yes"/>
      <point x="705" y="0" type="line"/>
      <point x="836" y="0" type="line"/>
      <point x="836" y="304" type="line" smooth="yes"/>
      <point x="836" y="417"/>
      <point x="786" y="504"/>
      <point x="654" y="504" type="curve" smooth="yes"/>
    </contour>
  </outline>
</glyph>
<glyph name="r" format="1">
  <advance width="358"/>
  <unicode hex="0072"/>
  <outline>
    <contour>
      <point x="328" y="485" type="line"/>
      <point x="276" y="485"/>
      <point x="213" y="449"/>
      <point x="173" y="414" type="curve"/>
      <point x="130" y="485" type="line"/>
      <point x="62" y="485" type="line"/>
      <point x="62" y="0" type="line"/>
      <point x="192" y="0" type="line"/>
      <point x="192" y="306" type="line"/>
      <point x="248" y="356"/>
      <point x="310" y="381"/>
      <point x="354" y="381" type="curve"/>
    </contour>
    <contour>
      <point x="184" y="545" type="move" name="top"/>
    </contour>
    <contour>
      <point x="130" y="0" type="move" name="bottom"/>
    </contour>
  </outline>
</glyph>
<glyph name="y" format="1">
  <advance width="500"/>
  <unicode hex="0079"/>
  <outline>
    <contour>
      <point x="156" y="-23" type="line"/>
      <point x="139" y="-69"/>
      <point x="76" y="-95"/>
      <point x="29" y="-115" type="curve"/>
      <point x="75" y="-222" type="line"/>
      <point x="161" y="-202"/>
      <point x="247" y="-143"/>
      <point x="278" y="-64" type="curve" smooth="yes"/>
      <point x="495" y="485" type="line"/>
      <point x="358" y="485" type="line"/>
      <point x="252" y="191" type="line"/>
      <point x="140" y="485" type="line"/>
      <point x="6" y="467" type="line"/>
      <point x="179" y="34" type="line"/>
    </contour>
    <contour>
      <point x="253" y="545" type="move" name="top"/>
    </contour>
  </outline>
</glyph>
<glyph name="bar" format="1">
  <advance width="266"/>
  <unicode hex="007C"/>
  <outline>
    <contour>
      <point x="198" y="703" type="line"/>
      <point x="69" y="713" type="line"/>
      <point x="69" y="0" type="line"/>
      <point x="198" y="-10" type="line"/>
    </contour>
  </outline>
</glyph>
<glyph name="asciitilde" format="1">
  <advance width="463"/>
  <unicode hex="007E"/>
  <outline>
    <contour>
      <point x="138" y="172" type="line"/>
      <point x="140" y="199"/>
      <point x="154" y="210"/>
      <point x="164" y="210" type="curve" smooth="yes"/>
      <point x="206" y="210"/>
      <point x="241" y="178"/>
      <point x="315" y="178" type="curve" smooth="yes"/>
      <point x="379" y="178"/>
      <point x="441" y="222"/>
      <point x="441" y="338" type="curve"/>
      <point x="441" y="346" type="line"/>
      <point x="325" y="346" type="line"/>
      <point x="323" y="319"/>
      <point x="309" y="308"/>
      <point x="298" y="308" type="curve" smooth="yes"/>
      <point x="257" y="308"/>
      <point x="222" y="339"/>
      <point x="148" y="339" type="curve" smooth="yes"/>
      <point x="85" y="339"/>
      <point x="22" y="295"/>
      <point x="22" y="182" type="curve"/>
      <point x="22" y="172" type="line"/>
    </contour>
  </outline>
</glyph>
<glyph name="exclamdown" format="1">
  <advance width="252"/>
  <unicode hex="00A1"/>
  <outline>
    <contour>
      <point x="178" y="458" type="line"/>
      <point x="73" y="505" type="line"/>
      <point x="73" y="0" type="line"/>
      <point x="192" y="0" type="line"/>
    </contour>
    <contour>
      <point x="52" y="587"/>
      <point x="85" y="555"/>
      <point x="125" y="555" type="curve" smooth="yes"/>
      <point x="167" y="555"/>
      <point x="199" y="587"/>
      <point x="199" y="629" type="curve" smooth="yes"/>
      <point x="199" y="669"/>
      <point x="167" y="702"/>
      <point x="125" y="702" type="curve" smooth="yes"/>
      <point x="85" y="702"/>
      <point x="52" y="669"/>
      <point x="52" y="629" type="curve" smooth="yes"/>
    </contour>
  </outline>
</glyph>
<glyph name="cent" format="1">
  <advance width="486"/>
  <unicode hex="00A2"/>
  <outline>
    <contour>
      <point x="357" y="611" type="line"/>
      <point x="227" y="611" type="line"/>
      <point x="227" y="491" type="line"/>
      <point x="109" y="467"/>
      <point x="42" y="375"/>
      <point x="42" y="242" type="curve" smooth="yes"/>
      <point x="42" y="108"/>
      <point x="110" y="17"/>
      <point x="229" y="-6" type="curve"/>
      <point x="229" y="-105" type="line"/>
      <point x="359" y="-115" type="line"/>
      <point x="359" y="-4" type="line"/>
      <point x="393" y="4"/>
      <point x="428" y="17"/>
      <point x="454" y="38" type="curve"/>
      <point x="417" y="132" type="line"/>
      <point x="370" y="110"/>
      <point x="339" y="99"/>
      <point x="293" y="99" type="curve" smooth="yes"/>
      <point x="219" y="99"/>
      <point x="176" y="158"/>
      <point x="176" y="242" type="curve" smooth="yes"/>
      <point x="176" y="325"/>
      <point x="219" y="387"/>
      <point x="293" y="387" type="curve" smooth="yes"/>
      <point x="339" y="387"/>
      <point x="370" y="375"/>
      <point x="417" y="354" type="curve"/>
      <point x="454" y="447" type="line"/>
      <point x="427" y="466"/>
      <point x="391" y="481"/>
      <point x="357" y="487" type="curve"/>
    </contour>
  </outline>
</glyph>
<glyph name="yen" format="1">
  <advance width="605"/>
  <unicode hex="00A5"/>
  <outline>
    <contour>
      <point x="524" y="66" type="line"/>
      <point x="514" y="162" type="line"/>
      <point x="364" y="162" type="line"/>
      <point x="364" y="218" type="line"/>
      <point x="524" y="218" type="line"/>
      <point x="514" y="314" type="line"/>
      <point x="394" y="314" type="line"/>
      <point x="600" y="680" type="line"/>
      <point x="463" y="680" type="line"/>
      <point x="298" y="396" type="line"/>
      <point x="140" y="680" type="line"/>
      <point x="6" y="663" type="line"/>
      <point x="206" y="314" type="line"/>
      <point x="67" y="314" type="line"/>
      <point x="78" y="218" type="line"/>
      <point x="234" y="218" type="line"/>
      <point x="234" y="162" type="line"/>
      <point x="67" y="162" type="line"/>
      <point x="78" y="66" type="line"/>
      <point x="234" y="66" type="line"/>
      <point x="234" y="0" type="line"/>
      <point x="364" y="0" type="line"/>
      <point x="364" y="66" type="line"/>
    </contour>
  </outline>
</glyph>
<glyph name="ordfeminine" format="1">
  <advance width="340"/>
  <unicode hex="00AA"/>
  <outline>
    <contour>
      <point x="21" y="408"/>
      <point x="58" y="363"/>
      <point x="137" y="363" type="curve" smooth="yes"/>
      <point x="168" y="363"/>
      <point x="202" y="379"/>
      <point x="225" y="397" type="curve"/>
      <point x="249" y="371" type="line"/>
      <point x="298" y="371" type="line"/>
      <point x="298" y="583" type="line" smooth="yes"/>
      <point x="298" y="651"/>
      <point x="231" y="702"/>
      <point x="154" y="702" type="curve" smooth="yes"/>
      <point x="125" y="702"/>
      <point x="62" y="689"/>
      <point x="38" y="673" type="curve"/>
      <point x="61" y="591" type="line"/>
      <point x="85" y="601"/>
      <point x="125" y="612"/>
      <point x="155" y="612" type="curve" smooth="yes"/>
      <point x="181" y="612"/>
      <point x="195" y="599"/>
      <point x="199" y="576" type="curve"/>
      <point x="144" y="576" type="line" smooth="yes"/>
      <point x="71" y="576"/>
      <point x="21" y="535"/>
      <point x="21" y="469" type="curve" smooth="yes"/>
    </contour>
    <contour>
      <point x="123" y="453"/>
      <point x="117" y="463"/>
      <point x="117" y="475" type="curve" smooth="yes"/>
      <point x="117" y="487"/>
      <point x="127" y="498"/>
      <point x="148" y="498" type="curve" smooth="yes"/>
      <point x="202" y="498" type="line"/>
      <point x="202" y="471" type="line"/>
      <point x="183" y="458"/>
      <point x="162" y="453"/>
      <point x="141" y="453" type="curve" smooth="yes"/>
    </contour>
  </outline>
</glyph>
<glyph name="registered" format="1">
  <advance width="745"/>
  <unicode hex="00AE"/>
  <outline>
    <contour>
      <point x="584" y="150"/>
      <point x="714" y="298"/>
      <point x="714" y="487" type="curve" smooth="yes"/>
      <point x="714" y="678"/>
      <point x="584" y="827"/>
      <point x="372" y="827" type="curve" smooth="yes"/>
      <point x="162" y="827"/>
      <point x="31" y="678"/>
      <point x="31" y="487" type="curve" smooth="yes"/>
      <point x="31" y="298"/>
      <point x="162" y="150"/>
      <point x="372" y="150" type="curve" smooth="yes"/>
    </contour>
    <contour>
      <point x="206" y="223"/>
      <point x="109" y="335"/>
      <point x="109" y="488" type="curve" smooth="yes"/>
      <point x="109" y="643"/>
      <point x="206" y="755"/>
      <point x="372" y="755" type="curve" smooth="yes"/>
      <point x="537" y="755"/>
      <point x="636" y="643"/>
      <point x="636" y="488" type="curve" smooth="yes"/>
      <point x="636" y="335"/>
      <point x="537" y="223"/>
      <point x="372" y="221" type="curve"/>
    </contour>
    <contour>
      <point x="442" y="304" type="line"/>
      <point x="545" y="304" type="line"/>
      <point x="466" y="465" type="line"/>
      <point x="504" y="484"/>
      <point x="531" y="517"/>
      <point x="531" y="566" type="curve" smooth="yes"/>
      <point x="531" y="645"/>
      <point x="466" y="681"/>
      <point x="384" y="681" type="curve" smooth="yes"/>
      <point x="234" y="681" type="line"/>
      <point x="234" y="304" type="line"/>
      <point x="326" y="304" type="line"/>
      <point x="326" y="447" type="line"/>
      <point x="380" y="447" type="line"/>
    </contour>
    <contour>
      <point x="360" y="605" type="line" smooth="yes"/>
      <point x="407" y="605"/>
      <point x="435" y="599"/>
      <point x="435" y="562" type="curve" smooth="yes"/>
      <point x="435" y="529"/>
      <point x="405" y="521"/>
      <point x="361" y="521" type="curve" smooth="yes"/>
      <point x="326" y="521" type="line"/>
      <point x="326" y="605" type="line"/>
    </contour>
  </outline>
</glyph>
<glyph name="macron" format="1">
  <advance width="293"/>
  <unicode hex="00AF"/>
  <outline>
    <contour>
      <point x="16" y="716" type="line"/>
      <point x="16" y="613" type="line"/>
      <point x="278" y="613" type="line"/>
      <point x="278" y="716" type="line"/>
    </contour>
    <contour>
      <point x="150" y="545" type="move" name="_top"/>
    </contour>
  </outline>
</glyph>
<glyph name="threesuperior" format="1">
  <advance width="425"/>
  <unicode hex="00B3"/>
  <outline>
    <contour>
      <point x="354" y="710"/>
      <point x="302" y="771"/>
      <point x="195" y="771" type="curve" smooth="yes"/>
      <point x="134" y="771"/>
      <point x="85" y="749"/>
      <point x="36" y="717" type="curve"/>
      <point x="83" y="636" type="line"/>
      <point x="108" y="656"/>
      <point x="134" y="674"/>
      <point x="177" y="674" type="curve" smooth="yes"/>
      <point x="222" y="674"/>
      <point x="233" y="652"/>
      <point x="233" y="638" type="curve" smooth="yes"/>
      <point x="233" y="615"/>
      <point x="226" y="583"/>
      <point x="164" y="583" type="curve" smooth="yes"/>
      <point x="115" y="583" type="line"/>
      <point x="128" y="493" type="line"/>
      <point x="159" y="493" type="line" smooth="yes"/>
      <point x="213" y="493"/>
      <point x="241" y="470"/>
      <point x="241" y="426" type="curve" smooth="yes"/>
      <point x="241" y="396"/>
      <point x="215" y="374"/>
      <point x="171" y="374" type="curve" smooth="yes"/>
      <point x="133" y="374"/>
      <point x="111" y="385"/>
      <point x="71" y="409" type="curve"/>
      <point x="21" y="326" type="line"/>
      <point x="66" y="304"/>
      <point x="129" y="279"/>
      <point x="185" y="279" type="curve" smooth="yes"/>
      <point x="293" y="279"/>
      <point x="362" y="344"/>
      <point x="362" y="427" type="curve" smooth="yes"/>
      <point x="362" y="489"/>
      <point x="321" y="533"/>
      <point x="292" y="540" type="curve"/>
      <point x="322" y="552"/>
      <point x="354" y="593"/>
      <point x="354" y="639" type="curve" smooth="yes"/>
    </contour>
  </outline>
</glyph>
<glyph name="mu" format="1">
  <advance width="585"/>
  <unicode hex="00B5"/>
  <outline>
    <contour>
      <point x="302" y="-20"/>
      <point x="374" y="6"/>
      <point x="419" y="48" type="curve"/>
      <point x="454" y="0" type="line"/>
      <point x="522" y="0" type="line"/>
      <point x="522" y="485" type="line"/>
      <point x="392" y="485" type="line"/>
      <point x="392" y="134" type="line"/>
      <point x="360" y="111"/>
      <point x="320" y="91"/>
      <point x="285" y="91" type="curve" smooth="yes"/>
      <point x="228" y="91"/>
      <point x="198" y="125"/>
      <point x="198" y="186" type="curve" smooth="yes"/>
      <point x="198" y="485" type="line"/>
      <point x="69" y="485" type="line"/>
      <point x="69" y="-219" type="line"/>
      <point x="198" y="-209" type="line"/>
      <point x="198" y="-15" type="line"/>
      <point x="213" y="-18"/>
      <point x="230" y="-20"/>
      <point x="250" y="-20" type="curve" smooth="yes"/>
    </contour>
  </outline>
</glyph>
<glyph name="paragraph" format="1">
  <advance width="934"/>
  <unicode hex="00B6"/>
  <outline>
    <contour>
      <point x="677" y="0" type="line"/>
      <point x="808" y="0" type="line"/>
      <point x="808" y="578" type="line"/>
      <point x="902" y="578" type="line"/>
      <point x="902" y="680" type="line"/>
      <point x="310" y="680" type="line" smooth="yes"/>
      <point x="162" y="680"/>
      <point x="42" y="619"/>
      <point x="42" y="462" type="curve" smooth="yes"/>
      <point x="42" y="306"/>
      <point x="174" y="237"/>
      <point x="321" y="237" type="curve" smooth="yes"/>
      <point x="344" y="237" type="line"/>
      <point x="344" y="0" type="line"/>
      <point x="475" y="0" type="line"/>
      <point x="475" y="578" type="line"/>
      <point x="677" y="578" type="line"/>
    </contour>
  </outline>
</glyph>
<glyph name="periodcentered" format="1">
  <advance width="167"/>
  <unicode hex="00B7"/>
  <outline>
    <contour>
      <point x="156" y="304"/>
      <point x="125" y="335"/>
      <point x="84" y="335" type="curve" smooth="yes"/>
      <point x="42" y="335"/>
      <point x="10" y="304"/>
      <point x="10" y="262" type="curve" smooth="yes"/>
      <point x="10" y="221"/>
      <point x="42" y="189"/>
      <point x="84" y="189" type="curve" smooth="yes"/>
      <point x="125" y="189"/>
      <point x="156" y="221"/>
      <point x="156" y="262" type="curve" smooth="yes"/>
    </contour>
  </outline>
</glyph>
<glyph name="onesuperior" format="1">
  <advance width="389"/>
  <unicode hex="00B9"/>
  <outline>
    <contour>
      <point x="65" y="426" type="line"/>
      <point x="73" y="337" type="line"/>
      <point x="337" y="337" type="line"/>
      <point x="328" y="426" type="line"/>
      <point x="266" y="426" type="line"/>
      <point x="266" y="763" type="line"/>
      <point x="189" y="763" type="line"/>
      <point x="62" y="694" type="line"/>
      <point x="108" y="611" type="line"/>
      <point x="148" y="633" type="line"/>
      <point x="148" y="426" type="line"/>
    </contour>
  </outline>
</glyph>
<glyph name="ordmasculine" format="1">
  <advance width="378"/>
  <unicode hex="00BA"/>
  <outline>
    <contour>
      <point x="21" y="429"/>
      <point x="80" y="363"/>
      <point x="183" y="363" type="curve" smooth="yes"/>
      <point x="288" y="363"/>
      <point x="356" y="428"/>
      <point x="356" y="531" type="curve" smooth="yes"/>
      <point x="356" y="634"/>
      <point x="296" y="702"/>
      <point x="188" y="702" type="curve" smooth="yes"/>
      <point x="85" y="702"/>
      <point x="21" y="637"/>
      <point x="21" y="533" type="curve" smooth="yes"/>
    </contour>
    <contour>
      <point x="233" y="612"/>
      <point x="246" y="581"/>
      <point x="246" y="530" type="curve" smooth="yes"/>
      <point x="246" y="477"/>
      <point x="227" y="452"/>
      <point x="185" y="452" type="curve" smooth="yes"/>
      <point x="146" y="452"/>
      <point x="131" y="480"/>
      <point x="131" y="533" type="curve" smooth="yes"/>
      <point x="131" y="589"/>
      <point x="154" y="612"/>
      <point x="190" y="612" type="curve" smooth="yes"/>
    </contour>
  </outline>
</glyph>
<glyph name="onehalf" format="1">
  <advance width="970"/>
  <unicode hex="00BD"/>
  <outline>
    <contour>
      <point x="914" y="253"/>
      <point x="864" y="324"/>
      <point x="749" y="324" type="curve" smooth="yes"/>
      <point x="679" y="324"/>
      <point x="635" y="293"/>
      <point x="608" y="272" type="curve"/>
      <point x="651" y="188" type="line"/>
      <point x="653" y="190"/>
      <point x="706" y="229"/>
      <point x="743" y="229" type="curve" smooth="yes"/>
      <point x="775" y="229"/>
      <point x="795" y="209"/>
      <point x="795" y="189" type="curve" smooth="yes"/>
      <point x="795" y="143"/>
      <point x="775" y="116"/>
      <point x="737" y="85" type="curve" smooth="yes"/>
      <point x="600" y="-27" type="line"/>
      <point x="600" y="-110" type="line"/>
      <point x="927" y="-110" type="line"/>
      <point x="913" y="-20" type="line"/>
      <point x="758" y="-20" type="line"/>
      <point x="811" y="24" type="line" smooth="yes"/>
      <point x="885" y="85"/>
      <point x="914" y="129"/>
      <point x="914" y="189" type="curve" smooth="yes"/>
    </contour>
    <contour>
      <point x="650" y="498" type="line"/>
      <point x="508" y="498" type="line"/>
      <point x="223" y="0" type="line"/>
      <point x="363" y="0" type="line"/>
    </contour>
    <contour>
      <point x="65" y="426" type="line"/>
      <point x="73" y="337" type="line"/>
      <point x="337" y="337" type="line"/>
      <point x="328" y="426" type="line"/>
      <point x="266" y="426" type="line"/>
      <point x="266" y="763" type="line"/>
      <point x="189" y="763" type="line"/>
      <point x="62" y="694" type="line"/>
      <point x="108" y="611" type="line"/>
      <point x="148" y="633" type="line"/>
      <point x="148" y="426" type="line"/>
    </contour>
  </outline>
</glyph>
<glyph name="questiondown" format="1">
  <advance width="458"/>
  <unicode hex="00BF"/>
  <outline>
    <contour>
      <point x="42" y="36"/>
      <point x="108" y="-37"/>
      <point x="241" y="-37" type="curve" smooth="yes"/>
      <point x="315" y="-37"/>
      <point x="375" y="-20"/>
      <point x="436" y="19" type="curve"/>
      <point x="419" y="136" type="line"/>
      <point x="352" y="88"/>
      <point x="288" y="71"/>
      <point x="245" y="71" type="curve" smooth="yes"/>
      <point x="197" y="71"/>
      <point x="160" y="99"/>
      <point x="160" y="143" type="curve" smooth="yes"/>
      <point x="160" y="199"/>
      <point x="227" y="251"/>
      <point x="324" y="282" type="curve"/>
      <point x="315" y="447" type="line"/>
      <point x="223" y="485" type="line"/>
      <point x="206" y="349" type="line"/>
      <point x="113" y="298"/>
      <point x="42" y="216"/>
      <point x="42" y="142" type="curve" smooth="yes"/>
    </contour>
    <contour>
      <point x="203" y="550"/>
      <point x="235" y="517"/>
      <point x="276" y="517" type="curve" smooth="yes"/>
      <point x="318" y="517"/>
      <point x="350" y="550"/>
      <point x="350" y="591" type="curve" smooth="yes"/>
      <point x="350" y="631"/>
      <point x="318" y="664"/>
      <point x="276" y="664" type="curve" smooth="yes"/>
      <point x="235" y="664"/>
      <point x="203" y="631"/>
      <point x="203" y="591" type="curve" smooth="yes"/>
    </contour>
  </outline>
</glyph>
<glyph name="Atilde" format="1">
  <advance width="651"/>
  <unicode hex="00C3"/>
  <outline>
    <contour>
      <point x="381" y="680" type="line"/>
      <point x="271" y="680" type="line"/>
      <point x="6" y="0" type="line"/>
      <point x="136" y="0" type="line"/>
      <point x="196" y="160" type="line"/>
      <point x="454" y="160" type="line"/>
      <point x="515" y="0" type="line"/>
      <point x="645" y="18" type="line"/>
    </contour>
    <contour>
      <point x="323" y="502" type="line"/>
      <point x="414" y="265" type="line"/>
      <point x="234" y="265" type="line"/>
    </contour>
    <contour>
      <point x="240" y="750" type="line"/>
      <point x="240" y="763"/>
      <point x="253" y="781"/>
      <point x="268" y="781" type="curve" smooth="yes"/>
      <point x="304" y="781"/>
      <point x="325" y="745"/>
      <point x="374" y="745" type="curve" smooth="yes"/>
      <point x="428" y="745"/>
      <point x="481" y="775"/>
      <point x="481" y="866" type="curve"/>
      <point x="400" y="866" type="line"/>
      <point x="400" y="850"/>
      <point x="388" y="835"/>
      <point x="373" y="835" type="curve" smooth="yes"/>
      <point x="336" y="835"/>
      <point x="310" y="870"/>
      <point x="261" y="870" type="curve" smooth="yes"/>
      <point x="207" y="870"/>
      <point x="154" y="840"/>
      <point x="154" y="750" type="curve"/>
    </contour>
  </outline>
</glyph>
<glyph name="Adieresis" format="1">
  <advance width="651"/>
  <unicode hex="00C4"/>
  <outline>
    <contour>
      <point x="381" y="680" type="line"/>
      <point x="271" y="680" type="line"/>
      <point x="6" y="0" type="line"/>
      <point x="136" y="0" type="line"/>
      <point x="196" y="160" type="line"/>
      <point x="454" y="160" type="line"/>
      <point x="515" y="0" type="line"/>
      <point x="645" y="18" type="line"/>
    </contour>
    <contour>
      <point x="323" y="502" type="line"/>
      <point x="414" y="265" type="line"/>
      <point x="234" y="265" type="line"/>
    </contour>
    <contour>
      <point x="482" y="853"/>
      <point x="454" y="882"/>
      <point x="417" y="882" type="curve" smooth="yes"/>
      <point x="382" y="882"/>
      <point x="352" y="853"/>
      <point x="352" y="817" type="curve" smooth="yes"/>
      <point x="352" y="781"/>
      <point x="382" y="753"/>
      <point x="417" y="753" type="curve" smooth="yes"/>
      <point x="454" y="753"/>
      <point x="482" y="781"/>
      <point x="482" y="817" type="curve" smooth="yes"/>
    </contour>
    <contour>
      <point x="290" y="853"/>
      <point x="263" y="882"/>
      <point x="227" y="882" type="curve" smooth="yes"/>
      <point x="190" y="882"/>
      <point x="161" y="853"/>
      <point x="161" y="817" type="curve" smooth="yes"/>
      <point x="161" y="781"/>
      <point x="190" y="753"/>
      <point x="227" y="753" type="curve" smooth="yes"/>
      <point x="263" y="753"/>
      <point x="290" y="781"/>
      <point x="290" y="817" type="curve" smooth="yes"/>
    </contour>
  </outline>
</glyph>
<glyph name="Aring" format="1">
  <advance width="651"/>
  <unicode hex="00C5"/>
  <outline>
    <contour>
      <point x="381" y="680" type="line"/>
      <point x="271" y="680" type="line"/>
      <point x="6" y="0" type="line"/>
      <point x="136" y="0" type="line"/>
      <point x="196" y="160" type="line"/>
      <point x="454" y="160" type="line"/>
      <point x="515" y="0" type="line"/>
      <point x="645" y="18" type="line"/>
    </contour>
    <contour>
      <point x="323" y="502" type="line"/>
      <point x="414" y="265" type="line"/>
      <point x="234" y="265" type="line"/>
    </contour>
    <contour>
      <point x="361" y="821"/>
      <point x="344" y="802"/>
      <point x="322" y="802" type="curve" smooth="yes"/>
      <point x="300" y="802"/>
      <point x="282" y="821"/>
      <point x="282" y="842" type="curve" smooth="yes"/>
      <point x="282" y="864"/>
      <point x="300" y="881"/>
      <point x="322" y="881" type="curve" smooth="yes"/>
      <point x="344" y="881"/>
      <point x="361" y="864"/>
      <point x="361" y="842" type="curve" smooth="yes"/>
    </contour>
    <contour>
      <point x="429" y="899"/>
      <point x="379" y="943"/>
      <point x="322" y="943" type="curve" smooth="yes"/>
      <point x="264" y="943"/>
      <point x="215" y="899"/>
      <point x="215" y="842" type="curve" smooth="yes"/>
      <point x="215" y="784"/>
      <point x="264" y="744"/>
      <point x="322" y="744" type="curve" smooth="yes"/>
      <point x="379" y="744"/>
      <point x="429" y="784"/>
      <point x="429" y="842" type="curve" smooth="yes"/>
    </contour>
  </outline>
</glyph>
<glyph name="Edieresis" format="1">
  <advance width="580"/>
  <unicode hex="00CB"/>
  <outline>
    <contour>
      <point x="560" y="0" type="line"/>
      <point x="539" y="101" type="line"/>
      <point x="213" y="101" type="line"/>
      <point x="213" y="292" type="line"/>
      <point x="416" y="292" type="line"/>
      <point x="395" y="395" type="line"/>
      <point x="213" y="395" type="line"/>
      <point x="213" y="578" type="line"/>
      <point x="510" y="578" type="line"/>
      <point x="490" y="680" type="line"/>
      <point x="84" y="680" type="line"/>
      <point x="84" y="0" type="line"/>
    </contour>
    <contour>
      <point x="453" y="853"/>
      <point x="425" y="882"/>
      <point x="388" y="882" type="curve" smooth="yes"/>
      <point x="353" y="882"/>
      <point x="323" y="853"/>
      <point x="323" y="817" type="curve" smooth="yes"/>
      <point x="323" y="781"/>
      <point x="353" y="753"/>
      <point x="388" y="753" type="curve" smooth="yes"/>
      <point x="425" y="753"/>
      <point x="453" y="781"/>
      <point x="453" y="817" type="curve" smooth="yes"/>
    </contour>
    <contour>
      <point x="261" y="853"/>
      <point x="234" y="882"/>
      <point x="198" y="882" type="curve" smooth="yes"/>
      <point x="161" y="882"/>
      <point x="132" y="853"/>
      <point x="132" y="817" type="curve" smooth="yes"/>
      <point x="132" y="781"/>
      <point x="161" y="753"/>
      <point x="198" y="753" type="curve" smooth="yes"/>
      <point x="234" y="753"/>
      <point x="261" y="781"/>
      <point x="261" y="817" type="curve" smooth="yes"/>
    </contour>
  </outline>
</glyph>
<glyph name="Igrave" format="1">
  <advance width="297"/>
  <unicode hex="00CC"/>
  <outline>
    <contour>
      <point x="213" y="680" type="line"/>
      <point x="84" y="680" type="line"/>
      <point x="84" y="0" type="line"/>
      <point x="213" y="0" type="line"/>
    </contour>
    <contour>
      <point x="41" y="903" type="line"/>
      <point x="136" y="739" type="line"/>
      <point x="235" y="739" type="line"/>
      <point x="175" y="903" type="line"/>
    </contour>
  </outline>
</glyph>
<glyph name="Idieresis" format="1">
  <advance width="297"/>
  <unicode hex="00CF"/>
  <outline>
    <contour>
      <point x="213" y="680" type="line"/>
      <point x="84" y="680" type="line"/>
      <point x="84" y="0" type="line"/>
      <point x="213" y="0" type="line"/>
    </contour>
    <contour>
      <point x="308" y="853"/>
      <point x="280" y="882"/>
      <point x="243" y="882" type="curve" smooth="yes"/>
      <point x="208" y="882"/>
      <point x="178" y="853"/>
      <point x="178" y="817" type="curve" smooth="yes"/>
      <point x="178" y="781"/>
      <point x="208" y="753"/>
      <point x="243" y="753" type="curve" smooth="yes"/>
      <point x="280" y="753"/>
      <point x="308" y="781"/>
      <point x="308" y="817" type="curve" smooth="yes"/>
    </contour>
    <contour>
      <point x="116" y="853"/>
      <point x="89" y="882"/>
      <point x="53" y="882" type="curve" smooth="yes"/>
      <point x="16" y="882"/>
      <point x="-13" y="853"/>
      <point x="-13" y="817" type="curve" smooth="yes"/>
      <point x="-13" y="781"/>
      <point x="16" y="753"/>
      <point x="53" y="753" type="curve" smooth="yes"/>
      <point x="89" y="753"/>
      <point x="116" y="781"/>
      <point x="116" y="817" type="curve" smooth="yes"/>
    </contour>
  </outline>
</glyph>
<glyph name="Ntilde" format="1">
  <advance width="742"/>
  <unicode hex="00D1"/>
  <outline>
    <contour>
      <point x="658" y="680" type="line"/>
      <point x="528" y="680" type="line"/>
      <point x="528" y="226" type="line"/>
      <point x="213" y="680" type="line"/>
      <point x="84" y="680" type="line"/>
      <point x="84" y="0" type="line"/>
      <point x="213" y="0" type="line"/>
      <point x="213" y="455" type="line"/>
      <point x="528" y="0" type="line"/>
      <point x="658" y="0" type="line"/>
    </contour>
    <contour>
      <point x="297" y="750" type="line"/>
      <point x="297" y="763"/>
      <point x="310" y="781"/>
      <point x="325" y="781" type="curve" smooth="yes"/>
      <point x="361" y="781"/>
      <point x="382" y="745"/>
      <point x="431" y="745" type="curve" smooth="yes"/>
      <point x="485" y="745"/>
      <point x="538" y="775"/>
      <point x="538" y="866" type="curve"/>
      <point x="457" y="866" type="line"/>
      <point x="457" y="850"/>
      <point x="445" y="835"/>
      <point x="430" y="835" type="curve" smooth="yes"/>
      <point x="393" y="835"/>
      <point x="367" y="870"/>
      <point x="318" y="870" type="curve" smooth="yes"/>
      <point x="264" y="870"/>
      <point x="211" y="840"/>
      <point x="211" y="750" type="curve"/>
    </contour>
  </outline>
</glyph>
<glyph name="Oacute" format="1">
  <advance width="741"/>
  <unicode hex="00D3"/>
  <outline>
    <contour>
      <point x="171" y="692"/>
      <point x="57" y="548"/>
      <point x="57" y="337" type="curve" smooth="yes"/>
      <point x="57" y="141"/>
      <point x="157" y="-14"/>
      <point x="370" y="-14" type="curve" smooth="yes"/>
      <point x="570" y="-14"/>
      <point x="684" y="132"/>
      <point x="684" y="344" type="curve" smooth="yes"/>
      <point x="684" y="540"/>
      <point x="584" y="696"/>
      <point x="370" y="696" type="curve"/>
    </contour>
    <contour>
      <point x="247" y="95"/>
      <point x="192" y="195"/>
      <point x="192" y="338" type="curve" smooth="yes"/>
      <point x="192" y="491"/>
      <point x="265" y="586"/>
      <point x="372" y="586" type="curve" smooth="yes"/>
      <point x="494" y="586"/>
      <point x="549" y="486"/>
      <point x="549" y="344" type="curve" smooth="yes"/>
      <point x="549" y="174"/>
      <point x="479" y="95"/>
      <point x="369" y="95" type="curve" smooth="yes"/>
    </contour>
    <contour>
      <point x="352" y="903" type="line"/>
      <point x="292" y="739" type="line"/>
      <point x="391" y="739" type="line"/>
      <point x="486" y="903" type="line"/>
    </contour>
  </outline>
</glyph>
<glyph name="Odieresis" format="1">
  <advance width="741"/>
  <unicode hex="00D6"/>
  <outline>
    <contour>
      <point x="171" y="692"/>
      <point x="57" y="548"/>
      <point x="57" y="337" type="curve" smooth="yes"/>
      <point x="57" y="141"/>
      <point x="157" y="-14"/>
      <point x="370" y="-14" type="curve" smooth="yes"/>
      <point x="570" y="-14"/>
      <point x="684" y="132"/>
      <point x="684" y="344" type="curve" smooth="yes"/>
      <point x="684" y="540"/>
      <point x="584" y="696"/>
      <point x="370" y="696" type="curve"/>
    </contour>
    <contour>
      <point x="247" y="95"/>
      <point x="192" y="195"/>
      <point x="192" y="338" type="curve" smooth="yes"/>
      <point x="192" y="491"/>
      <point x="265" y="586"/>
      <point x="372" y="586" type="curve" smooth="yes"/>
      <point x="494" y="586"/>
      <point x="549" y="486"/>
      <point x="549" y="344" type="curve" smooth="yes"/>
      <point x="549" y="174"/>
      <point x="479" y="95"/>
      <point x="369" y="95" type="curve" smooth="yes"/>
    </contour>
    <contour>
      <point x="530" y="853"/>
      <point x="502" y="882"/>
      <point x="465" y="882" type="curve" smooth="yes"/>
      <point x="430" y="882"/>
      <point x="400" y="853"/>
      <point x="400" y="817" type="curve" smooth="yes"/>
      <point x="400" y="781"/>
      <point x="430" y="753"/>
      <point x="465" y="753" type="curve" smooth="yes"/>
      <point x="502" y="753"/>
      <point x="530" y="781"/>
      <point x="530" y="817" type="curve" smooth="yes"/>
    </contour>
    <contour>
      <point x="338" y="853"/>
      <point x="311" y="882"/>
      <point x="275" y="882" type="curve" smooth="yes"/>
      <point x="238" y="882"/>
      <point x="209" y="853"/>
      <point x="209" y="817" type="curve" smooth="yes"/>
      <point x="209" y="781"/>
      <point x="238" y="753"/>
      <point x="275" y="753" type="curve" smooth="yes"/>
      <point x="311" y="753"/>
      <point x="338" y="781"/>
      <point x="338" y="817" type="curve" smooth="yes"/>
    </contour>
  </outline>
</glyph>
<glyph name="multiply" format="1">
  <advance width="551"/>
  <unicode hex="00D7"/>
  <outline>
    <contour>
      <point x="21" y="45" type="line"/>
      <point x="140" y="25" type="line"/>
      <point x="263" y="174" type="line"/>
      <point x="381" y="29" type="line"/>
      <point x="514" y="29" type="line"/>
      <point x="337" y="251" type="line"/>
      <point x="530" y="484" type="line"/>
      <point x="396" y="484" type="line"/>
      <point x="272" y="335" type="line"/>
      <point x="150" y="486" type="line"/>
      <point x="28" y="468" type="line"/>
      <point x="197" y="258" type="line"/>
    </contour>
  </outline>
</glyph>
<glyph name="Oslash" format="1">
  <advance width="741"/>
  <unicode hex="00D8"/>
  <outline>
    <contour>
      <point x="171" y="692"/>
      <point x="57" y="548"/>
      <point x="57" y="337" type="curve" smooth="yes"/>
      <point x="57" y="141"/>
      <point x="157" y="-14"/>
      <point x="370" y="-14" type="curve" smooth="yes"/>
      <point x="570" y="-14"/>
      <point x="684" y="132"/>
      <point x="684" y="344" type="curve" smooth="yes"/>
      <point x="684" y="540"/>
      <point x="584" y="696"/>
      <point x="370" y="696" type="curve"/>
    </contour>
    <contour>
      <point x="192" y="491"/>
      <point x="265" y="586"/>
      <point x="372" y="586" type="curve" smooth="yes"/>
      <point x="385" y="586"/>
      <point x="395" y="585"/>
      <point x="407" y="583" type="curve"/>
      <point x="233" y="166" type="line"/>
      <point x="206" y="208"/>
      <point x="192" y="268"/>
      <point x="192" y="338" type="curve" smooth="yes"/>
    </contour>
    <contour>
      <point x="359" y="95"/>
      <point x="350" y="96"/>
      <point x="341" y="97" type="curve"/>
      <point x="514" y="506" type="line"/>
      <point x="537" y="464"/>
      <point x="549" y="408"/>
      <point x="549" y="344" type="curve" smooth="yes"/>
      <point x="549" y="174"/>
      <point x="479" y="95"/>
      <point x="369" y="95" type="curve" smooth="yes"/>
    </contour>
  </outline>
</glyph>
<glyph name="Ucircumflex" format="1">
  <advance width="713"/>
  <unicode hex="00DB"/>
  <outline>
    <contour>
      <point x="292" y="739" type="line"/>
      <point x="359" y="804" type="line"/>
      <point x="425" y="739" type="line"/>
      <point x="544" y="739" type="line"/>
      <point x="392" y="903" type="line"/>
      <point x="321" y="903" type="line"/>
      <point x="169" y="739" type="line"/>
    </contour>
    <contour>
      <point x="209" y="680" type="line"/>
      <point x="78" y="680" type="line"/>
      <point x="78" y="247" type="line" smooth="yes"/>
      <point x="78" y="100"/>
      <point x="184" y="-11"/>
      <point x="354" y="-11" type="curve" smooth="yes"/>
      <point x="527" y="-11"/>
      <point x="634" y="99"/>
      <point x="634" y="247" type="curve" smooth="yes"/>
      <point x="634" y="680" type="line"/>
      <point x="503" y="680" type="line"/>
      <point x="503" y="257" type="line" smooth="yes"/>
      <point x="503" y="147"/>
      <point x="445" y="95"/>
      <point x="356" y="95" type="curve" smooth="yes"/>
      <point x="269" y="95"/>
      <point x="209" y="143"/>
      <point x="209" y="257" type="curve" smooth="yes"/>
    </contour>
  </outline>
</glyph>
<glyph name="Thorn" format="1">
  <advance width="607"/>
  <unicode hex="00DE"/>
  <outline>
    <contour>
      <point x="213" y="680" type="line"/>
      <point x="84" y="680" type="line"/>
      <point x="84" y="0" type="line"/>
      <point x="213" y="0" type="line"/>
      <point x="213" y="123" type="line"/>
      <point x="288" y="123" type="line" smooth="yes"/>
      <point x="433" y="123"/>
      <point x="566" y="192"/>
      <point x="566" y="349" type="curve" smooth="yes"/>
      <point x="566" y="506"/>
      <point x="446" y="566"/>
      <point x="297" y="566" type="curve" smooth="yes"/>
      <point x="213" y="566" type="line"/>
    </contour>
    <contour>
      <point x="293" y="460" type="line" smooth="yes"/>
      <point x="379" y="460"/>
      <point x="429" y="429"/>
      <point x="429" y="342" type="curve"/>
      <point x="423" y="265"/>
      <point x="373" y="230"/>
      <point x="295" y="230" type="curve" smooth="yes"/>
      <point x="213" y="230" type="line"/>
      <point x="213" y="460" type="line"/>
    </contour>
  </outline>
</glyph>
<glyph name="germandbls" format="1">
  <advance width="640"/>
  <unicode hex="00DF"/>
  <outline>
    <contour>
      <point x="154" y="702"/>
      <point x="69" y="610"/>
      <point x="69" y="473" type="curve" smooth="yes"/>
      <point x="69" y="0" type="line"/>
      <point x="198" y="0" type="line"/>
      <point x="198" y="471" type="line" smooth="yes"/>
      <point x="198" y="545"/>
      <point x="245" y="590"/>
      <point x="310" y="590" type="curve" smooth="yes"/>
      <point x="367" y="590"/>
      <point x="415" y="556"/>
      <point x="415" y="499" type="curve" smooth="yes"/>
      <point x="415" y="447"/>
      <point x="371" y="403"/>
      <point x="299" y="403" type="curve" smooth="yes"/>
      <point x="264" y="403" type="line"/>
      <point x="264" y="299" type="line"/>
      <point x="358" y="299" type="line" smooth="yes"/>
      <point x="414" y="299"/>
      <point x="463" y="257"/>
      <point x="463" y="199" type="curve" smooth="yes"/>
      <point x="463" y="145"/>
      <point x="411" y="107"/>
      <point x="349" y="107" type="curve" smooth="yes"/>
      <point x="258" y="107" type="line"/>
      <point x="258" y="0" type="line"/>
      <point x="358" y="0" type="line" smooth="yes"/>
      <point x="504" y="0"/>
      <point x="600" y="75"/>
      <point x="600" y="195" type="curve" smooth="yes"/>
      <point x="600" y="285"/>
      <point x="533" y="356"/>
      <point x="470" y="372" type="curve"/>
      <point x="516" y="394"/>
      <point x="551" y="454"/>
      <point x="551" y="508" type="curve" smooth="yes"/>
      <point x="551" y="636"/>
      <point x="444" y="702"/>
      <point x="304" y="702" type="curve" smooth="yes"/>
    </contour>
  </outline>
</glyph>
<glyph name="adieresis" format="1">
  <advance width="516"/>
  <unicode hex="00E4"/>
  <outline>
    <contour>
      <point x="48" y="51"/>
      <point x="104" y="-12"/>
      <point x="223" y="-12" type="curve" smooth="yes"/>
      <point x="271" y="-12"/>
      <point x="323" y="13"/>
      <point x="359" y="41" type="curve"/>
      <point x="391" y="0" type="line"/>
      <point x="458" y="0" type="line"/>
      <point x="458" y="319" type="line" smooth="yes"/>
      <point x="458" y="423"/>
      <point x="363" y="498"/>
      <point x="247" y="498" type="curve" smooth="yes"/>
      <point x="205" y="498"/>
      <point x="111" y="479"/>
      <point x="73" y="454" type="curve"/>
      <point x="108" y="346" type="line"/>
      <point x="144" y="363"/>
      <point x="204" y="378"/>
      <point x="249" y="378" type="curve" smooth="yes"/>
      <point x="297" y="378"/>
      <point x="325" y="349"/>
      <point x="327" y="300" type="curve"/>
      <point x="232" y="300" type="line" smooth="yes"/>
      <point x="122" y="300"/>
      <point x="48" y="245"/>
      <point x="48" y="145" type="curve" smooth="yes"/>
    </contour>
    <contour>
      <point x="184" y="91"/>
      <point x="159" y="117"/>
      <point x="159" y="145" type="curve" smooth="yes"/>
      <point x="159" y="180"/>
      <point x="184" y="213"/>
      <point x="230" y="213" type="curve" smooth="yes"/>
      <point x="328" y="213" type="line"/>
      <point x="328" y="139" type="line"/>
      <point x="294" y="107"/>
      <point x="257" y="91"/>
      <point x="221" y="91" type="curve" smooth="yes"/>
    </contour>
    <contour>
      <point x="420" y="703"/>
      <point x="393" y="732"/>
      <point x="356" y="732" type="curve" smooth="yes"/>
      <point x="321" y="732"/>
      <point x="291" y="703"/>
      <point x="291" y="667" type="curve" smooth="yes"/>
      <point x="291" y="631"/>
      <point x="321" y="603"/>
      <point x="356" y="603" type="curve" smooth="yes"/>
      <point x="393" y="603"/>
      <point x="420" y="631"/>
      <point x="420" y="667" type="curve" smooth="yes"/>
    </contour>
    <contour>
      <point x="229" y="703"/>
      <point x="201" y="732"/>
      <point x="165" y="732" type="curve" smooth="yes"/>
      <point x="128" y="732"/>
      <point x="99" y="703"/>
      <point x="99" y="667" type="curve" smooth="yes"/>
      <point x="99" y="631"/>
      <point x="128" y="603"/>
      <point x="165" y="603" type="curve" smooth="yes"/>
      <point x="201" y="603"/>
      <point x="229" y="631"/>
      <point x="229" y="667" type="curve" smooth="yes"/>
    </contour>
  </outline>
</glyph>
<glyph name="ae" format="1">
  <advance width="828"/>
  <unicode hex="00E6"/>
  <outline>
    <contour>
      <point x="48" y="48"/>
      <point x="104" y="-12"/>
      <point x="223" y="-12" type="curve" smooth="yes"/>
      <point x="285" y="-12"/>
      <point x="354" y="29"/>
      <point x="387" y="68" type="curve"/>
      <point x="433" y="17"/>
      <point x="504" y="-12"/>
      <point x="596" y="-12" type="curve" smooth="yes"/>
      <point x="638" y="-12"/>
      <point x="713" y="3"/>
      <point x="759" y="38" type="curve"/>
      <point x="720" y="132" type="line"/>
      <point x="673" y="110"/>
      <point x="645" y="99"/>
      <point x="599" y="99" type="curve" smooth="yes"/>
      <point x="521" y="99"/>
      <point x="475" y="140"/>
      <point x="463" y="204" type="curve"/>
      <point x="791" y="204" type="line"/>
      <point x="791" y="244" type="line" smooth="yes"/>
      <point x="791" y="382"/>
      <point x="722" y="498"/>
      <point x="568" y="498" type="curve" smooth="yes"/>
      <point x="500" y="498"/>
      <point x="443" y="476"/>
      <point x="402" y="439" type="curve"/>
      <point x="363" y="475"/>
      <point x="308" y="498"/>
      <point x="247" y="498" type="curve" smooth="yes"/>
      <point x="205" y="498"/>
      <point x="111" y="479"/>
      <point x="73" y="454" type="curve"/>
      <point x="108" y="346" type="line"/>
      <point x="144" y="363"/>
      <point x="204" y="378"/>
      <point x="249" y="378" type="curve" smooth="yes"/>
      <point x="299" y="378"/>
      <point x="328" y="346"/>
      <point x="328" y="293" type="curve" smooth="yes"/>
      <point x="232" y="293" type="line" smooth="yes"/>
      <point x="122" y="293"/>
      <point x="48" y="241"/>
      <point x="48" y="141" type="curve" smooth="yes"/>
    </contour>
    <contour>
      <point x="184" y="91"/>
      <point x="159" y="113"/>
      <point x="159" y="141" type="curve" smooth="yes"/>
      <point x="159" y="176"/>
      <point x="184" y="204"/>
      <point x="230" y="204" type="curve" smooth="yes"/>
      <point x="326" y="204" type="line"/>
      <point x="330" y="185"/>
      <point x="333" y="167"/>
      <point x="338" y="150" type="curve"/>
      <point x="303" y="111"/>
      <point x="260" y="91"/>
      <point x="221" y="91" type="curve" smooth="yes"/>
    </contour>
    <contour>
      <point x="617" y="387"/>
      <point x="654" y="356"/>
      <point x="666" y="291" type="curve"/>
      <point x="463" y="291" type="line"/>
      <point x="475" y="354"/>
      <point x="514" y="387"/>
      <point x="566" y="387" type="curve" smooth="yes"/>
    </contour>
  </outline>
</glyph>
<glyph name="ccedilla" format="1">
  <advance width="486"/>
  <unicode hex="00E7"/>
  <outline>
    <contour>
      <point x="176" y="325"/>
      <point x="219" y="387"/>
      <point x="293" y="387" type="curve" smooth="yes"/>
      <point x="339" y="387"/>
      <point x="370" y="375"/>
      <point x="417" y="354" type="curve"/>
      <point x="454" y="447" type="line"/>
      <point x="406" y="481"/>
      <point x="333" y="498"/>
      <point x="292" y="498" type="curve" smooth="yes"/>
      <point x="134" y="498"/>
      <point x="42" y="398"/>
      <point x="42" y="242" type="curve" smooth="yes"/>
      <point x="42" y="103"/>
      <point x="115" y="9"/>
      <point x="244" y="-8" type="curve"/>
      <point x="218" y="-75" type="line"/>
      <point x="270" y="-81"/>
      <point x="304" y="-100"/>
      <point x="304" y="-120" type="curve" smooth="yes"/>
      <point x="304" y="-134"/>
      <point x="288" y="-137"/>
      <point x="272" y="-137" type="curve" smooth="yes"/>
      <point x="255" y="-137"/>
      <point x="224" y="-126"/>
      <point x="206" y="-117" type="curve"/>
      <point x="176" y="-193" type="line"/>
      <point x="197" y="-210"/>
      <point x="245" y="-221"/>
      <point x="272" y="-221" type="curve" smooth="yes"/>
      <point x="337" y="-221"/>
      <point x="396" y="-189"/>
      <point x="396" y="-118" type="curve" smooth="yes"/>
      <point x="396" y="-83"/>
      <point x="367" y="-45"/>
      <point x="328" y="-29" type="curve"/>
      <point x="336" y="-8" type="line"/>
      <point x="375" y="-1"/>
      <point x="422" y="13"/>
      <point x="454" y="38" type="curve"/>
      <point x="417" y="132" type="line"/>
      <point x="370" y="110"/>
      <point x="339" y="99"/>
      <point x="293" y="99" type="curve" smooth="yes"/>
      <point x="219" y="99"/>
      <point x="176" y="158"/>
      <point x="176" y="242" type="curve" smooth="yes"/>
    </contour>
  </outline>
</glyph>
<glyph name="iacute" format="1">
  <advance width="256"/>
  <unicode hex="00ED"/>
  <outline>
    <contour>
      <point x="192" y="485" type="line"/>
      <point x="62" y="485" type="line"/>
      <point x="62" y="0" type="line"/>
      <point x="192" y="0" type="line"/>
    </contour>
    <contour>
      <point x="123" y="753" type="line"/>
      <point x="63" y="589" type="line"/>
      <point x="162" y="589" type="line"/>
      <point x="258" y="753" type="line"/>
    </contour>
  </outline>
</glyph>
<glyph name="icircumflex" format="1">
  <advance width="256"/>
  <unicode hex="00EE"/>
  <outline>
    <contour>
      <point x="192" y="485" type="line"/>
      <point x="62" y="485" type="line"/>
      <point x="62" y="0" type="line"/>
      <point x="192" y="0" type="line"/>
    </contour>
    <contour>
      <point x="64" y="589" type="line"/>
      <point x="131" y="654" type="line"/>
      <point x="197" y="589" type="line"/>
      <point x="316" y="589" type="line"/>
      <point x="162" y="753" type="line"/>
      <point x="93" y="753" type="line"/>
      <point x="-59" y="589" type="line"/>
    </contour>
  </outline>
</glyph>
<glyph name="eth" format="1">
  <advance width="559"/>
  <unicode hex="00F0"/>
  <outline>
    <contour>
      <point x="405" y="611" type="line"/>
      <point x="356" y="702" type="line"/>
      <point x="285" y="646" type="line"/>
      <point x="242" y="671"/>
      <point x="199" y="690"/>
      <point x="156" y="699" type="curve"/>
      <point x="98" y="612" type="line"/>
      <point x="129" y="605"/>
      <point x="162" y="593"/>
      <point x="192" y="577" type="curve"/>
      <point x="121" y="521" type="line"/>
      <point x="171" y="430" type="line"/>
      <point x="279" y="514" type="line"/>
      <point x="321" y="474"/>
      <point x="355" y="423"/>
      <point x="372" y="365" type="curve"/>
      <point x="338" y="389"/>
      <point x="295" y="407"/>
      <point x="253" y="407" type="curve" smooth="yes"/>
      <point x="121" y="407"/>
      <point x="31" y="314"/>
      <point x="31" y="204" type="curve" smooth="yes"/>
      <point x="31" y="91"/>
      <point x="119" y="-12"/>
      <point x="249" y="-12" type="curve" smooth="yes"/>
      <point x="396" y="-12"/>
      <point x="505" y="80"/>
      <point x="505" y="264" type="curve" smooth="yes"/>
      <point x="505" y="395"/>
      <point x="448" y="503"/>
      <point x="368" y="582" type="curve"/>
    </contour>
    <contour>
      <point x="188" y="94"/>
      <point x="148" y="145"/>
      <point x="148" y="199" type="curve" smooth="yes"/>
      <point x="148" y="256"/>
      <point x="187" y="314"/>
      <point x="253" y="314" type="curve" smooth="yes"/>
      <point x="321" y="314"/>
      <point x="370" y="269"/>
      <point x="387" y="226" type="curve"/>
      <point x="376" y="148"/>
      <point x="332" y="94"/>
      <point x="252" y="94" type="curve" smooth="yes"/>
    </contour>
  </outline>
</glyph>
<glyph name="otilde" format="1">
  <advance width="590"/>
  <unicode hex="00F5"/>
  <outline>
    <contour>
      <point x="42" y="87"/>
      <point x="132" y="-12"/>
      <point x="286" y="-12" type="curve" smooth="yes"/>
      <point x="444" y="-12"/>
      <point x="548" y="84"/>
      <point x="548" y="239" type="curve" smooth="yes"/>
      <point x="548" y="395"/>
      <point x="456" y="498"/>
      <point x="294" y="498" type="curve" smooth="yes"/>
      <point x="137" y="498"/>
      <point x="42" y="400"/>
      <point x="42" y="244" type="curve" smooth="yes"/>
    </contour>
    <contour>
      <point x="372" y="387"/>
      <point x="414" y="331"/>
      <point x="414" y="239" type="curve" smooth="yes"/>
      <point x="414" y="141"/>
      <point x="363" y="99"/>
      <point x="288" y="99" type="curve" smooth="yes"/>
      <point x="212" y="99"/>
      <point x="176" y="148"/>
      <point x="176" y="245" type="curve" smooth="yes"/>
      <point x="176" y="341"/>
      <point x="221" y="387"/>
      <point x="297" y="387" type="curve" smooth="yes"/>
    </contour>
    <contour>
      <point x="213" y="600" type="line"/>
      <point x="213" y="613"/>
      <point x="224" y="631"/>
      <point x="239" y="631" type="curve" smooth="yes"/>
      <point x="276" y="631"/>
      <point x="297" y="595"/>
      <point x="345" y="595" type="curve" smooth="yes"/>
      <point x="401" y="595"/>
      <point x="454" y="625"/>
      <point x="454" y="716" type="curve"/>
      <point x="372" y="716" type="line"/>
      <point x="372" y="700"/>
      <point x="360" y="685"/>
      <point x="344" y="685" type="curve" smooth="yes"/>
      <point x="308" y="685"/>
      <point x="282" y="720"/>
      <point x="233" y="720" type="curve" smooth="yes"/>
      <point x="179" y="720"/>
      <point x="125" y="690"/>
      <point x="125" y="600" type="curve"/>
    </contour>
  </outline>
</glyph>
<glyph name="oslash" format="1">
  <advance width="590"/>
  <unicode hex="00F8"/>
  <outline>
    <contour>
      <point x="42" y="87"/>
      <point x="132" y="-11"/>
      <point x="286" y="-11" type="curve"/>
      <point x="444" y="-11"/>
      <point x="548" y="84"/>
      <point x="548" y="239" type="curve" smooth="yes"/>
      <point x="548" y="395"/>
      <point x="456" y="498"/>
      <point x="294" y="498" type="curve" smooth="yes"/>
      <point x="137" y="498"/>
      <point x="42" y="400"/>
      <point x="42" y="244" type="curve" smooth="yes"/>
    </contour>
    <contour>
      <point x="414" y="141"/>
      <point x="363" y="99"/>
      <point x="288" y="99" type="curve"/>
      <point x="282" y="99" type="line"/>
      <point x="281" y="99"/>
      <point x="280" y="99"/>
      <point x="402" y="311" type="curve"/>
      <point x="409" y="291"/>
      <point x="414" y="266"/>
      <point x="414" y="239" type="curve" smooth="yes"/>
    </contour>
    <contour>
      <point x="306" y="387" type="line"/>
      <point x="185" y="174" type="line"/>
      <point x="179" y="195"/>
      <point x="176" y="218"/>
      <point x="176" y="245" type="curve" smooth="yes"/>
      <point x="176" y="341"/>
      <point x="221" y="387"/>
      <point x="297" y="387" type="curve"/>
    </contour>
  </outline>
</glyph>
<glyph name="ugrave" format="1">
  <advance width="575"/>
  <unicode hex="00F9"/>
  <outline>
    <contour>
      <point x="291" y="-20"/>
      <point x="363" y="6"/>
      <point x="407" y="48" type="curve"/>
      <point x="444" y="0" type="line"/>
      <point x="512" y="0" type="line"/>
      <point x="512" y="485" type="line"/>
      <point x="382" y="485" type="line"/>
      <point x="382" y="134" type="line"/>
      <point x="350" y="111"/>
      <point x="309" y="91"/>
      <point x="274" y="91" type="curve" smooth="yes"/>
      <point x="218" y="91"/>
      <point x="188" y="125"/>
      <point x="188" y="186" type="curve" smooth="yes"/>
      <point x="188" y="485" type="line"/>
      <point x="57" y="485" type="line"/>
      <point x="57" y="180" type="line" smooth="yes"/>
      <point x="57" y="69"/>
      <point x="107" y="-20"/>
      <point x="239" y="-20" type="curve" smooth="yes"/>
    </contour>
    <contour>
      <point x="162" y="753" type="line"/>
      <point x="258" y="589" type="line"/>
      <point x="356" y="589" type="line"/>
      <point x="296" y="753" type="line"/>
    </contour>
  </outline>
</glyph>
<glyph name="udieresis" format="1">
  <advance width="575"/>
  <unicode hex="00FC"/>
  <outline>
    <contour>
      <point x="291" y="-20"/>
      <point x="363" y="6"/>
      <point x="407" y="48" type="curve"/>
      <point x="444" y="0" type="line"/>
      <point x="512" y="0" type="line"/>
      <point x="512" y="485" type="line"/>
      <point x="382" y="485" type="line"/>
      <point x="382" y="134" type="line"/>
      <point x="350" y="111"/>
      <point x="309" y="91"/>
      <point x="274" y="91" type="curve" smooth="yes"/>
      <point x="218" y="91"/>
      <point x="188" y="125"/>
      <point x="188" y="186" type="curve" smooth="yes"/>
      <point x="188" y="485" type="line"/>
      <point x="57" y="485" type="line"/>
      <point x="57" y="180" type="line" smooth="yes"/>
      <point x="57" y="69"/>
      <point x="107" y="-20"/>
      <point x="239" y="-20" type="curve" smooth="yes"/>
    </contour>
    <contour>
      <point x="451" y="703"/>
      <point x="423" y="732"/>
      <point x="387" y="732" type="curve" smooth="yes"/>
      <point x="351" y="732"/>
      <point x="322" y="703"/>
      <point x="322" y="667" type="curve" smooth="yes"/>
      <point x="322" y="631"/>
      <point x="351" y="603"/>
      <point x="387" y="603" type="curve" smooth="yes"/>
      <point x="423" y="603"/>
      <point x="451" y="631"/>
      <point x="451" y="667" type="curve" smooth="yes"/>
    </contour>
    <contour>
      <point x="259" y="703"/>
      <point x="232" y="732"/>
      <point x="196" y="732" type="curve" smooth="yes"/>
      <point x="160" y="732"/>
      <point x="130" y="703"/>
      <point x="130" y="667" type="curve" smooth="yes"/>
      <point x="130" y="631"/>
      <point x="160" y="603"/>
      <point x="196" y="603" type="curve" smooth="yes"/>
      <point x="232" y="603"/>
      <point x="259" y="631"/>
      <point x="259" y="667" type="curve" smooth="yes"/>
    </contour>
  </outline>
</glyph>
<glyph name="yacute" format="1">
  <advance width="500"/>
  <unicode hex="00FD"/>
  <outline>
    <contour>
      <point x="156" y="-23" type="line"/>
      <point x="139" y="-69"/>
      <point x="76" y="-95"/>
      <point x="29" y="-115" type="curve"/>
      <point x="75" y="-222" type="line"/>
      <point x="161" y="-202"/>
      <point x="247" y="-143"/>
      <point x="278" y="-64" type="curve" smooth="yes"/>
      <point x="495" y="485" type="line"/>
      <point x="358" y="485" type="line"/>
      <point x="252" y="191" type="line"/>
      <point x="140" y="485" type="line"/>
      <point x="6" y="467" type="line"/>
      <point x="179" y="34" type="line"/>
    </contour>
    <contour>
      <point x="234" y="753" type="line"/>
      <point x="174" y="589" type="line"/>
      <point x="273" y="589" type="line"/>
      <point x="369" y="753" type="line"/>
    </contour>
  </outline>
</glyph>
<glyph name="Abreve" format="1">
  <advance width="651"/>
  <unicode hex="0102"/>
  <outline>
    <contour>
      <point x="381" y="680" type="line"/>
      <point x="271" y="680" type="line"/>
      <point x="6" y="0" type="line"/>
      <point x="136" y="0" type="line"/>
      <point x="196" y="160" type="line"/>
      <point x="454" y="160" type="line"/>
      <point x="515" y="0" type="line"/>
      <point x="645" y="18" type="line"/>
    </contour>
    <contour>
      <point x="323" y="502" type="line"/>
      <point x="414" y="265" type="line"/>
      <point x="234" y="265" type="line"/>
    </contour>
    <contour>
      <point x="424" y="741"/>
      <point x="470" y="818"/>
      <point x="470" y="903" type="curve"/>
      <point x="383" y="903" type="line"/>
      <point x="383" y="868"/>
      <point x="366" y="832"/>
      <point x="323" y="832" type="curve" smooth="yes"/>
      <point x="279" y="832"/>
      <point x="265" y="868"/>
      <point x="265" y="903" type="curve"/>
      <point x="176" y="903" type="line"/>
      <point x="176" y="818"/>
      <point x="222" y="741"/>
      <point x="323" y="739" type="curve"/>
    </contour>
  </outline>
</glyph>
<glyph name="Aogonek" format="1">
  <advance width="651"/>
  <unicode hex="0104"/>
  <outline>
    <contour>
      <point x="513" y="5" type="line"/>
      <point x="495" y="-15"/>
      <point x="475" y="-65"/>
      <point x="475" y="-94" type="curve" smooth="yes"/>
      <point x="475" y="-156"/>
      <point x="521" y="-207"/>
      <point x="591" y="-207" type="curve" smooth="yes"/>
      <point x="629" y="-207"/>
      <point x="661" y="-198"/>
      <point x="693" y="-174" type="curve"/>
      <point x="656" y="-94" type="line"/>
      <point x="641" y="-105"/>
      <point x="623" y="-111"/>
      <point x="615" y="-111" type="curve" smooth="yes"/>
      <point x="593" y="-111"/>
      <point x="584" y="-98"/>
      <point x="584" y="-83" type="curve" smooth="yes"/>
      <point x="584" y="-55"/>
      <point x="626" y="0"/>
      <point x="645" y="18" type="curve"/>
      <point x="381" y="680" type="line"/>
      <point x="271" y="680" type="line"/>
      <point x="6" y="0" type="line"/>
      <point x="136" y="0" type="line"/>
      <point x="196" y="160" type="line"/>
      <point x="454" y="160" type="line"/>
    </contour>
    <contour>
      <point x="323" y="502" type="line"/>
      <point x="414" y="265" type="line"/>
      <point x="234" y="265" type="line"/>
    </contour>
  </outline>
</glyph>
<glyph name="aogonek" format="1">
  <advance width="516"/>
  <unicode hex="0105"/>
  <outline>
    <contour>
      <point x="48" y="51"/>
      <point x="104" y="-12"/>
      <point x="223" y="-12" type="curve" smooth="yes"/>
      <point x="271" y="-12"/>
      <point x="323" y="13"/>
      <point x="359" y="41" type="curve"/>
      <point x="366" y="31" type="line"/>
      <point x="338" y="4"/>
      <point x="309" y="-41"/>
      <point x="309" y="-94" type="curve" smooth="yes"/>
      <point x="309" y="-156"/>
      <point x="356" y="-207"/>
      <point x="425" y="-207" type="curve" smooth="yes"/>
      <point x="463" y="-207"/>
      <point x="497" y="-198"/>
      <point x="528" y="-174" type="curve"/>
      <point x="491" y="-94" type="line"/>
      <point x="475" y="-105"/>
      <point x="458" y="-111"/>
      <point x="450" y="-111" type="curve" smooth="yes"/>
      <point x="427" y="-111"/>
      <point x="419" y="-98"/>
      <point x="419" y="-83" type="curve" smooth="yes"/>
      <point x="419" y="-53"/>
      <point x="439" y="-20"/>
      <point x="458" y="0" type="curve"/>
      <point x="458" y="319" type="line" smooth="yes"/>
      <point x="458" y="423"/>
      <point x="363" y="498"/>
      <point x="247" y="498" type="curve" smooth="yes"/>
      <point x="205" y="498"/>
      <point x="111" y="479"/>
      <point x="73" y="454" type="curve"/>
      <point x="108" y="346" type="line"/>
      <point x="144" y="363"/>
      <point x="204" y="378"/>
      <point x="249" y="378" type="curve" smooth="yes"/>
      <point x="297" y="378"/>
      <point x="325" y="349"/>
      <point x="327" y="300" type="curve"/>
      <point x="232" y="300" type="line" smooth="yes"/>
      <point x="122" y="300"/>
      <point x="48" y="245"/>
      <point x="48" y="145" type="curve" smooth="yes"/>
    </contour>
    <contour>
      <point x="184" y="91"/>
      <point x="159" y="117"/>
      <point x="159" y="145" type="curve" smooth="yes"/>
      <point x="159" y="180"/>
      <point x="184" y="213"/>
      <point x="230" y="213" type="curve" smooth="yes"/>
      <point x="328" y="213" type="line"/>
      <point x="328" y="139" type="line"/>
      <point x="294" y="107"/>
      <point x="257" y="91"/>
      <point x="221" y="91" type="curve" smooth="yes"/>
    </contour>
  </outline>
</glyph>
<glyph name="cacute" format="1">
  <advance width="486"/>
  <unicode hex="0107"/>
  <outline>
    <contour>
      <point x="176" y="325"/>
      <point x="219" y="387"/>
      <point x="293" y="387" type="curve" smooth="yes"/>
      <point x="339" y="387"/>
      <point x="370" y="375"/>
      <point x="417" y="354" type="curve"/>
      <point x="454" y="447" type="line"/>
      <point x="406" y="481"/>
      <point x="333" y="498"/>
      <point x="292" y="498" type="curve" smooth="yes"/>
      <point x="134" y="498"/>
      <point x="42" y="398"/>
      <point x="42" y="242" type="curve" smooth="yes"/>
      <point x="42" y="87"/>
      <point x="134" y="-12"/>
      <point x="292" y="-12" type="curve" smooth="yes"/>
      <point x="333" y="-12"/>
      <point x="409" y="3"/>
      <point x="454" y="38" type="curve"/>
      <point x="417" y="132" type="line"/>
      <point x="370" y="110"/>
      <point x="339" y="99"/>
      <point x="293" y="99" type="curve" smooth="yes"/>
      <point x="219" y="99"/>
      <point x="176" y="158"/>
      <point x="176" y="242" type="curve" smooth="yes"/>
    </contour>
    <contour>
      <point x="273" y="753" type="line"/>
      <point x="213" y="589" type="line"/>
      <point x="311" y="589" type="line"/>
      <point x="407" y="753" type="line"/>
    </contour>
  </outline>
</glyph>
<glyph name="dcroat" format="1">
  <advance width="592"/>
  <unicode hex="0111"/>
  <outline>
    <contour>
      <point x="577" y="545" type="line"/>
      <point x="566" y="640" type="line"/>
      <point x="524" y="640" type="line"/>
      <point x="524" y="706" type="line"/>
      <point x="393" y="695" type="line"/>
      <point x="393" y="640" type="line"/>
      <point x="304" y="640" type="line"/>
      <point x="316" y="545" type="line"/>
      <point x="393" y="545" type="line"/>
      <point x="393" y="468" type="line"/>
      <point x="353" y="491"/>
      <point x="304" y="504"/>
      <point x="268" y="504" type="curve" smooth="yes"/>
      <point x="127" y="504"/>
      <point x="42" y="394"/>
      <point x="42" y="246" type="curve" smooth="yes"/>
      <point x="42" y="99"/>
      <point x="120" y="-12"/>
      <point x="262" y="-12" type="curve" smooth="yes"/>
      <point x="310" y="-12"/>
      <point x="376" y="9"/>
      <point x="420" y="47" type="curve"/>
      <point x="456" y="0" type="line"/>
      <point x="524" y="0" type="line"/>
      <point x="524" y="545" type="line"/>
    </contour>
    <contour>
      <point x="176" y="314"/>
      <point x="206" y="393"/>
      <point x="297" y="393" type="curve" smooth="yes"/>
      <point x="328" y="393"/>
      <point x="363" y="378"/>
      <point x="393" y="358" type="curve"/>
      <point x="393" y="134" type="line"/>
      <point x="363" y="115"/>
      <point x="328" y="99"/>
      <point x="297" y="99" type="curve" smooth="yes"/>
      <point x="199" y="99"/>
      <point x="176" y="169"/>
      <point x="176" y="246" type="curve" smooth="yes"/>
    </contour>
  </outline>
</glyph>
<glyph name="Emacron" format="1">
  <advance width="580"/>
  <unicode hex="0112"/>
  <outline>
    <contour>
      <point x="560" y="0" type="line"/>
      <point x="539" y="101" type="line"/>
      <point x="213" y="101" type="line"/>
      <point x="213" y="292" type="line"/>
      <point x="416" y="292" type="line"/>
      <point x="395" y="395" type="line"/>
      <point x="213" y="395" type="line"/>
      <point x="213" y="578" type="line"/>
      <point x="510" y="578" type="line"/>
      <point x="490" y="680" type="line"/>
      <point x="84" y="680" type="line"/>
      <point x="84" y="0" type="line"/>
    </contour>
    <contour>
      <point x="159" y="866" type="line"/>
      <point x="159" y="763" type="line"/>
      <point x="421" y="763" type="line"/>
      <point x="421" y="866" type="line"/>
    </contour>
  </outline>
</glyph>
<glyph name="Edotaccent" format="1">
  <advance width="580"/>
  <unicode hex="0116"/>
  <outline>
    <contour>
      <point x="560" y="0" type="line"/>
      <point x="539" y="101" type="line"/>
      <point x="213" y="101" type="line"/>
      <point x="213" y="292" type="line"/>
      <point x="416" y="292" type="line"/>
      <point x="395" y="395" type="line"/>
      <point x="213" y="395" type="line"/>
      <point x="213" y="578" type="line"/>
      <point x="510" y="578" type="line"/>
      <point x="490" y="680" type="line"/>
      <point x="84" y="680" type="line"/>
      <point x="84" y="0" type="line"/>
    </contour>
    <contour>
      <point x="365" y="858"/>
      <point x="335" y="891"/>
      <point x="293" y="891" type="curve" smooth="yes"/>
      <point x="252" y="891"/>
      <point x="219" y="858"/>
      <point x="219" y="817" type="curve" smooth="yes"/>
      <point x="219" y="775"/>
      <point x="252" y="744"/>
      <point x="293" y="744" type="curve" smooth="yes"/>
      <point x="335" y="744"/>
      <point x="365" y="775"/>
      <point x="365" y="817" type="curve" smooth="yes"/>
    </contour>
  </outline>
</glyph>
<glyph name="edotaccent" format="1">
  <advance width="545"/>
  <unicode hex="0117"/>
  <outline>
    <contour>
      <point x="42" y="87"/>
      <point x="144" y="-12"/>
      <point x="313" y="-12" type="curve" smooth="yes"/>
      <point x="355" y="-12"/>
      <point x="429" y="3"/>
      <point x="475" y="38" type="curve"/>
      <point x="437" y="132" type="line"/>
      <point x="390" y="110"/>
      <point x="360" y="99"/>
      <point x="316" y="99" type="curve" smooth="yes"/>
      <point x="239" y="99"/>
      <point x="192" y="140"/>
      <point x="180" y="204" type="curve"/>
      <point x="507" y="204" type="line"/>
      <point x="507" y="244" type="line" smooth="yes"/>
      <point x="507" y="382"/>
      <point x="439" y="498"/>
      <point x="286" y="498" type="curve" smooth="yes"/>
      <point x="135" y="498"/>
      <point x="42" y="398"/>
      <point x="42" y="242" type="curve" smooth="yes"/>
    </contour>
    <contour>
      <point x="335" y="387"/>
      <point x="370" y="356"/>
      <point x="384" y="291" type="curve"/>
      <point x="181" y="291" type="line"/>
      <point x="192" y="354"/>
      <point x="230" y="387"/>
      <point x="283" y="387" type="curve" smooth="yes"/>
    </contour>
    <contour>
      <point x="356" y="708"/>
      <point x="325" y="741"/>
      <point x="285" y="741" type="curve" smooth="yes"/>
      <point x="244" y="741"/>
      <point x="210" y="708"/>
      <point x="210" y="667" type="curve" smooth="yes"/>
      <point x="210" y="625"/>
      <point x="244" y="594"/>
      <point x="285" y="594" type="curve" smooth="yes"/>
      <point x="325" y="594"/>
      <point x="356" y="625"/>
      <point x="356" y="667" type="curve" smooth="yes"/>
    </contour>
  </outline>
</glyph>
<glyph name="eogonek" format="1">
  <advance width="545"/>
  <unicode hex="0119"/>
  <outline>
    <contour>
      <point x="42" y="98"/>
      <point x="129" y="3"/>
      <point x="276" y="-10" type="curve"/>
      <point x="262" y="-34"/>
      <point x="251" y="-71"/>
      <point x="251" y="-94" type="curve" smooth="yes"/>
      <point x="251" y="-156"/>
      <point x="297" y="-207"/>
      <point x="366" y="-207" type="curve" smooth="yes"/>
      <point x="404" y="-207"/>
      <point x="436" y="-198"/>
      <point x="468" y="-174" type="curve"/>
      <point x="431" y="-94" type="line"/>
      <point x="416" y="-105"/>
      <point x="399" y="-111"/>
      <point x="390" y="-111" type="curve" smooth="yes"/>
      <point x="367" y="-111"/>
      <point x="360" y="-98"/>
      <point x="360" y="-83" type="curve" smooth="yes"/>
      <point x="360" y="-56"/>
      <point x="381" y="-17"/>
      <point x="400" y="2" type="curve"/>
      <point x="427" y="10"/>
      <point x="454" y="22"/>
      <point x="475" y="38" type="curve"/>
      <point x="437" y="132" type="line"/>
      <point x="390" y="110"/>
      <point x="360" y="99"/>
      <point x="316" y="99" type="curve" smooth="yes"/>
      <point x="239" y="99"/>
      <point x="192" y="140"/>
      <point x="180" y="204" type="curve"/>
      <point x="507" y="204" type="line"/>
      <point x="507" y="244" type="line" smooth="yes"/>
      <point x="507" y="382"/>
      <point x="439" y="498"/>
      <point x="286" y="498" type="curve" smooth="yes"/>
      <point x="135" y="498"/>
      <point x="42" y="398"/>
      <point x="42" y="242" type="curve" smooth="yes"/>
    </contour>
    <contour>
      <point x="335" y="387"/>
      <point x="370" y="356"/>
      <point x="384" y="291" type="curve"/>
      <point x="181" y="291" type="line"/>
      <point x="192" y="354"/>
      <point x="230" y="387"/>
      <point x="283" y="387" type="curve" smooth="yes"/>
    </contour>
  </outline>
</glyph>
<glyph name="gbreve" format="1">
  <advance width="592"/>
  <unicode hex="011F"/>
  <outline>
    <contour>
      <point x="524" y="485" type="line"/>
      <point x="456" y="485" type="line"/>
      <point x="426" y="445" type="line"/>
      <point x="383" y="482"/>
      <point x="316" y="504"/>
      <point x="268" y="504" type="curve" smooth="yes"/>
      <point x="127" y="504"/>
      <point x="42" y="394"/>
      <point x="42" y="246" type="curve" smooth="yes"/>
      <point x="42" y="99"/>
      <point x="120" y="-12"/>
      <point x="262" y="-12" type="curve" smooth="yes"/>
      <point x="302" y="-12"/>
      <point x="352" y="3"/>
      <point x="393" y="27" type="curve"/>
      <point x="393" y="2" type="line" smooth="yes"/>
      <point x="393" y="-62"/>
      <point x="351" y="-102"/>
      <point x="273" y="-102" type="curve" smooth="yes"/>
      <point x="223" y="-102"/>
      <point x="187" y="-88"/>
      <point x="127" y="-59" type="curve"/>
      <point x="88" y="-151" type="line"/>
      <point x="140" y="-186"/>
      <point x="234" y="-206"/>
      <point x="276" y="-206" type="curve" smooth="yes"/>
      <point x="449" y="-206"/>
      <point x="524" y="-117"/>
      <point x="524" y="1" type="curve" smooth="yes"/>
    </contour>
    <contour>
      <point x="176" y="314"/>
      <point x="206" y="393"/>
      <point x="297" y="393" type="curve" smooth="yes"/>
      <point x="328" y="393"/>
      <point x="363" y="378"/>
      <point x="393" y="358" type="curve"/>
      <point x="393" y="134" type="line"/>
      <point x="363" y="115"/>
      <point x="328" y="99"/>
      <point x="297" y="99" type="curve" smooth="yes"/>
      <point x="199" y="99"/>
      <point x="176" y="169"/>
      <point x="176" y="246" type="curve" smooth="yes"/>
    </contour>
    <contour>
      <point x="394" y="591"/>
      <point x="440" y="668"/>
      <point x="440" y="753" type="curve"/>
      <point x="351" y="753" type="line"/>
      <point x="351" y="718"/>
      <point x="335" y="682"/>
      <point x="292" y="682" type="curve" smooth="yes"/>
      <point x="248" y="682"/>
      <point x="234" y="718"/>
      <point x="234" y="753" type="curve"/>
      <point x="145" y="753" type="line"/>
      <point x="145" y="668"/>
      <point x="191" y="591"/>
      <point x="292" y="589" type="curve"/>
    </contour>
  </outline>
</glyph>
<glyph name="gcedilla" format="1">
  <advance width="592"/>
  <unicode hex="0123"/>
  <outline>
    <contour>
      <point x="524" y="485" type="line"/>
      <point x="456" y="485" type="line"/>
      <point x="426" y="445" type="line"/>
      <point x="383" y="482"/>
      <point x="316" y="504"/>
      <point x="268" y="504" type="curve" smooth="yes"/>
      <point x="127" y="504"/>
      <point x="42" y="394"/>
      <point x="42" y="246" type="curve" smooth="yes"/>
      <point x="42" y="99"/>
      <point x="120" y="-12"/>
      <point x="262" y="-12" type="curve" smooth="yes"/>
      <point x="302" y="-12"/>
      <point x="352" y="3"/>
      <point x="393" y="27" type="curve"/>
      <point x="393" y="2" type="line" smooth="yes"/>
      <point x="393" y="-62"/>
      <point x="351" y="-102"/>
      <point x="273" y="-102" type="curve" smooth="yes"/>
      <point x="223" y="-102"/>
      <point x="187" y="-88"/>
      <point x="127" y="-59" type="curve"/>
      <point x="88" y="-151" type="line"/>
      <point x="140" y="-186"/>
      <point x="234" y="-206"/>
      <point x="276" y="-206" type="curve" smooth="yes"/>
      <point x="449" y="-206"/>
      <point x="524" y="-117"/>
      <point x="524" y="1" type="curve" smooth="yes"/>
    </contour>
    <contour>
      <point x="176" y="314"/>
      <point x="206" y="393"/>
      <point x="297" y="393" type="curve" smooth="yes"/>
      <point x="328" y="393"/>
      <point x="363" y="378"/>
      <point x="393" y="358" type="curve"/>
      <point x="393" y="134" type="line"/>
      <point x="363" y="115"/>
      <point x="328" y="99"/>
      <point x="297" y="99" type="curve" smooth="yes"/>
      <point x="199" y="99"/>
      <point x="176" y="169"/>
      <point x="176" y="246" type="curve" smooth="yes"/>
    </contour>
    <contour>
      <point x="195" y="577"/>
      <point x="229" y="540"/>
      <point x="270" y="540" type="curve" smooth="yes"/>
      <point x="311" y="540"/>
      <point x="344" y="579"/>
      <point x="344" y="615" type="curve" smooth="yes"/>
      <point x="344" y="651"/>
      <point x="310" y="687"/>
      <point x="288" y="687" type="curve"/>
      <point x="296" y="715"/>
      <point x="322" y="736"/>
      <point x="339" y="742" type="curve"/>
      <point x="311" y="804" type="line"/>
      <point x="248" y="771"/>
      <point x="195" y="704"/>
      <point x="195" y="631" type="curve" smooth="yes"/>
    </contour>
  </outline>
</glyph>
<glyph name="Imacron" format="1">
  <advance width="297"/>
  <unicode hex="012A"/>
  <outline>
    <contour>
      <point x="213" y="680" type="line"/>
      <point x="84" y="680" type="line"/>
      <point x="84" y="0" type="line"/>
      <point x="213" y="0" type="line"/>
    </contour>
    <contour>
      <point x="14" y="866" type="line"/>
      <point x="14" y="763" type="line"/>
      <point x="276" y="763" type="line"/>
      <point x="276" y="866" type="line"/>
    </contour>
  </outline>
</glyph>
<glyph name="iogonek" format="1">
  <advance width="256"/>
  <unicode hex="012F"/>
  <outline>
    <contour>
      <point x="192" y="485" type="line"/>
      <point x="62" y="485" type="line"/>
      <point x="62" y="0" type="line"/>
      <point x="71" y="0" type="line"/>
      <point x="54" y="-22"/>
      <point x="38" y="-67"/>
      <point x="38" y="-94" type="curve" smooth="yes"/>
      <point x="38" y="-156"/>
      <point x="85" y="-207"/>
      <point x="154" y="-207" type="curve" smooth="yes"/>
      <point x="192" y="-207"/>
      <point x="225" y="-198"/>
      <point x="257" y="-174" type="curve"/>
      <point x="219" y="-94" type="line"/>
      <point x="204" y="-105"/>
      <point x="187" y="-111"/>
      <point x="179" y="-111" type="curve" smooth="yes"/>
      <point x="155" y="-111"/>
      <point x="148" y="-98"/>
      <point x="148" y="-83" type="curve" smooth="yes"/>
      <point x="148" y="-57"/>
      <point x="169" y="-20"/>
      <point x="187" y="0" type="curve"/>
      <point x="192" y="0" type="line"/>
    </contour>
    <contour>
      <point x="201" y="668"/>
      <point x="169" y="700"/>
      <point x="127" y="700" type="curve" smooth="yes"/>
      <point x="87" y="700"/>
      <point x="55" y="668"/>
      <point x="55" y="627" type="curve" smooth="yes"/>
      <point x="55" y="585"/>
      <point x="87" y="554"/>
      <point x="127" y="554" type="curve" smooth="yes"/>
      <point x="169" y="554"/>
      <point x="201" y="585"/>
      <point x="201" y="627" type="curve" smooth="yes"/>
    </contour>
  </outline>
</glyph>
<glyph name="kcedilla" format="1">
  <advance width="527"/>
  <unicode hex="0137"/>
  <outline>
    <contour>
      <point x="198" y="706" type="line"/>
      <point x="69" y="695" type="line"/>
      <point x="69" y="0" type="line"/>
      <point x="198" y="0" type="line"/>
      <point x="198" y="159" type="line"/>
      <point x="250" y="205" type="line"/>
      <point x="372" y="0" type="line"/>
      <point x="521" y="0" type="line"/>
      <point x="343" y="288" type="line"/>
      <point x="479" y="407" type="line"/>
      <point x="406" y="499" type="line"/>
      <point x="198" y="308" type="line"/>
    </contour>
    <contour>
      <point x="348" y="-57"/>
      <point x="314" y="-21"/>
      <point x="272" y="-21" type="curve" smooth="yes"/>
      <point x="231" y="-21"/>
      <point x="199" y="-59"/>
      <point x="199" y="-95" type="curve" smooth="yes"/>
      <point x="199" y="-132"/>
      <point x="232" y="-167"/>
      <point x="255" y="-167" type="curve"/>
      <point x="246" y="-195"/>
      <point x="221" y="-216"/>
      <point x="203" y="-223" type="curve"/>
      <point x="231" y="-284" type="line"/>
      <point x="294" y="-253"/>
      <point x="348" y="-186"/>
      <point x="348" y="-111" type="curve" smooth="yes"/>
    </contour>
  </outline>
</glyph>
<glyph name="Lacute" format="1">
  <advance width="543"/>
  <unicode hex="0139"/>
  <outline>
    <contour>
      <point x="533" y="0" type="line"/>
      <point x="513" y="101" type="line"/>
      <point x="213" y="101" type="line"/>
      <point x="213" y="680" type="line"/>
      <point x="84" y="680" type="line"/>
      <point x="84" y="0" type="line"/>
    </contour>
    <contour>
      <point x="158" y="903" type="line"/>
      <point x="98" y="739" type="line"/>
      <point x="197" y="739" type="line"/>
      <point x="292" y="903" type="line"/>
    </contour>
  </outline>
</glyph>
<glyph name="Lcedilla" format="1">
  <advance width="543"/>
  <unicode hex="013B"/>
  <outline>
    <contour>
      <point x="384" y="-57"/>
      <point x="350" y="-21"/>
      <point x="308" y="-21" type="curve" smooth="yes"/>
      <point x="267" y="-21"/>
      <point x="235" y="-59"/>
      <point x="235" y="-95" type="curve" smooth="yes"/>
      <point x="235" y="-132"/>
      <point x="267" y="-167"/>
      <point x="291" y="-167" type="curve"/>
      <point x="282" y="-195"/>
      <point x="257" y="-216"/>
      <point x="239" y="-223" type="curve"/>
      <point x="267" y="-284" type="line"/>
      <point x="330" y="-253"/>
      <point x="384" y="-186"/>
      <point x="384" y="-111" type="curve" smooth="yes"/>
    </contour>
    <contour>
      <point x="533" y="0" type="line"/>
      <point x="513" y="101" type="line"/>
      <point x="213" y="101" type="line"/>
      <point x="213" y="680" type="line"/>
      <point x="84" y="680" type="line"/>
      <point x="84" y="0" type="line"/>
    </contour>
  </outline>
</glyph>
<glyph name="lcedilla" format="1">
  <advance width="266"/>
  <unicode hex="013C"/>
  <outline>
    <contour>
      <point x="198" y="706" type="line"/>
      <point x="69" y="695" type="line"/>
      <point x="69" y="0" type="line"/>
      <point x="198" y="0" type="line"/>
    </contour>
    <contour>
      <point x="213" y="-57"/>
      <point x="180" y="-21"/>
      <point x="139" y="-21" type="curve" smooth="yes"/>
      <point x="97" y="-21"/>
      <point x="65" y="-59"/>
      <point x="65" y="-95" type="curve" smooth="yes"/>
      <point x="65" y="-132"/>
      <point x="97" y="-167"/>
      <point x="121" y="-167" type="curve"/>
      <point x="112" y="-195"/>
      <point x="87" y="-216"/>
      <point x="69" y="-223" type="curve"/>
      <point x="97" y="-284" type="line"/>
      <point x="160" y="-253"/>
      <point x="213" y="-186"/>
      <point x="213" y="-111" type="curve" smooth="yes"/>
    </contour>
  </outline>
</glyph>
<glyph name="nacute" format="1">
  <advance width="580"/>
  <unicode hex="0144"/>
  <outline>
    <contour>
      <point x="288" y="504"/>
      <point x="213" y="477"/>
      <point x="169" y="433" type="curve"/>
      <point x="130" y="485" type="line"/>
      <point x="62" y="485" type="line"/>
      <point x="62" y="0" type="line"/>
      <point x="192" y="0" type="line"/>
      <point x="192" y="345" type="line"/>
      <point x="225" y="371"/>
      <point x="269" y="393"/>
      <point x="306" y="393" type="curve" smooth="yes"/>
      <point x="362" y="393"/>
      <point x="392" y="360"/>
      <point x="392" y="298" type="curve" smooth="yes"/>
      <point x="392" y="0" type="line"/>
      <point x="522" y="0" type="line"/>
      <point x="522" y="304" type="line" smooth="yes"/>
      <point x="522" y="417"/>
      <point x="472" y="504"/>
      <point x="340" y="504" type="curve" smooth="yes"/>
    </contour>
    <contour>
      <point x="272" y="753" type="line"/>
      <point x="211" y="589" type="line"/>
      <point x="309" y="589" type="line"/>
      <point x="405" y="753" type="line"/>
    </contour>
  </outline>
</glyph>
<glyph name="Ncedilla" format="1">
  <advance width="742"/>
  <unicode hex="0145"/>
  <outline>
    <contour>
      <point x="451" y="-57"/>
      <point x="419" y="-21"/>
      <point x="376" y="-21" type="curve" smooth="yes"/>
      <point x="335" y="-21"/>
      <point x="304" y="-59"/>
      <point x="304" y="-95" type="curve" smooth="yes"/>
      <point x="304" y="-132"/>
      <point x="336" y="-167"/>
      <point x="359" y="-167" type="curve"/>
      <point x="350" y="-195"/>
      <point x="324" y="-216"/>
      <point x="307" y="-223" type="curve"/>
      <point x="335" y="-284" type="line"/>
      <point x="398" y="-253"/>
      <point x="451" y="-186"/>
      <point x="451" y="-111" type="curve" smooth="yes"/>
    </contour>
    <contour>
      <point x="658" y="680" type="line"/>
      <point x="528" y="680" type="line"/>
      <point x="528" y="226" type="line"/>
      <point x="213" y="680" type="line"/>
      <point x="84" y="680" type="line"/>
      <point x="84" y="0" type="line"/>
      <point x="213" y="0" type="line"/>
      <point x="213" y="455" type="line"/>
      <point x="528" y="0" type="line"/>
      <point x="658" y="0" type="line"/>
    </contour>
  </outline>
</glyph>
<glyph name="omacron" format="1">
  <advance width="590"/>
  <unicode hex="014D"/>
  <outline>
    <contour>
      <point x="42" y="87"/>
      <point x="132" y="-12"/>
      <point x="286" y="-12" type="curve" smooth="yes"/>
      <point x="444" y="-12"/>
      <point x="548" y="84"/>
      <point x="548" y="239" type="curve" smooth="yes"/>
      <point x="548" y="395"/>
      <point x="456" y="498"/>
      <point x="294" y="498" type="curve" smooth="yes"/>
      <point x="137" y="498"/>
      <point x="42" y="400"/>
      <point x="42" y="244" type="curve" smooth="yes"/>
    </contour>
    <contour>
      <point x="372" y="387"/>
      <point x="414" y="331"/>
      <point x="414" y="239" type="curve" smooth="yes"/>
      <point x="414" y="141"/>
      <point x="363" y="99"/>
      <point x="288" y="99" type="curve" smooth="yes"/>
      <point x="212" y="99"/>
      <point x="176" y="148"/>
      <point x="176" y="245" type="curve" smooth="yes"/>
      <point x="176" y="341"/>
      <point x="221" y="387"/>
      <point x="297" y="387" type="curve" smooth="yes"/>
    </contour>
    <contour>
      <point x="159" y="716" type="line"/>
      <point x="159" y="613" type="line"/>
      <point x="421" y="613" type="line"/>
      <point x="421" y="716" type="line"/>
    </contour>
  </outline>
</glyph>
<glyph name="OE" format="1">
  <advance width="1010"/>
  <unicode hex="0152"/>
  <outline>
    <contour>
      <point x="988" y="0" type="line"/>
      <point x="969" y="101" type="line"/>
      <point x="643" y="101" type="line"/>
      <point x="643" y="292" type="line"/>
      <point x="846" y="292" type="line"/>
      <point x="825" y="395" type="line"/>
      <point x="643" y="395" type="line"/>
      <point x="643" y="578" type="line"/>
      <point x="940" y="578" type="line"/>
      <point x="919" y="680" type="line"/>
      <point x="514" y="680" type="line"/>
      <point x="514" y="668" type="line"/>
      <point x="463" y="686"/>
      <point x="412" y="694"/>
      <point x="381" y="694" type="curve" smooth="yes"/>
      <point x="181" y="694"/>
      <point x="57" y="547"/>
      <point x="57" y="337" type="curve" smooth="yes"/>
      <point x="57" y="140"/>
      <point x="162" y="-14"/>
      <point x="375" y="-14" type="curve" smooth="yes"/>
      <point x="416" y="-14"/>
      <point x="468" y="-4"/>
      <point x="514" y="10" type="curve"/>
      <point x="514" y="0" type="line"/>
    </contour>
    <contour>
      <point x="435" y="585"/>
      <point x="455" y="575"/>
      <point x="514" y="558" type="curve"/>
      <point x="514" y="126" type="line"/>
      <point x="470" y="108"/>
      <point x="427" y="95"/>
      <point x="368" y="95" type="curve" smooth="yes"/>
      <point x="253" y="95"/>
      <point x="192" y="206"/>
      <point x="192" y="338" type="curve" smooth="yes"/>
      <point x="192" y="492"/>
      <point x="268" y="585"/>
      <point x="377" y="585" type="curve" smooth="yes"/>
    </contour>
  </outline>
</glyph>
<glyph name="oe" format="1">
  <advance width="883"/>
  <unicode hex="0153"/>
  <outline>
    <contour>
      <point x="42" y="87"/>
      <point x="144" y="-12"/>
      <point x="313" y="-12" type="curve" smooth="yes"/>
      <point x="355" y="-12"/>
      <point x="429" y="3"/>
      <point x="475" y="38" type="curve"/>
      <point x="520" y="6"/>
      <point x="580" y="-12"/>
      <point x="652" y="-12" type="curve" smooth="yes"/>
      <point x="694" y="-12"/>
      <point x="769" y="3"/>
      <point x="815" y="38" type="curve"/>
      <point x="776" y="132" type="line"/>
      <point x="730" y="110"/>
      <point x="701" y="99"/>
      <point x="654" y="99" type="curve" smooth="yes"/>
      <point x="577" y="99"/>
      <point x="531" y="140"/>
      <point x="519" y="204" type="curve"/>
      <point x="847" y="204" type="line"/>
      <point x="847" y="244" type="line" smooth="yes"/>
      <point x="847" y="382"/>
      <point x="778" y="498"/>
      <point x="624" y="498" type="curve" smooth="yes"/>
      <point x="563" y="498"/>
      <point x="511" y="481"/>
      <point x="470" y="451" type="curve"/>
      <point x="424" y="484"/>
      <point x="353" y="497"/>
      <point x="313" y="497" type="curve" smooth="yes"/>
      <point x="144" y="497"/>
      <point x="42" y="398"/>
      <point x="42" y="242" type="curve" smooth="yes"/>
    </contour>
    <contour>
      <point x="381" y="195"/>
      <point x="389" y="154"/>
      <point x="407" y="119" type="curve"/>
      <point x="376" y="105"/>
      <point x="351" y="99"/>
      <point x="316" y="99" type="curve" smooth="yes"/>
      <point x="223" y="99"/>
      <point x="176" y="158"/>
      <point x="176" y="242" type="curve" smooth="yes"/>
      <point x="176" y="325"/>
      <point x="223" y="387"/>
      <point x="316" y="387" type="curve" smooth="yes"/>
      <point x="350" y="387"/>
      <point x="375" y="379"/>
      <point x="405" y="367" type="curve"/>
      <point x="389" y="331"/>
      <point x="381" y="290"/>
      <point x="381" y="242" type="curve" smooth="yes"/>
    </contour>
    <contour>
      <point x="673" y="387"/>
      <point x="710" y="356"/>
      <point x="722" y="291" type="curve"/>
      <point x="520" y="291" type="line"/>
      <point x="531" y="354"/>
      <point x="568" y="387"/>
      <point x="623" y="387" type="curve" smooth="yes"/>
    </contour>
  </outline>
</glyph>
<glyph name="Rcedilla" format="1">
  <advance width="627"/>
  <unicode hex="0156"/>
  <outline>
    <contour>
      <point x="412" y="-57"/>
      <point x="378" y="-21"/>
      <point x="337" y="-21" type="curve" smooth="yes"/>
      <point x="295" y="-21"/>
      <point x="264" y="-59"/>
      <point x="264" y="-95" type="curve" smooth="yes"/>
      <point x="264" y="-132"/>
      <point x="296" y="-167"/>
      <point x="321" y="-167" type="curve"/>
      <point x="310" y="-195"/>
      <point x="286" y="-216"/>
      <point x="267" y="-223" type="curve"/>
      <point x="295" y="-284" type="line"/>
      <point x="359" y="-253"/>
      <point x="412" y="-186"/>
      <point x="412" y="-111" type="curve" smooth="yes"/>
    </contour>
    <contour>
      <point x="479" y="0" type="line"/>
      <point x="617" y="0" type="line"/>
      <point x="450" y="292" type="line"/>
      <point x="519" y="325"/>
      <point x="566" y="386"/>
      <point x="566" y="471" type="curve" smooth="yes"/>
      <point x="566" y="615"/>
      <point x="446" y="680"/>
      <point x="297" y="680" type="curve" smooth="yes"/>
      <point x="84" y="680" type="line"/>
      <point x="84" y="0" type="line"/>
      <point x="213" y="0" type="line"/>
      <point x="213" y="258" type="line"/>
      <point x="288" y="258" type="line" smooth="yes"/>
      <point x="304" y="258"/>
      <point x="320" y="258"/>
      <point x="335" y="260" type="curve"/>
    </contour>
    <contour>
      <point x="293" y="572" type="line" smooth="yes"/>
      <point x="379" y="572"/>
      <point x="429" y="542"/>
      <point x="429" y="465" type="curve" smooth="yes"/>
      <point x="429" y="393"/>
      <point x="373" y="364"/>
      <point x="295" y="364" type="curve" smooth="yes"/>
      <point x="213" y="364" type="line"/>
      <point x="213" y="572" type="line"/>
    </contour>
  </outline>
</glyph>
<glyph name="Rcaron" format="1">
  <advance width="627"/>
  <unicode hex="0158"/>
  <outline>
    <contour>
      <point x="479" y="0" type="line"/>
      <point x="617" y="0" type="line"/>
      <point x="450" y="292" type="line"/>
      <point x="519" y="325"/>
      <point x="566" y="386"/>
      <point x="566" y="471" type="curve" smooth="yes"/>
      <point x="566" y="615"/>
      <point x="446" y="680"/>
      <point x="297" y="680" type="curve" smooth="yes"/>
      <point x="84" y="680" type="line"/>
      <point x="84" y="0" type="line"/>
      <point x="213" y="0" type="line"/>
      <point x="213" y="258" type="line"/>
      <point x="288" y="258" type="line" smooth="yes"/>
      <point x="304" y="258"/>
      <point x="320" y="258"/>
      <point x="335" y="260" type="curve"/>
    </contour>
    <contour>
      <point x="293" y="572" type="line" smooth="yes"/>
      <point x="379" y="572"/>
      <point x="429" y="542"/>
      <point x="429" y="465" type="curve" smooth="yes"/>
      <point x="429" y="393"/>
      <point x="373" y="364"/>
      <point x="295" y="364" type="curve" smooth="yes"/>
      <point x="213" y="364" type="line"/>
      <point x="213" y="572" type="line"/>
    </contour>
    <contour>
      <point x="108" y="903" type="line"/>
      <point x="260" y="739" type="line"/>
      <point x="331" y="739" type="line"/>
      <point x="483" y="903" type="line"/>
      <point x="364" y="903" type="line"/>
      <point x="298" y="838" type="line"/>
      <point x="231" y="903" type="line"/>
    </contour>
  </outline>
</glyph>
<glyph name="Scedilla" format="1">
  <advance width="552"/>
  <unicode hex="015E"/>
  <outline>
    <contour>
      <point x="196" y="102"/>
      <point x="124" y="129"/>
      <point x="83" y="150" type="curve"/>
      <point x="54" y="45" type="line"/>
      <point x="77" y="24"/>
      <point x="147" y="2"/>
      <point x="205" y="-8" type="curve"/>
      <point x="180" y="-75" type="line"/>
      <point x="232" y="-81"/>
      <point x="266" y="-100"/>
      <point x="266" y="-120" type="curve" smooth="yes"/>
      <point x="266" y="-134"/>
      <point x="249" y="-137"/>
      <point x="233" y="-137" type="curve" smooth="yes"/>
      <point x="218" y="-137"/>
      <point x="186" y="-126"/>
      <point x="167" y="-117" type="curve"/>
      <point x="138" y="-193" type="line"/>
      <point x="160" y="-210"/>
      <point x="206" y="-221"/>
      <point x="233" y="-221" type="curve" smooth="yes"/>
      <point x="297" y="-221"/>
      <point x="358" y="-189"/>
      <point x="358" y="-118" type="curve" smooth="yes"/>
      <point x="358" y="-83"/>
      <point x="329" y="-45"/>
      <point x="290" y="-29" type="curve"/>
      <point x="297" y="-11" type="line"/>
      <point x="435" y="1"/>
      <point x="509" y="75"/>
      <point x="509" y="174" type="curve"/>
      <point x="509" y="291"/>
      <point x="401" y="349"/>
      <point x="304" y="399" type="curve"/>
      <point x="297" y="403" type="line"/>
      <point x="230" y="437"/>
      <point x="176" y="465"/>
      <point x="176" y="514" type="curve" smooth="yes"/>
      <point x="176" y="561"/>
      <point x="220" y="583"/>
      <point x="278" y="583" type="curve" smooth="yes"/>
      <point x="337" y="583"/>
      <point x="384" y="561"/>
      <point x="425" y="541" type="curve"/>
      <point x="468" y="645" type="line"/>
      <point x="416" y="671"/>
      <point x="344" y="696"/>
      <point x="276" y="696" type="curve" smooth="yes"/>
      <point x="126" y="696"/>
      <point x="42" y="617"/>
      <point x="42" y="514" type="curve"/>
      <point x="42" y="394"/>
      <point x="148" y="337"/>
      <point x="245" y="288" type="curve" smooth="yes"/>
      <point x="310" y="255"/>
      <point x="375" y="222"/>
      <point x="375" y="176" type="curve" smooth="yes"/>
      <point x="375" y="128"/>
      <point x="335" y="102"/>
      <point x="253" y="102" type="curve" smooth="yes"/>
    </contour>
  </outline>
</glyph>
<glyph name="scedilla" format="1">
  <advance width="432"/>
  <unicode hex="015F"/>
  <outline>
    <contour>
      <point x="263" y="387"/>
      <point x="300" y="375"/>
      <point x="347" y="354" type="curve"/>
      <point x="386" y="447" type="line"/>
      <point x="337" y="481"/>
      <point x="261" y="498"/>
      <point x="220" y="498" type="curve" smooth="yes"/>
      <point x="103" y="498"/>
      <point x="31" y="443"/>
      <point x="31" y="350" type="curve" smooth="yes"/>
      <point x="31" y="269"/>
      <point x="114" y="225"/>
      <point x="192" y="200" type="curve" smooth="yes"/>
      <point x="247" y="183"/>
      <point x="271" y="162"/>
      <point x="271" y="135" type="curve" smooth="yes"/>
      <point x="271" y="114"/>
      <point x="245" y="99"/>
      <point x="197" y="99" type="curve" smooth="yes"/>
      <point x="161" y="99"/>
      <point x="117" y="110"/>
      <point x="70" y="132" type="curve"/>
      <point x="31" y="38" type="line"/>
      <point x="62" y="14"/>
      <point x="110" y="0"/>
      <point x="151" y="-7" type="curve"/>
      <point x="124" y="-75" type="line"/>
      <point x="177" y="-81"/>
      <point x="212" y="-100"/>
      <point x="212" y="-120" type="curve" smooth="yes"/>
      <point x="212" y="-134"/>
      <point x="194" y="-137"/>
      <point x="179" y="-137" type="curve" smooth="yes"/>
      <point x="162" y="-137"/>
      <point x="131" y="-126"/>
      <point x="113" y="-117" type="curve"/>
      <point x="83" y="-193" type="line"/>
      <point x="105" y="-210"/>
      <point x="152" y="-221"/>
      <point x="179" y="-221" type="curve" smooth="yes"/>
      <point x="243" y="-221"/>
      <point x="304" y="-189"/>
      <point x="304" y="-118" type="curve" smooth="yes"/>
      <point x="304" y="-83"/>
      <point x="274" y="-45"/>
      <point x="235" y="-29" type="curve"/>
      <point x="243" y="-10" type="line"/>
      <point x="347" y="1"/>
      <point x="401" y="55"/>
      <point x="401" y="140" type="curve" smooth="yes"/>
      <point x="401" y="225"/>
      <point x="318" y="275"/>
      <point x="236" y="304" type="curve" smooth="yes"/>
      <point x="186" y="322"/>
      <point x="166" y="335"/>
      <point x="166" y="351" type="curve" smooth="yes"/>
      <point x="166" y="374"/>
      <point x="185" y="387"/>
      <point x="218" y="387" type="curve" smooth="yes"/>
    </contour>
  </outline>
</glyph>
<glyph name="Umacron" format="1">
  <advance width="713"/>
  <unicode hex="016A"/>
  <outline>
    <contour>
      <point x="225" y="866" type="line"/>
      <point x="225" y="763" type="line"/>
      <point x="487" y="763" type="line"/>
      <point x="487" y="866" type="line"/>
    </contour>
    <contour>
      <point x="209" y="680" type="line"/>
      <point x="78" y="680" type="line"/>
      <point x="78" y="247" type="line" smooth="yes"/>
      <point x="78" y="100"/>
      <point x="184" y="-11"/>
      <point x="354" y="-11" type="curve" smooth="yes"/>
      <point x="527" y="-11"/>
      <point x="634" y="99"/>
      <point x="634" y="247" type="curve" smooth="yes"/>
      <point x="634" y="680" type="line"/>
      <point x="503" y="680" type="line"/>
      <point x="503" y="257" type="line" smooth="yes"/>
      <point x="503" y="147"/>
      <point x="445" y="95"/>
      <point x="356" y="95" type="curve" smooth="yes"/>
      <point x="269" y="95"/>
      <point x="209" y="143"/>
      <point x="209" y="257" type="curve" smooth="yes"/>
    </contour>
  </outline>
</glyph>
<glyph name="uring" format="1">
  <advance width="575"/>
  <unicode hex="016F"/>
  <outline>
    <contour>
      <point x="291" y="-20"/>
      <point x="363" y="6"/>
      <point x="407" y="48" type="curve"/>
      <point x="444" y="0" type="line"/>
      <point x="512" y="0" type="line"/>
      <point x="512" y="485" type="line"/>
      <point x="382" y="485" type="line"/>
      <point x="382" y="134" type="line"/>
      <point x="350" y="111"/>
      <point x="309" y="91"/>
      <point x="274" y="91" type="curve" smooth="yes"/>
      <point x="218" y="91"/>
      <point x="188" y="125"/>
      <point x="188" y="186" type="curve" smooth="yes"/>
      <point x="188" y="485" type="line"/>
      <point x="57" y="485" type="line"/>
      <point x="57" y="180" type="line" smooth="yes"/>
      <point x="57" y="69"/>
      <point x="107" y="-20"/>
      <point x="239" y="-20" type="curve" smooth="yes"/>
    </contour>
    <contour>
      <point x="329" y="671"/>
      <point x="312" y="652"/>
      <point x="291" y="652" type="curve" smooth="yes"/>
      <point x="269" y="652"/>
      <point x="251" y="671"/>
      <point x="251" y="692" type="curve" smooth="yes"/>
      <point x="251" y="714"/>
      <point x="269" y="731"/>
      <point x="291" y="731" type="curve" smooth="yes"/>
      <point x="312" y="731"/>
      <point x="329" y="714"/>
      <point x="329" y="692" type="curve" smooth="yes"/>
    </contour>
    <contour>
      <point x="398" y="749"/>
      <point x="348" y="793"/>
      <point x="291" y="793" type="curve" smooth="yes"/>
      <point x="232" y="793"/>
      <point x="183" y="749"/>
      <point x="183" y="692" type="curve" smooth="yes"/>
      <point x="183" y="634"/>
      <point x="232" y="594"/>
      <point x="291" y="594" type="curve" smooth="yes"/>
      <point x="348" y="594"/>
      <point x="398" y="634"/>
      <point x="398" y="692" type="curve" smooth="yes"/>
    </contour>
  </outline>
</glyph>
<glyph name="Uhungarumlaut" format="1">
  <advance width="713"/>
  <unicode hex="0170"/>
  <outline>
    <contour>
      <point x="266" y="903" type="line"/>
      <point x="206" y="739" type="line"/>
      <point x="294" y="739" type="line"/>
      <point x="389" y="903" type="line"/>
    </contour>
    <contour>
      <point x="453" y="903" type="line"/>
      <point x="393" y="739" type="line"/>
      <point x="481" y="739" type="line"/>
      <point x="577" y="903" type="line"/>
    </contour>
    <contour>
      <point x="209" y="680" type="line"/>
      <point x="78" y="680" type="line"/>
      <point x="78" y="247" type="line" smooth="yes"/>
      <point x="78" y="100"/>
      <point x="184" y="-11"/>
      <point x="354" y="-11" type="curve" smooth="yes"/>
      <point x="527" y="-11"/>
      <point x="634" y="99"/>
      <point x="634" y="247" type="curve" smooth="yes"/>
      <point x="634" y="680" type="line"/>
      <point x="503" y="680" type="line"/>
      <point x="503" y="257" type="line" smooth="yes"/>
      <point x="503" y="147"/>
      <point x="445" y="95"/>
      <point x="356" y="95" type="curve" smooth="yes"/>
      <point x="269" y="95"/>
      <point x="209" y="143"/>
      <point x="209" y="257" type="curve" smooth="yes"/>
    </contour>
  </outline>
</glyph>
<glyph name="Uogonek" format="1">
  <advance width="713"/>
  <unicode hex="0172"/>
  <outline>
    <contour>
      <point x="209" y="680" type="line"/>
      <point x="78" y="680" type="line"/>
      <point x="78" y="247" type="line" smooth="yes"/>
      <point x="78" y="106"/>
      <point x="175" y="-1"/>
      <point x="331" y="-10" type="curve"/>
      <point x="317" y="-34"/>
      <point x="305" y="-71"/>
      <point x="305" y="-94" type="curve" smooth="yes"/>
      <point x="305" y="-156"/>
      <point x="351" y="-207"/>
      <point x="421" y="-207" type="curve" smooth="yes"/>
      <point x="459" y="-207"/>
      <point x="491" y="-198"/>
      <point x="523" y="-174" type="curve"/>
      <point x="486" y="-94" type="line"/>
      <point x="471" y="-105"/>
      <point x="453" y="-111"/>
      <point x="445" y="-111" type="curve" smooth="yes"/>
      <point x="423" y="-111"/>
      <point x="414" y="-98"/>
      <point x="414" y="-83" type="curve" smooth="yes"/>
      <point x="414" y="-55"/>
      <point x="438" y="-13"/>
      <point x="457" y="4" type="curve"/>
      <point x="568" y="39"/>
      <point x="634" y="131"/>
      <point x="634" y="247" type="curve" smooth="yes"/>
      <point x="634" y="680" type="line"/>
      <point x="503" y="680" type="line"/>
      <point x="503" y="257" type="line" smooth="yes"/>
      <point x="503" y="147"/>
      <point x="445" y="95"/>
      <point x="356" y="95" type="curve" smooth="yes"/>
      <point x="269" y="95"/>
      <point x="209" y="143"/>
      <point x="209" y="257" type="curve" smooth="yes"/>
    </contour>
  </outline>
</glyph>
<glyph name="Ydieresis" format="1">
  <advance width="605"/>
  <unicode hex="0178"/>
  <outline>
    <contour>
      <point x="234" y="0" type="line"/>
      <point x="364" y="0" type="line"/>
      <point x="364" y="260" type="line"/>
      <point x="600" y="680" type="line"/>
      <point x="463" y="680" type="line"/>
      <point x="298" y="396" type="line"/>
      <point x="140" y="680" type="line"/>
      <point x="6" y="663" type="line"/>
      <point x="234" y="265" type="line"/>
    </contour>
    <contour>
      <point x="463" y="853"/>
      <point x="435" y="882"/>
      <point x="398" y="882" type="curve" smooth="yes"/>
      <point x="363" y="882"/>
      <point x="333" y="853"/>
      <point x="333" y="817" type="curve" smooth="yes"/>
      <point x="333" y="781"/>
      <point x="363" y="753"/>
      <point x="398" y="753" type="curve" smooth="yes"/>
      <point x="435" y="753"/>
      <point x="463" y="781"/>
      <point x="463" y="817" type="curve" smooth="yes"/>
    </contour>
    <contour>
      <point x="271" y="853"/>
      <point x="244" y="882"/>
      <point x="208" y="882" type="curve" smooth="yes"/>
      <point x="171" y="882"/>
      <point x="142" y="853"/>
      <point x="142" y="817" type="curve" smooth="yes"/>
      <point x="142" y="781"/>
      <point x="171" y="753"/>
      <point x="208" y="753" type="curve" smooth="yes"/>
      <point x="244" y="753"/>
      <point x="271" y="781"/>
      <point x="271" y="817" type="curve" smooth="yes"/>
    </contour>
  </outline>
</glyph>
<glyph name="Zdotaccent" format="1">
  <advance width="579"/>
  <unicode hex="017B"/>
  <outline>
    <contour>
      <point x="555" y="578" type="line"/>
      <point x="540" y="680" type="line"/>
      <point x="45" y="680" type="line"/>
      <point x="60" y="578" type="line"/>
      <point x="404" y="578" type="line"/>
      <point x="16" y="101" type="line"/>
      <point x="31" y="0" type="line"/>
      <point x="563" y="0" type="line"/>
      <point x="548" y="101" type="line"/>
      <point x="156" y="101" type="line"/>
    </contour>
    <contour>
      <point x="362" y="858"/>
      <point x="332" y="891"/>
      <point x="290" y="891" type="curve" smooth="yes"/>
      <point x="249" y="891"/>
      <point x="216" y="858"/>
      <point x="216" y="817" type="curve" smooth="yes"/>
      <point x="216" y="775"/>
      <point x="249" y="744"/>
      <point x="290" y="744" type="curve" smooth="yes"/>
      <point x="332" y="744"/>
      <point x="362" y="775"/>
      <point x="362" y="817" type="curve" smooth="yes"/>
    </contour>
  </outline>
</glyph>
<glyph name="zdotaccent" format="1">
  <advance width="449"/>
  <unicode hex="017C"/>
  <outline>
    <contour>
      <point x="423" y="422" type="line"/>
      <point x="416" y="496" type="line"/>
      <point x="28" y="496" type="line"/>
      <point x="53" y="389" type="line"/>
      <point x="247" y="389" type="line"/>
      <point x="16" y="69" type="line"/>
      <point x="33" y="0" type="line"/>
      <point x="433" y="0" type="line"/>
      <point x="423" y="105" type="line"/>
      <point x="189" y="105" type="line"/>
    </contour>
    <contour>
      <point x="321" y="708"/>
      <point x="288" y="741"/>
      <point x="247" y="741" type="curve" smooth="yes"/>
      <point x="206" y="741"/>
      <point x="173" y="708"/>
      <point x="173" y="667" type="curve" smooth="yes"/>
      <point x="173" y="625"/>
      <point x="206" y="594"/>
      <point x="247" y="594" type="curve" smooth="yes"/>
      <point x="288" y="594"/>
      <point x="321" y="625"/>
      <point x="321" y="667" type="curve" smooth="yes"/>
    </contour>
  </outline>
</glyph>
<glyph name="zcaron" format="1">
  <advance width="449"/>
  <unicode hex="017E"/>
  <outline>
    <contour>
      <point x="423" y="422" type="line"/>
      <point x="416" y="496" type="line"/>
      <point x="28" y="496" type="line"/>
      <point x="53" y="389" type="line"/>
      <point x="247" y="389" type="line"/>
      <point x="16" y="69" type="line"/>
      <point x="33" y="0" type="line"/>
      <point x="433" y="0" type="line"/>
      <point x="423" y="105" type="line"/>
      <point x="189" y="105" type="line"/>
    </contour>
    <contour>
      <point x="51" y="753" type="line"/>
      <point x="204" y="589" type="line"/>
      <point x="274" y="589" type="line"/>
      <point x="427" y="753" type="line"/>
      <point x="308" y="753" type="line"/>
      <point x="241" y="688" type="line"/>
      <point x="174" y="753" type="line"/>
    </contour>
  </outline>
</glyph>
<glyph name="florin" format="1">
  <advance width="372"/>
  <unicode hex="0192"/>
  <outline>
    <contour>
      <point x="142" y="-123"/>
      <point x="211" y="-55"/>
      <point x="211" y="55" type="curve" smooth="yes"/>
      <point x="211" y="374" type="line"/>
      <point x="344" y="374" type="line"/>
      <point x="303" y="475" type="line"/>
      <point x="211" y="475" type="line"/>
      <point x="211" y="503" type="line" smooth="yes"/>
      <point x="211" y="554"/>
      <point x="230" y="590"/>
      <point x="276" y="590" type="curve" smooth="yes"/>
      <point x="292" y="590"/>
      <point x="310" y="585"/>
      <point x="330" y="577" type="curve"/>
      <point x="367" y="671" type="line"/>
      <point x="346" y="688"/>
      <point x="301" y="702"/>
      <point x="270" y="702" type="curve" smooth="yes"/>
      <point x="150" y="702"/>
      <point x="81" y="634"/>
      <point x="81" y="521" type="curve" smooth="yes"/>
      <point x="81" y="475" type="line"/>
      <point x="6" y="475" type="line"/>
      <point x="6" y="374" type="line"/>
      <point x="81" y="374" type="line"/>
      <point x="81" y="73" type="line" smooth="yes"/>
      <point x="81" y="23"/>
      <point x="62" y="-13"/>
      <point x="16" y="-13" type="curve" smooth="yes"/>
      <point x="-2" y="-13"/>
      <point x="-20" y="-8"/>
      <point x="-39" y="0" type="curve"/>
      <point x="-76" y="-93" type="line"/>
      <point x="-55" y="-111"/>
      <point x="-9" y="-123"/>
      <point x="22" y="-123" type="curve" smooth="yes"/>
    </contour>
  </outline>
</glyph>
<glyph name="uni021A" format="1">
  <advance width="582"/>
  <unicode hex="021A"/>
  <outline>
    <contour>
      <point x="356" y="-57"/>
      <point x="323" y="-21"/>
      <point x="281" y="-21" type="curve" smooth="yes"/>
      <point x="239" y="-21"/>
      <point x="207" y="-59"/>
      <point x="207" y="-95" type="curve" smooth="yes"/>
      <point x="207" y="-132"/>
      <point x="240" y="-167"/>
      <point x="264" y="-167" type="curve"/>
      <point x="255" y="-195"/>
      <point x="229" y="-216"/>
      <point x="212" y="-223" type="curve"/>
      <point x="239" y="-284" type="line"/>
      <point x="304" y="-253"/>
      <point x="356" y="-186"/>
      <point x="356" y="-111" type="curve" smooth="yes"/>
    </contour>
    <contour>
      <point x="6" y="680" type="line"/>
      <point x="6" y="578" type="line"/>
      <point x="213" y="578" type="line"/>
      <point x="213" y="0" type="line"/>
      <point x="344" y="0" type="line"/>
      <point x="344" y="578" type="line"/>
      <point x="577" y="578" type="line"/>
      <point x="556" y="680" type="line"/>
    </contour>
  </outline>
</glyph>
<glyph name="uni021B" format="1">
  <advance width="372"/>
  <unicode hex="021B"/>
  <outline>
    <contour>
      <point x="295" y="-20"/>
      <point x="340" y="-8"/>
      <point x="362" y="10" type="curve"/>
      <point x="324" y="104" type="line"/>
      <point x="305" y="95"/>
      <point x="288" y="91"/>
      <point x="271" y="91" type="curve" smooth="yes"/>
      <point x="224" y="91"/>
      <point x="200" y="127"/>
      <point x="200" y="178" type="curve" smooth="yes"/>
      <point x="200" y="384" type="line"/>
      <point x="328" y="384" type="line"/>
      <point x="288" y="484" type="line"/>
      <point x="200" y="484" type="line"/>
      <point x="200" y="622" type="line"/>
      <point x="71" y="599" type="line"/>
      <point x="71" y="484" type="line"/>
      <point x="6" y="484" type="line"/>
      <point x="6" y="384" type="line"/>
      <point x="71" y="384" type="line"/>
      <point x="71" y="155" type="line" smooth="yes"/>
      <point x="71" y="42"/>
      <point x="144" y="-20"/>
      <point x="264" y="-20" type="curve" smooth="yes"/>
    </contour>
    <contour>
      <point x="310" y="-57"/>
      <point x="276" y="-21"/>
      <point x="236" y="-21" type="curve" smooth="yes"/>
      <point x="194" y="-21"/>
      <point x="162" y="-59"/>
      <point x="162" y="-95" type="curve" smooth="yes"/>
      <point x="162" y="-132"/>
      <point x="195" y="-167"/>
      <point x="219" y="-167" type="curve"/>
      <point x="209" y="-195"/>
      <point x="184" y="-216"/>
      <point x="166" y="-223" type="curve"/>
      <point x="194" y="-284" type="line"/>
      <point x="258" y="-253"/>
      <point x="310" y="-186"/>
      <point x="310" y="-111" type="curve" smooth="yes"/>
    </contour>
  </outline>
</glyph>
<glyph name="caron" format="1">
  <advance width="406"/>
  <unicode hex="02C7"/>
  <outline>
    <contour>
      <point x="16" y="753" type="line"/>
      <point x="168" y="589" type="line"/>
      <point x="239" y="589" type="line"/>
      <point x="391" y="753" type="line"/>
      <point x="272" y="753" type="line"/>
      <point x="206" y="688" type="line"/>
      <point x="139" y="753" type="line"/>
    </contour>
    <contour>
      <point x="206" y="545" type="move" name="_top"/>
    </contour>
  </outline>
</glyph>
<glyph name="uni02C9" format="1">
  <advance width="293"/>
  <unicode hex="02C9"/>
  <outline>
    <contour>
      <point x="16" y="716" type="line"/>
      <point x="16" y="613" type="line"/>
      <point x="278" y="613" type="line"/>
      <point x="278" y="716" type="line"/>
    </contour>
  </outline>
</glyph>
<glyph name="tilde" format="1">
  <advance width="360"/>
  <unicode hex="02DC"/>
  <outline>
    <contour>
      <point x="103" y="600" type="line"/>
      <point x="103" y="613"/>
      <point x="116" y="631"/>
      <point x="131" y="631" type="curve" smooth="yes"/>
      <point x="167" y="631"/>
      <point x="188" y="595"/>
      <point x="237" y="595" type="curve" smooth="yes"/>
      <point x="291" y="595"/>
      <point x="344" y="625"/>
      <point x="344" y="716" type="curve"/>
      <point x="263" y="716" type="line"/>
      <point x="263" y="700"/>
      <point x="251" y="685"/>
      <point x="236" y="685" type="curve" smooth="yes"/>
      <point x="199" y="685"/>
      <point x="173" y="720"/>
      <point x="124" y="720" type="curve" smooth="yes"/>
      <point x="70" y="720"/>
      <point x="17" y="690"/>
      <point x="17" y="600" type="curve"/>
    </contour>
    <contour>
      <point x="185" y="545" type="move" name="_top"/>
    </contour>
  </outline>
</glyph>
<glyph name="pi" format="1">
  <advance width="721"/>
  <unicode hex="03C0"/>
  <outline>
    <contour>
      <point x="460" y="0" type="line"/>
      <point x="590" y="0" type="line"/>
      <point x="590" y="384" type="line"/>
      <point x="685" y="384" type="line"/>
      <point x="685" y="485" type="line"/>
      <point x="37" y="485" type="line"/>
      <point x="37" y="384" type="line"/>
      <point x="132" y="384" type="line"/>
      <point x="132" y="0" type="line"/>
      <point x="261" y="0" type="line"/>
      <point x="261" y="384" type="line"/>
      <point x="460" y="384" type="line"/>
    </contour>
  </outline>
</glyph>
<glyph name="dv_CandrabinduInverted" format="1">
  <advance width="0"/>
  <unicode hex="0900"/>
  <outline>
    <contour>
      <point x="503" y="925" type="line"/>
      <point x="447" y="1035"/>
      <point x="354" y="1067"/>
      <point x="260" y="1067" type="curve" smooth="yes"/>
      <point x="166" y="1067"/>
      <point x="73" y="1035"/>
      <point x="17" y="925" type="curve"/>
      <point x="115" y="864" type="line"/>
      <point x="146" y="930"/>
      <point x="214" y="957"/>
      <point x="260" y="957" type="curve" smooth="yes"/>
      <point x="307" y="957"/>
      <point x="367" y="936"/>
      <point x="406" y="864" type="curve"/>
    </contour>
    <contour>
      <point x="182" y="791"/>
      <point x="216" y="755"/>
      <point x="259" y="755" type="curve" smooth="yes"/>
      <point x="303" y="755"/>
      <point x="338" y="791"/>
      <point x="338" y="834" type="curve" smooth="yes"/>
      <point x="338" y="878"/>
      <point x="303" y="912"/>
      <point x="259" y="912" type="curve" smooth="yes"/>
      <point x="216" y="912"/>
      <point x="182" y="878"/>
      <point x="182" y="834" type="curve" smooth="yes"/>
    </contour>
  </outline>
</glyph>
<glyph name="dv_Ii" format="1">
  <advance width="565"/>
  <unicode hex="0908"/>
  <outline>
    <contour>
      <point x="576" y="569" type="line"/>
      <point x="565" y="680" type="line"/>
      <point x="431" y="680" type="line"/>
      <point x="410" y="705"/>
      <point x="389" y="741"/>
      <point x="389" y="781" type="curve" smooth="yes"/>
      <point x="389" y="811"/>
      <point x="409" y="840"/>
      <point x="444" y="840" type="curve" smooth="yes"/>
      <point x="469" y="840"/>
      <point x="486" y="826"/>
      <point x="503" y="810" type="curve"/>
      <point x="557" y="902" type="line"/>
      <point x="535" y="927"/>
      <point x="482" y="958"/>
      <point x="423" y="958" type="curve" smooth="yes"/>
      <point x="327" y="958"/>
      <point x="261" y="881"/>
      <point x="261" y="799" type="curve" smooth="yes"/>
      <point x="261" y="760"/>
      <point x="275" y="711"/>
      <point x="298" y="680" type="curve"/>
      <point x="-11" y="680" type="line"/>
      <point x="0" y="569" type="line"/>
      <point x="321" y="569" type="line"/>
      <point x="321" y="524" type="line"/>
      <point x="223" y="524" type="line" smooth="yes"/>
      <point x="125" y="524"/>
      <point x="50" y="470"/>
      <point x="50" y="369" type="curve" smooth="yes"/>
      <point x="50" y="272"/>
      <point x="137" y="213"/>
      <point x="224" y="213" type="curve" smooth="yes"/>
      <point x="316" y="213" type="line" smooth="yes"/>
      <point x="360" y="213"/>
      <point x="375" y="190"/>
      <point x="375" y="162" type="curve" smooth="yes"/>
      <point x="375" y="129"/>
      <point x="338" y="101"/>
      <point x="281" y="100" type="curve" smooth="yes"/>
      <point x="264" y="100"/>
      <point x="248" y="101"/>
      <point x="234" y="103" type="curve"/>
      <point x="217" y="146"/>
      <point x="171" y="182"/>
      <point x="119" y="182" type="curve" smooth="yes"/>
      <point x="80" y="182"/>
      <point x="51" y="156"/>
      <point x="51" y="118" type="curve" smooth="yes"/>
      <point x="51" y="60"/>
      <point x="101" y="20"/>
      <point x="142" y="0" type="curve"/>
      <point x="267" y="-168" type="line"/>
      <point x="360" y="-102" type="line"/>
      <point x="349" y="-87"/>
      <point x="327" y="-61"/>
      <point x="292" y="-17" type="curve" smooth="yes"/>
      <point x="433" y="-11"/>
      <point x="519" y="71"/>
      <point x="519" y="162" type="curve" smooth="yes"/>
      <point x="519" y="281"/>
      <point x="429" y="330"/>
      <point x="308" y="330" type="curve" smooth="yes"/>
      <point x="229" y="330" type="line" smooth="yes"/>
      <point x="202" y="330"/>
      <point x="182" y="349"/>
      <point x="182" y="369" type="curve" smooth="yes"/>
      <point x="182" y="389"/>
      <point x="199" y="406"/>
      <point x="227" y="406" type="curve" smooth="yes"/>
      <point x="459" y="406" type="line"/>
      <point x="459" y="569" type="line"/>
    </contour>
  </outline>
</glyph>
<glyph name="dv_Uu" format="1">
  <advance width="891"/>
  <unicode hex="090A"/>
  <outline>
    <contour>
      <point x="526" y="527"/>
      <point x="522" y="549"/>
      <point x="514" y="569" type="curve"/>
      <point x="902" y="569" type="line"/>
      <point x="885" y="680" type="line"/>
      <point x="-11" y="680" type="line"/>
      <point x="6" y="569" type="line"/>
      <point x="341" y="569" type="line"/>
      <point x="368" y="554"/>
      <point x="384" y="530"/>
      <point x="384" y="503" type="curve" smooth="yes"/>
      <point x="384" y="448"/>
      <point x="340" y="403"/>
      <point x="251" y="403" type="curve" smooth="yes"/>
      <point x="135" y="403" type="line"/>
      <point x="150" y="301" type="line"/>
      <point x="244" y="301" type="line" smooth="yes"/>
      <point x="360" y="301"/>
      <point x="396" y="259"/>
      <point x="396" y="193" type="curve" smooth="yes"/>
      <point x="396" y="132"/>
      <point x="336" y="100"/>
      <point x="272" y="100" type="curve" smooth="yes"/>
      <point x="206" y="100"/>
      <point x="148" y="116"/>
      <point x="82" y="156" type="curve"/>
      <point x="56" y="42" type="line"/>
      <point x="117" y="9"/>
      <point x="202" y="-15"/>
      <point x="280" y="-15" type="curve" smooth="yes"/>
      <point x="437" y="-15"/>
      <point x="539" y="75"/>
      <point x="539" y="195" type="curve" smooth="yes"/>
      <point x="539" y="206"/>
      <point x="538" y="217"/>
      <point x="535" y="227" type="curve"/>
      <point x="556" y="251"/>
      <point x="583" y="273"/>
      <point x="632" y="273" type="curve" smooth="yes"/>
      <point x="685" y="273"/>
      <point x="718" y="237"/>
      <point x="718" y="185" type="curve" smooth="yes"/>
      <point x="718" y="131"/>
      <point x="675" y="95"/>
      <point x="596" y="95" type="curve"/>
      <point x="622" y="-20" type="line"/>
      <point x="749" y="-20"/>
      <point x="851" y="55"/>
      <point x="851" y="179" type="curve" smooth="yes"/>
      <point x="851" y="303"/>
      <point x="777" y="389"/>
      <point x="636" y="389" type="curve" smooth="yes"/>
      <point x="566" y="389"/>
      <point x="507" y="356"/>
      <point x="472" y="325" type="curve"/>
      <point x="458" y="335"/>
      <point x="440" y="343"/>
      <point x="423" y="347" type="curve"/>
      <point x="493" y="371"/>
      <point x="526" y="444"/>
      <point x="526" y="504" type="curve" smooth="yes"/>
    </contour>
  </outline>
</glyph>
<glyph name="dv_VocalicR" format="1">
  <advance width="909"/>
  <unicode hex="090B"/>
  <outline>
    <contour>
      <point x="358" y="0" type="line"/>
      <point x="500" y="-16" type="line"/>
      <point x="500" y="250" type="line"/>
      <point x="556" y="252"/>
      <point x="667" y="276"/>
      <point x="703" y="308" type="curve"/>
      <point x="731" y="267"/>
      <point x="741" y="228"/>
      <point x="741" y="204" type="curve" smooth="yes"/>
      <point x="741" y="174"/>
      <point x="719" y="156"/>
      <point x="685" y="156" type="curve" smooth="yes"/>
      <point x="657" y="156"/>
      <point x="650" y="156"/>
      <point x="602" y="171" type="curve"/>
      <point x="570" y="61" type="line"/>
      <point x="603" y="47"/>
      <point x="650" y="42"/>
      <point x="691" y="42" type="curve" smooth="yes"/>
      <point x="788" y="42"/>
      <point x="864" y="93"/>
      <point x="864" y="202" type="curve" smooth="yes"/>
      <point x="864" y="250"/>
      <point x="840" y="321"/>
      <point x="786" y="389" type="curve"/>
      <point x="798" y="403"/>
      <point x="801" y="418"/>
      <point x="801" y="435" type="curve" smooth="yes"/>
      <point x="801" y="491"/>
      <point x="741" y="528"/>
      <point x="690" y="528" type="curve" smooth="yes"/>
      <point x="652" y="528"/>
      <point x="618" y="507"/>
      <point x="618" y="460" type="curve" smooth="yes"/>
      <point x="618" y="435"/>
      <point x="625" y="416"/>
      <point x="634" y="400" type="curve"/>
      <point x="618" y="384"/>
      <point x="543" y="367"/>
      <point x="500" y="363" type="curve"/>
      <point x="500" y="569" type="line"/>
      <point x="920" y="569" type="line"/>
      <point x="904" y="680" type="line"/>
      <point x="-11" y="680" type="line"/>
      <point x="6" y="569" type="line"/>
      <point x="358" y="569" type="line"/>
      <point x="358" y="441" type="line"/>
      <point x="292" y="484"/>
      <point x="239" y="486"/>
      <point x="189" y="486" type="curve" smooth="yes"/>
      <point x="164" y="486"/>
      <point x="76" y="466"/>
      <point x="31" y="444" type="curve"/>
      <point x="85" y="325" type="line"/>
      <point x="134" y="347"/>
      <point x="184" y="362"/>
      <point x="198" y="362" type="curve" smooth="yes"/>
      <point x="234" y="362"/>
      <point x="272" y="350"/>
      <point x="324" y="304" type="curve"/>
      <point x="82" y="156" type="line"/>
      <point x="159" y="50" type="line"/>
      <point x="358" y="174" type="line"/>
    </contour>
  </outline>
</glyph>
<glyph name="dv_CandraE" format="1">
  <advance width="736"/>
  <unicode hex="090D"/>
  <outline>
    <contour>
      <point x="519" y="959" type="line"/>
      <point x="479" y="888"/>
      <point x="419" y="866"/>
      <point x="372" y="866" type="curve" smooth="yes"/>
      <point x="326" y="866"/>
      <point x="258" y="893"/>
      <point x="227" y="959" type="curve"/>
      <point x="129" y="899" type="line"/>
      <point x="186" y="788"/>
      <point x="279" y="757"/>
      <point x="372" y="757" type="curve" smooth="yes"/>
      <point x="466" y="757"/>
      <point x="560" y="787"/>
      <point x="616" y="899" type="curve"/>
    </contour>
    <contour>
      <point x="496" y="276" type="line" smooth="yes"/>
      <point x="496" y="216"/>
      <point x="465" y="194"/>
      <point x="387" y="167" type="curve"/>
      <point x="447" y="62" type="line"/>
      <point x="577" y="104"/>
      <point x="637" y="157"/>
      <point x="637" y="256" type="curve" smooth="yes"/>
      <point x="637" y="569" type="line"/>
      <point x="748" y="569" type="line"/>
      <point x="732" y="680" type="line"/>
      <point x="-11" y="680" type="line"/>
      <point x="6" y="569" type="line"/>
      <point x="97" y="569" type="line"/>
      <point x="97" y="156" type="line" smooth="yes"/>
      <point x="97" y="66"/>
      <point x="132" y="15"/>
      <point x="203" y="-27" type="curve" smooth="yes"/>
      <point x="461" y="-179" type="line"/>
      <point x="530" y="-74" type="line"/>
      <point x="280" y="83" type="line" smooth="yes"/>
      <point x="244" y="105"/>
      <point x="239" y="136"/>
      <point x="239" y="169" type="curve" smooth="yes"/>
      <point x="239" y="569" type="line"/>
      <point x="496" y="569" type="line"/>
    </contour>
  </outline>
</glyph>
<glyph name="dv_ShortO" format="1">
  <advance width="1302"/>
  <unicode hex="0912"/>
  <outline>
    <contour>
      <point x="729" y="0" type="line"/>
      <point x="869" y="-16" type="line"/>
      <point x="869" y="569" type="line"/>
      <point x="1061" y="569" type="line"/>
      <point x="1061" y="0" type="line"/>
      <point x="1203" y="-16" type="line"/>
      <point x="1203" y="569" type="line"/>
      <point x="1313" y="569" type="line"/>
      <point x="1296" y="680" type="line"/>
      <point x="1193" y="680" type="line"/>
      <point x="1193" y="719" type="line" smooth="yes"/>
      <point x="1193" y="799"/>
      <point x="1105" y="859"/>
      <point x="1004" y="859" type="curve" smooth="yes"/>
      <point x="876" y="859" type="line" smooth="yes"/>
      <point x="836" y="859"/>
      <point x="811" y="871"/>
      <point x="811" y="912" type="curve"/>
      <point x="685" y="929" type="line"/>
      <point x="685" y="886" type="line" smooth="yes"/>
      <point x="685" y="804"/>
      <point x="761" y="747"/>
      <point x="875" y="747" type="curve" smooth="yes"/>
      <point x="997" y="747" type="line" smooth="yes"/>
      <point x="1041" y="747"/>
      <point x="1063" y="723"/>
      <point x="1063" y="682" type="curve" smooth="yes"/>
      <point x="619" y="682" type="line"/>
      <point x="636" y="569" type="line"/>
      <point x="729" y="569" type="line"/>
      <point x="729" y="403" type="line"/>
      <point x="484" y="403" type="line"/>
      <point x="511" y="429"/>
      <point x="532" y="469"/>
      <point x="532" y="504" type="curve" smooth="yes"/>
      <point x="532" y="607"/>
      <point x="455" y="699"/>
      <point x="301" y="699" type="curve" smooth="yes"/>
      <point x="215" y="699"/>
      <point x="141" y="676"/>
      <point x="74" y="634" type="curve"/>
      <point x="93" y="517" type="line"/>
      <point x="166" y="566"/>
      <point x="223" y="584"/>
      <point x="288" y="584" type="curve" smooth="yes"/>
      <point x="351" y="584"/>
      <point x="389" y="545"/>
      <point x="389" y="503" type="curve" smooth="yes"/>
      <point x="389" y="448"/>
      <point x="347" y="403"/>
      <point x="257" y="403" type="curve" smooth="yes"/>
      <point x="141" y="403" type="line"/>
      <point x="156" y="301" type="line"/>
      <point x="251" y="301" type="line" smooth="yes"/>
      <point x="367" y="301"/>
      <point x="403" y="259"/>
      <point x="403" y="193" type="curve" smooth="yes"/>
      <point x="403" y="132"/>
      <point x="342" y="100"/>
      <point x="278" y="100" type="curve" smooth="yes"/>
      <point x="212" y="100"/>
      <point x="154" y="116"/>
      <point x="87" y="156" type="curve"/>
      <point x="62" y="42" type="line"/>
      <point x="122" y="9"/>
      <point x="207" y="-15"/>
      <point x="287" y="-15" type="curve" smooth="yes"/>
      <point x="444" y="-15"/>
      <point x="545" y="75"/>
      <point x="545" y="195" type="curve" smooth="yes"/>
      <point x="545" y="234"/>
      <point x="529" y="276"/>
      <point x="498" y="299" type="curve"/>
      <point x="729" y="299" type="line"/>
    </contour>
  </outline>
</glyph>
<glyph name="dv_Ka" format="1">
  <advance width="904"/>
  <unicode hex="0915"/>
  <outline>
    <contour>
      <point x="227" y="176"/>
      <point x="173" y="218"/>
      <point x="173" y="277" type="curve" smooth="yes"/>
      <point x="173" y="338"/>
      <point x="227" y="380"/>
      <point x="280" y="380" type="curve" smooth="yes"/>
      <point x="330" y="380"/>
      <point x="366" y="354"/>
      <point x="385" y="325" type="curve"/>
      <point x="385" y="230" type="line"/>
      <point x="366" y="202"/>
      <point x="330" y="176"/>
      <point x="280" y="176" type="curve" smooth="yes"/>
    </contour>
    <contour>
      <point x="40" y="154"/>
      <point x="133" y="59"/>
      <point x="273" y="59" type="curve" smooth="yes"/>
      <point x="308" y="59"/>
      <point x="366" y="77"/>
      <point x="385" y="99" type="curve"/>
      <point x="385" y="0" type="line"/>
      <point x="526" y="-16" type="line"/>
      <point x="526" y="324" type="line"/>
      <point x="545" y="352"/>
      <point x="574" y="381"/>
      <point x="637" y="381" type="curve" smooth="yes"/>
      <point x="690" y="381"/>
      <point x="735" y="339"/>
      <point x="735" y="279" type="curve" smooth="yes"/>
      <point x="735" y="218"/>
      <point x="677" y="176"/>
      <point x="599" y="176" type="curve"/>
      <point x="622" y="59" type="line"/>
      <point x="749" y="59"/>
      <point x="869" y="141"/>
      <point x="869" y="278" type="curve" smooth="yes"/>
      <point x="869" y="403"/>
      <point x="776" y="498"/>
      <point x="634" y="498" type="curve" smooth="yes"/>
      <point x="598" y="498"/>
      <point x="545" y="479"/>
      <point x="526" y="461" type="curve"/>
      <point x="526" y="569" type="line"/>
      <point x="915" y="569" type="line"/>
      <point x="899" y="680" type="line"/>
      <point x="-11" y="680" type="line"/>
      <point x="6" y="569" type="line"/>
      <point x="385" y="569" type="line"/>
      <point x="385" y="458" type="line"/>
      <point x="366" y="479"/>
      <point x="308" y="497"/>
      <point x="273" y="497" type="curve" smooth="yes"/>
      <point x="133" y="497"/>
      <point x="40" y="402"/>
      <point x="40" y="278" type="curve" smooth="yes"/>
    </contour>
  </outline>
</glyph>
<glyph name="dv_Ja" format="1">
  <advance width="816"/>
  <unicode hex="091C"/>
  <outline>
    <contour>
      <point x="577" y="0" type="line"/>
      <point x="717" y="-16" type="line"/>
      <point x="717" y="569" type="line"/>
      <point x="829" y="569" type="line"/>
      <point x="812" y="680" type="line"/>
      <point x="-11" y="680" type="line"/>
      <point x="6" y="569" type="line"/>
      <point x="577" y="569" type="line"/>
      <point x="577" y="468" type="line"/>
      <point x="169" y="468" type="line"/>
      <point x="185" y="358" type="line"/>
      <point x="247" y="358" type="line" smooth="yes"/>
      <point x="319" y="358"/>
      <point x="344" y="318"/>
      <point x="344" y="269" type="curve" smooth="yes"/>
      <point x="344" y="211"/>
      <point x="300" y="169"/>
      <point x="227" y="169" type="curve" smooth="yes"/>
      <point x="171" y="169"/>
      <point x="106" y="200"/>
      <point x="42" y="249" type="curve"/>
      <point x="17" y="122" type="line"/>
      <point x="71" y="87"/>
      <point x="150" y="52"/>
      <point x="232" y="52" type="curve" smooth="yes"/>
      <point x="353" y="52"/>
      <point x="476" y="116"/>
      <point x="476" y="275" type="curve" smooth="yes"/>
      <point x="476" y="306"/>
      <point x="469" y="334"/>
      <point x="461" y="358" type="curve"/>
      <point x="577" y="358" type="line"/>
    </contour>
  </outline>
</glyph>
<glyph name="dv_Nya" format="1">
  <advance width="804"/>
  <unicode hex="091E"/>
  <outline>
    <contour>
      <point x="158" y="181"/>
      <point x="90" y="213"/>
      <point x="42" y="260" type="curve"/>
      <point x="17" y="134" type="line"/>
      <point x="71" y="98"/>
      <point x="150" y="64"/>
      <point x="232" y="64" type="curve" smooth="yes"/>
      <point x="343" y="64"/>
      <point x="431" y="119"/>
      <point x="454" y="227" type="curve"/>
      <point x="563" y="227" type="line"/>
      <point x="563" y="0" type="line"/>
      <point x="703" y="-16" type="line"/>
      <point x="703" y="569" type="line"/>
      <point x="815" y="569" type="line"/>
      <point x="799" y="680" type="line"/>
      <point x="-11" y="680" type="line"/>
      <point x="6" y="569" type="line"/>
      <point x="563" y="569" type="line"/>
      <point x="563" y="340" type="line"/>
      <point x="456" y="340" type="line"/>
      <point x="432" y="452"/>
      <point x="344" y="510"/>
      <point x="232" y="510" type="curve" smooth="yes"/>
      <point x="190" y="510"/>
      <point x="141" y="505"/>
      <point x="87" y="486" type="curve"/>
      <point x="118" y="377" type="line"/>
      <point x="159" y="388"/>
      <point x="199" y="393"/>
      <point x="228" y="393" type="curve" smooth="yes"/>
      <point x="289" y="393"/>
      <point x="334" y="349"/>
      <point x="334" y="288" type="curve" smooth="yes"/>
      <point x="334" y="223"/>
      <point x="288" y="181"/>
      <point x="227" y="181" type="curve" smooth="yes"/>
    </contour>
  </outline>
</glyph>
<glyph name="dv_Tta" format="1">
  <advance width="650"/>
  <unicode hex="091F"/>
  <outline>
    <contour>
      <point x="279" y="101"/>
      <point x="183" y="134"/>
      <point x="183" y="241" type="curve" smooth="yes"/>
      <point x="183" y="325"/>
      <point x="269" y="383"/>
      <point x="378" y="383" type="curve" smooth="yes"/>
      <point x="522" y="383" type="line"/>
      <point x="522" y="569" type="line"/>
      <point x="661" y="569" type="line"/>
      <point x="645" y="680" type="line"/>
      <point x="-11" y="680" type="line"/>
      <point x="6" y="569" type="line"/>
      <point x="381" y="569" type="line"/>
      <point x="381" y="500" type="line"/>
      <point x="206" y="500"/>
      <point x="55" y="412"/>
      <point x="55" y="241" type="curve" smooth="yes"/>
      <point x="55" y="55"/>
      <point x="209" y="-18"/>
      <point x="367" y="-18" type="curve" smooth="yes"/>
      <point x="446" y="-18"/>
      <point x="531" y="1"/>
      <point x="591" y="39" type="curve"/>
      <point x="572" y="167" type="line"/>
      <point x="495" y="110"/>
      <point x="426" y="101"/>
      <point x="367" y="101" type="curve" smooth="yes"/>
    </contour>
  </outline>
</glyph>
<glyph name="dv_Ddha" format="1">
  <advance width="638"/>
  <unicode hex="0922"/>
  <outline>
    <contour>
      <point x="55" y="48"/>
      <point x="215" y="-18"/>
      <point x="365" y="-18" type="curve" smooth="yes"/>
      <point x="503" y="-18"/>
      <point x="594" y="50"/>
      <point x="594" y="155" type="curve" smooth="yes"/>
      <point x="594" y="227"/>
      <point x="534" y="277"/>
      <point x="462" y="277" type="curve" smooth="yes"/>
      <point x="374" y="277"/>
      <point x="330" y="210"/>
      <point x="330" y="158" type="curve" smooth="yes"/>
      <point x="330" y="124"/>
      <point x="331" y="104"/>
      <point x="343" y="91" type="curve"/>
      <point x="243" y="91"/>
      <point x="183" y="158"/>
      <point x="183" y="246" type="curve" smooth="yes"/>
      <point x="183" y="339"/>
      <point x="269" y="390"/>
      <point x="378" y="390" type="curve" smooth="yes"/>
      <point x="523" y="390" type="line"/>
      <point x="523" y="569" type="line"/>
      <point x="650" y="569" type="line"/>
      <point x="634" y="680" type="line"/>
      <point x="-11" y="680" type="line"/>
      <point x="6" y="569" type="line"/>
      <point x="381" y="569" type="line"/>
      <point x="381" y="508" type="line"/>
      <point x="206" y="508"/>
      <point x="55" y="416"/>
      <point x="55" y="245" type="curve" smooth="yes"/>
    </contour>
  </outline>
</glyph>
<glyph name="dv_Nna" format="1">
  <advance width="950"/>
  <unicode hex="0923"/>
  <outline>
    <contour>
      <point x="709" y="0" type="line"/>
      <point x="850" y="-16" type="line"/>
      <point x="850" y="569" type="line"/>
      <point x="962" y="569" type="line"/>
      <point x="945" y="680" type="line"/>
      <point x="-11" y="680" type="line"/>
      <point x="6" y="569" type="line"/>
      <point x="87" y="569" type="line"/>
      <point x="87" y="353" type="line" smooth="yes"/>
      <point x="87" y="213"/>
      <point x="188" y="135"/>
      <point x="315" y="135" type="curve" smooth="yes"/>
      <point x="442" y="135"/>
      <point x="542" y="213"/>
      <point x="542" y="353" type="curve" smooth="yes"/>
      <point x="542" y="569" type="line"/>
      <point x="709" y="569" type="line"/>
    </contour>
    <contour>
      <point x="261" y="253"/>
      <point x="229" y="288"/>
      <point x="229" y="353" type="curve" smooth="yes"/>
      <point x="229" y="569" type="line"/>
      <point x="400" y="569" type="line"/>
      <point x="400" y="353" type="line" smooth="yes"/>
      <point x="400" y="288"/>
      <point x="367" y="253"/>
      <point x="315" y="253" type="curve" smooth="yes"/>
    </contour>
  </outline>
</glyph>
<glyph name="dv_Pa" format="1">
  <advance width="680"/>
  <unicode hex="092A"/>
  <outline>
    <contour>
      <point x="439" y="0" type="line"/>
      <point x="580" y="-16" type="line"/>
      <point x="580" y="569" type="line"/>
      <point x="691" y="569" type="line"/>
      <point x="674" y="680" type="line"/>
      <point x="-11" y="680" type="line"/>
      <point x="6" y="569" type="line"/>
      <point x="74" y="569" type="line"/>
      <point x="74" y="374" type="line" smooth="yes"/>
      <point x="74" y="234"/>
      <point x="184" y="151"/>
      <point x="318" y="151" type="curve" smooth="yes"/>
      <point x="356" y="151"/>
      <point x="409" y="164"/>
      <point x="439" y="179" type="curve"/>
    </contour>
    <contour>
      <point x="254" y="269"/>
      <point x="216" y="309"/>
      <point x="216" y="374" type="curve" smooth="yes"/>
      <point x="216" y="569" type="line"/>
      <point x="439" y="569" type="line"/>
      <point x="439" y="356" type="line"/>
      <point x="429" y="302"/>
      <point x="380" y="269"/>
      <point x="323" y="269" type="curve" smooth="yes"/>
    </contour>
  </outline>
</glyph>
<glyph name="dv_Ma" format="1">
  <advance width="691"/>
  <unicode hex="092E"/>
  <outline>
    <contour>
      <point x="451" y="0" type="line"/>
      <point x="592" y="-16" type="line"/>
      <point x="592" y="569" type="line"/>
      <point x="703" y="569" type="line"/>
      <point x="686" y="680" type="line"/>
      <point x="-11" y="680" type="line"/>
      <point x="6" y="569" type="line"/>
      <point x="111" y="569" type="line"/>
      <point x="111" y="323" type="line"/>
      <point x="69" y="323"/>
      <point x="40" y="304"/>
      <point x="40" y="265" type="curve" smooth="yes"/>
      <point x="40" y="188"/>
      <point x="120" y="139"/>
      <point x="189" y="139" type="curve" smooth="yes"/>
      <point x="219" y="139"/>
      <point x="232" y="182"/>
      <point x="232" y="213" type="curve"/>
      <point x="451" y="213" type="line"/>
    </contour>
    <contour>
      <point x="451" y="569" type="line"/>
      <point x="451" y="323" type="line"/>
      <point x="247" y="323" type="line"/>
      <point x="247" y="569" type="line"/>
    </contour>
  </outline>
</glyph>
<glyph name="dv_Va" format="1">
  <advance width="625"/>
  <unicode hex="0935"/>
  <outline>
    <contour>
      <point x="40" y="154"/>
      <point x="133" y="59"/>
      <point x="273" y="59" type="curve" smooth="yes"/>
      <point x="308" y="59"/>
      <point x="366" y="77"/>
      <point x="385" y="99" type="curve"/>
      <point x="385" y="0" type="line"/>
      <point x="526" y="-16" type="line"/>
      <point x="526" y="569" type="line"/>
      <point x="636" y="569" type="line"/>
      <point x="620" y="680" type="line"/>
      <point x="-11" y="680" type="line"/>
      <point x="6" y="569" type="line"/>
      <point x="385" y="569" type="line"/>
      <point x="385" y="458" type="line"/>
      <point x="366" y="479"/>
      <point x="308" y="497"/>
      <point x="273" y="497" type="curve" smooth="yes"/>
      <point x="133" y="497"/>
      <point x="40" y="402"/>
      <point x="40" y="278" type="curve" smooth="yes"/>
    </contour>
    <contour>
      <point x="227" y="176"/>
      <point x="173" y="218"/>
      <point x="173" y="277" type="curve" smooth="yes"/>
      <point x="173" y="338"/>
      <point x="227" y="380"/>
      <point x="280" y="380" type="curve" smooth="yes"/>
      <point x="330" y="380"/>
      <point x="366" y="354"/>
      <point x="385" y="325" type="curve"/>
      <point x="385" y="230" type="line"/>
      <point x="366" y="202"/>
      <point x="330" y="176"/>
      <point x="280" y="176" type="curve" smooth="yes"/>
    </contour>
  </outline>
</glyph>
<glyph name="dv_MatraOe" format="1">
  <advance width="0"/>
  <unicode hex="093A"/>
  <outline>
    <contour>
      <point x="-11" y="680" type="line"/>
      <point x="-11" y="888" type="line"/>
      <point x="-147" y="904" type="line"/>
      <point x="-147" y="680" type="line"/>
    </contour>
  </outline>
</glyph>
<glyph name="dv_MatraI" format="1">
  <advance width="338"/>
  <unicode hex="093F"/>
  <outline>
    <contour>
      <point x="440" y="836"/>
      <point x="619" y="771"/>
      <point x="738" y="696" type="curve"/>
      <point x="790" y="783" type="line"/>
      <point x="697" y="848"/>
      <point x="466" y="951"/>
      <point x="297" y="951" type="curve" smooth="yes"/>
      <point x="150" y="951"/>
      <point x="63" y="872"/>
      <point x="63" y="763" type="curve" smooth="yes"/>
      <point x="63" y="720"/>
      <point x="73" y="692"/>
      <point x="81" y="680" type="curve"/>
      <point x="-11" y="680" type="line"/>
      <point x="6" y="569" type="line"/>
      <point x="97" y="569" type="line"/>
      <point x="97" y="0" type="line"/>
      <point x="239" y="-16" type="line"/>
      <point x="239" y="569" type="line"/>
      <point x="350" y="569" type="line"/>
      <point x="332" y="680" type="line"/>
      <point x="219" y="680" type="line"/>
      <point x="212" y="692"/>
      <point x="196" y="712"/>
      <point x="196" y="752" type="curve" smooth="yes"/>
      <point x="196" y="794"/>
      <point x="236" y="836"/>
      <point x="316" y="836" type="curve" smooth="yes"/>
    </contour>
  </outline>
</glyph>
<glyph name="dv_MatraVocalicRr" format="1">
  <advance width="0"/>
  <unicode hex="0944"/>
  <outline>
    <contour>
      <point x="-272" y="-137"/>
      <point x="-263" y="-155"/>
      <point x="-249" y="-169" type="curve"/>
      <point x="-261" y="-183"/>
      <point x="-272" y="-203"/>
      <point x="-272" y="-223" type="curve" smooth="yes"/>
      <point x="-272" y="-295"/>
      <point x="-211" y="-322"/>
      <point x="-156" y="-322" type="curve" smooth="yes"/>
      <point x="-123" y="-322" type="line"/>
      <point x="-100" y="-237" type="line"/>
      <point x="-139" y="-237" type="line" smooth="yes"/>
      <point x="-162" y="-237"/>
      <point x="-174" y="-232"/>
      <point x="-174" y="-223" type="curve" smooth="yes"/>
      <point x="-174" y="-214"/>
      <point x="-152" y="-211"/>
      <point x="-126" y="-211" type="curve"/>
      <point x="-104" y="-129" type="line"/>
      <point x="-139" y="-129" type="line" smooth="yes"/>
      <point x="-153" y="-129"/>
      <point x="-169" y="-125"/>
      <point x="-169" y="-118" type="curve" smooth="yes"/>
      <point x="-169" y="-107"/>
      <point x="-153" y="-103"/>
      <point x="-139" y="-103" type="curve" smooth="yes"/>
      <point x="-97" y="-103" type="line"/>
      <point x="-97" y="-18" type="line"/>
      <point x="-156" y="-18" type="line" smooth="yes"/>
      <point x="-211" y="-18"/>
      <point x="-272" y="-43"/>
      <point x="-272" y="-118" type="curve" smooth="yes"/>
    </contour>
  </outline>
</glyph>
<glyph name="dv_MatraShortE" format="1">
  <advance width="0"/>
  <unicode hex="0946"/>
  <outline>
    <contour>
      <point x="-295" y="747" type="line" smooth="yes"/>
      <point x="-252" y="747"/>
      <point x="-229" y="723"/>
      <point x="-229" y="682" type="curve" smooth="yes"/>
      <point x="-229" y="618" type="line"/>
      <point x="-99" y="618" type="line"/>
      <point x="-99" y="719" type="line" smooth="yes"/>
      <point x="-99" y="799"/>
      <point x="-188" y="859"/>
      <point x="-288" y="859" type="curve" smooth="yes"/>
      <point x="-334" y="859" type="line" smooth="yes"/>
      <point x="-374" y="859"/>
      <point x="-400" y="871"/>
      <point x="-400" y="912" type="curve"/>
      <point x="-525" y="929" type="line"/>
      <point x="-525" y="886" type="line" smooth="yes"/>
      <point x="-525" y="804"/>
      <point x="-450" y="748"/>
      <point x="-335" y="747" type="curve" smooth="yes"/>
    </contour>
  </outline>
</glyph>
<glyph name="dv_MatraCandraO" format="1">
  <advance width="338"/>
  <unicode hex="0949"/>
  <outline>
    <contour>
      <point x="97" y="0" type="line"/>
      <point x="239" y="-16" type="line"/>
      <point x="239" y="569" type="line"/>
      <point x="350" y="569" type="line"/>
      <point x="332" y="680" type="line"/>
      <point x="-11" y="680" type="line"/>
      <point x="6" y="569" type="line"/>
      <point x="97" y="569" type="line"/>
    </contour>
    <contour>
      <point x="316" y="959" type="line"/>
      <point x="276" y="888"/>
      <point x="216" y="866"/>
      <point x="169" y="866" type="curve" smooth="yes"/>
      <point x="123" y="866"/>
      <point x="55" y="893"/>
      <point x="24" y="959" type="curve"/>
      <point x="-74" y="899" type="line"/>
      <point x="-18" y="788"/>
      <point x="75" y="757"/>
      <point x="169" y="757" type="curve" smooth="yes"/>
      <point x="262" y="757"/>
      <point x="356" y="787"/>
      <point x="412" y="899" type="curve"/>
    </contour>
  </outline>
</glyph>
<glyph name="dv_MatraO" format="1">
  <advance width="338"/>
  <unicode hex="094B"/>
  <outline>
    <contour>
      <point x="97" y="0" type="line"/>
      <point x="239" y="-16" type="line"/>
      <point x="239" y="569" type="line"/>
      <point x="350" y="569" type="line"/>
      <point x="332" y="680" type="line"/>
      <point x="224" y="680" type="line"/>
      <point x="-63" y="965" type="line"/>
      <point x="-165" y="884" type="line"/>
      <point x="56" y="680" type="line"/>
      <point x="-11" y="680" type="line"/>
      <point x="6" y="569" type="line"/>
      <point x="97" y="569" type="line"/>
    </contour>
  </outline>
</glyph>
<glyph name="dv_Halant" format="1">
  <advance width="0"/>
  <unicode hex="094D"/>
  <outline>
    <contour>
      <point x="-87" y="-365" type="line"/>
      <point x="-4" y="-291" type="line"/>
      <point x="-225" y="-67" type="line"/>
      <point x="-322" y="-155" type="line"/>
    </contour>
  </outline>
</glyph>
<glyph name="dv_PrishtaMatraE" format="1">
  <advance width="337"/>
  <unicode hex="094E"/>
  <outline>
    <contour>
      <point x="97" y="0" type="line"/>
      <point x="238" y="-16" type="line"/>
      <point x="238" y="569" type="line"/>
      <point x="349" y="569" type="line"/>
      <point x="332" y="680" type="line"/>
      <point x="97" y="680" type="line"/>
    </contour>
  </outline>
</glyph>
<glyph name="dv_Om" format="1">
  <advance width="892"/>
  <unicode hex="0950"/>
  <outline>
    <contour>
      <point x="532" y="601"/>
      <point x="455" y="699"/>
      <point x="301" y="699" type="curve" smooth="yes"/>
      <point x="215" y="699"/>
      <point x="141" y="676"/>
      <point x="74" y="634" type="curve"/>
      <point x="93" y="517" type="line"/>
      <point x="166" y="566"/>
      <point x="223" y="584"/>
      <point x="288" y="584" type="curve" smooth="yes"/>
      <point x="351" y="584"/>
      <point x="389" y="545"/>
      <point x="389" y="503" type="curve" smooth="yes"/>
      <point x="389" y="448"/>
      <point x="347" y="403"/>
      <point x="257" y="403" type="curve" smooth="yes"/>
      <point x="141" y="403" type="line"/>
      <point x="156" y="301" type="line"/>
      <point x="251" y="301" type="line" smooth="yes"/>
      <point x="367" y="301"/>
      <point x="403" y="259"/>
      <point x="403" y="193" type="curve" smooth="yes"/>
      <point x="403" y="132"/>
      <point x="342" y="100"/>
      <point x="278" y="100" type="curve" smooth="yes"/>
      <point x="212" y="100"/>
      <point x="154" y="116"/>
      <point x="87" y="156" type="curve"/>
      <point x="62" y="42" type="line"/>
      <point x="122" y="9"/>
      <point x="207" y="-15"/>
      <point x="287" y="-15" type="curve" smooth="yes"/>
      <point x="444" y="-15"/>
      <point x="545" y="75"/>
      <point x="545" y="195" type="curve" smooth="yes"/>
      <point x="545" y="206"/>
      <point x="544" y="217"/>
      <point x="542" y="227" type="curve"/>
      <point x="562" y="251"/>
      <point x="589" y="273"/>
      <point x="637" y="273" type="curve" smooth="yes"/>
      <point x="691" y="273"/>
      <point x="724" y="237"/>
      <point x="724" y="185" type="curve" smooth="yes"/>
      <point x="724" y="131"/>
      <point x="682" y="95"/>
      <point x="601" y="95" type="curve"/>
      <point x="627" y="-20" type="line"/>
      <point x="754" y="-20"/>
      <point x="857" y="48"/>
      <point x="857" y="185" type="curve" smooth="yes"/>
      <point x="857" y="308"/>
      <point x="782" y="389"/>
      <point x="641" y="389" type="curve" smooth="yes"/>
      <point x="572" y="389"/>
      <point x="514" y="356"/>
      <point x="478" y="325" type="curve"/>
      <point x="463" y="335"/>
      <point x="447" y="343"/>
      <point x="428" y="347" type="curve"/>
      <point x="498" y="371"/>
      <point x="532" y="440"/>
      <point x="532" y="504" type="curve" smooth="yes"/>
    </contour>
    <contour>
      <point x="806" y="835" type="line"/>
      <point x="766" y="764"/>
      <point x="706" y="736"/>
      <point x="660" y="736" type="curve" smooth="yes"/>
      <point x="615" y="736"/>
      <point x="546" y="769"/>
      <point x="514" y="835" type="curve"/>
      <point x="418" y="775" type="line"/>
      <point x="473" y="665"/>
      <point x="566" y="627"/>
      <point x="660" y="627" type="curve" smooth="yes"/>
      <point x="753" y="627"/>
      <point x="846" y="664"/>
      <point x="903" y="775" type="curve"/>
    </contour>
    <contour>
      <point x="582" y="810"/>
      <point x="616" y="776"/>
      <point x="659" y="776" type="curve" smooth="yes"/>
      <point x="703" y="776"/>
      <point x="737" y="810"/>
      <point x="737" y="853" type="curve" smooth="yes"/>
      <point x="737" y="897"/>
      <point x="703" y="932"/>
      <point x="659" y="932" type="curve" smooth="yes"/>
      <point x="616" y="932"/>
      <point x="582" y="897"/>
      <point x="582" y="853" type="curve" smooth="yes"/>
    </contour>
  </outline>
</glyph>
<glyph name="dv_Udatta" format="1">
  <advance width="0"/>
  <unicode hex="0951"/>
  <outline>
    <contour>
      <point x="132" y="744" type="line"/>
      <point x="147" y="953" type="line"/>
      <point x="17" y="953" type="line"/>
      <point x="31" y="744" type="line"/>
    </contour>
  </outline>
</glyph>
<glyph name="dv_Anudatta" format="1">
  <advance width="0"/>
  <unicode hex="0952"/>
  <outline>
    <contour>
      <point x="568" y="-181" type="line"/>
      <point x="552" y="-71" type="line"/>
      <point x="17" y="-71" type="line"/>
      <point x="34" y="-181" type="line"/>
    </contour>
  </outline>
</glyph>
<glyph name="dv_Graveaccent" format="1">
  <advance width="0"/>
  <unicode hex="0953"/>
  <outline>
    <contour>
      <point x="240" y="744" type="line"/>
      <point x="147" y="953" type="line"/>
      <point x="17" y="953" type="line"/>
      <point x="152" y="744" type="line"/>
    </contour>
  </outline>
</glyph>
<glyph name="dv_Acuteaccent" format="1">
  <advance width="0"/>
  <unicode hex="0954"/>
  <outline>
    <contour>
      <point x="105" y="744" type="line"/>
      <point x="240" y="953" type="line"/>
      <point x="111" y="953" type="line"/>
      <point x="17" y="744" type="line"/>
    </contour>
  </outline>
</glyph>
<glyph name="dv_MatraUe" format="1">
  <advance width="0"/>
  <unicode hex="0956"/>
  <outline>
    <contour>
      <point x="406" y="-52" type="line"/>
      <point x="367" y="-122"/>
      <point x="307" y="-145"/>
      <point x="260" y="-145" type="curve" smooth="yes"/>
      <point x="214" y="-145"/>
      <point x="146" y="-118"/>
      <point x="115" y="-52" type="curve"/>
      <point x="17" y="-111" type="line"/>
      <point x="73" y="-223"/>
      <point x="166" y="-254"/>
      <point x="260" y="-254" type="curve" smooth="yes"/>
      <point x="354" y="-254"/>
      <point x="447" y="-223"/>
      <point x="503" y="-111" type="curve"/>
    </contour>
  </outline>
</glyph>
<glyph name="dv_MatraUue" format="1">
  <advance width="0"/>
  <unicode hex="0957"/>
  <outline>
    <contour>
      <point x="463" y="-50" type="line"/>
      <point x="432" y="-120"/>
      <point x="377" y="-133"/>
      <point x="333" y="-133" type="curve" smooth="yes"/>
      <point x="282" y="-133"/>
      <point x="227" y="-111"/>
      <point x="205" y="-50" type="curve"/>
      <point x="107" y="-106" type="line"/>
      <point x="168" y="-212"/>
      <point x="270" y="-233"/>
      <point x="333" y="-233" type="curve" smooth="yes"/>
      <point x="395" y="-233"/>
      <point x="497" y="-214"/>
      <point x="561" y="-106" type="curve"/>
    </contour>
    <contour>
      <point x="548" y="-173" type="line"/>
      <point x="497" y="-236"/>
      <point x="423" y="-265"/>
      <point x="333" y="-265" type="curve" smooth="yes"/>
      <point x="241" y="-265"/>
      <point x="158" y="-229"/>
      <point x="113" y="-174" type="curve"/>
      <point x="17" y="-234" type="line"/>
      <point x="86" y="-336"/>
      <point x="223" y="-372"/>
      <point x="333" y="-372" type="curve" smooth="yes"/>
      <point x="447" y="-372"/>
      <point x="575" y="-337"/>
      <point x="644" y="-232" type="curve"/>
    </contour>
  </outline>
</glyph>
<glyph name="dv_Qa" format="1">
  <advance width="904"/>
  <unicode hex="0958"/>
  <outline>
    <contour>
      <point x="385" y="0" type="line"/>
      <point x="526" y="-16" type="line"/>
      <point x="526" y="324" type="line"/>
      <point x="545" y="352"/>
      <point x="574" y="381"/>
      <point x="637" y="381" type="curve" smooth="yes"/>
      <point x="690" y="381"/>
      <point x="735" y="339"/>
      <point x="735" y="279" type="curve" smooth="yes"/>
      <point x="735" y="218"/>
      <point x="677" y="176"/>
      <point x="599" y="176" type="curve"/>
      <point x="622" y="59" type="line"/>
      <point x="749" y="59"/>
      <point x="869" y="141"/>
      <point x="869" y="278" type="curve" smooth="yes"/>
      <point x="869" y="403"/>
      <point x="776" y="498"/>
      <point x="634" y="498" type="curve" smooth="yes"/>
      <point x="601" y="498"/>
      <point x="552" y="485"/>
      <point x="526" y="466" type="curve"/>
      <point x="526" y="569" type="line"/>
      <point x="915" y="569" type="line"/>
      <point x="899" y="680" type="line"/>
      <point x="-11" y="680" type="line"/>
      <point x="6" y="569" type="line"/>
      <point x="385" y="569" type="line"/>
      <point x="385" y="464" type="line"/>
      <point x="358" y="484"/>
      <point x="308" y="498"/>
      <point x="273" y="498" type="curve" smooth="yes"/>
      <point x="133" y="498"/>
      <point x="40" y="403"/>
      <point x="40" y="278" type="curve" smooth="yes"/>
      <point x="40" y="154"/>
      <point x="133" y="59"/>
      <point x="273" y="59" type="curve" smooth="yes"/>
      <point x="308" y="59"/>
      <point x="358" y="73"/>
      <point x="385" y="93" type="curve"/>
    </contour>
    <contour>
      <point x="222" y="176"/>
      <point x="173" y="218"/>
      <point x="173" y="279" type="curve" smooth="yes"/>
      <point x="173" y="339"/>
      <point x="222" y="381"/>
      <point x="274" y="381" type="curve" smooth="yes"/>
      <point x="345" y="381"/>
      <point x="366" y="349"/>
      <point x="385" y="321" type="curve"/>
      <point x="385" y="237" type="line"/>
      <point x="366" y="208"/>
      <point x="345" y="176"/>
      <point x="274" y="176" type="curve" smooth="yes"/>
    </contour>
    <contour>
      <point x="94" y="-122"/>
      <point x="128" y="-156"/>
      <point x="173" y="-156" type="curve" smooth="yes"/>
      <point x="216" y="-156"/>
      <point x="251" y="-122"/>
      <point x="251" y="-78" type="curve" smooth="yes"/>
      <point x="251" y="-36"/>
      <point x="216" y="0"/>
      <point x="173" y="0" type="curve" smooth="yes"/>
      <point x="128" y="0"/>
      <point x="94" y="-36"/>
      <point x="94" y="-78" type="curve" smooth="yes"/>
    </contour>
  </outline>
</glyph>
<glyph name="dv_Ghha" format="1">
  <advance width="699"/>
  <unicode hex="095A"/>
  <outline>
    <contour>
      <point x="458" y="0" type="line"/>
      <point x="599" y="-16" type="line"/>
      <point x="599" y="569" type="line"/>
      <point x="709" y="569" type="line"/>
      <point x="693" y="680" type="line"/>
      <point x="-11" y="680" type="line"/>
      <point x="6" y="569" type="line"/>
      <point x="127" y="569" type="line"/>
      <point x="127" y="332" type="line"/>
      <point x="97" y="332"/>
      <point x="59" y="311"/>
      <point x="59" y="288" type="curve" smooth="yes"/>
      <point x="59" y="231"/>
      <point x="134" y="139"/>
      <point x="211" y="139" type="curve" smooth="yes"/>
      <point x="249" y="139"/>
      <point x="269" y="168"/>
      <point x="269" y="213" type="curve" smooth="yes"/>
      <point x="269" y="569" type="line"/>
      <point x="458" y="569" type="line"/>
    </contour>
    <contour>
      <point x="127" y="-43"/>
      <point x="161" y="-78"/>
      <point x="205" y="-78" type="curve" smooth="yes"/>
      <point x="248" y="-78"/>
      <point x="283" y="-43"/>
      <point x="283" y="0" type="curve" smooth="yes"/>
      <point x="283" y="43"/>
      <point x="248" y="78"/>
      <point x="205" y="78" type="curve" smooth="yes"/>
      <point x="161" y="78"/>
      <point x="127" y="43"/>
      <point x="127" y="0" type="curve" smooth="yes"/>
    </contour>
  </outline>
</glyph>
<glyph name="dv_VocalicLl" format="1">
  <advance width="857"/>
  <unicode hex="0961"/>
  <outline>
    <contour>
      <point x="576" y="35"/>
      <point x="588" y="8"/>
      <point x="607" y="-4" type="curve"/>
      <point x="593" y="-10"/>
      <point x="576" y="-43"/>
      <point x="576" y="-62" type="curve" smooth="yes"/>
      <point x="576" y="-135"/>
      <point x="638" y="-167"/>
      <point x="692" y="-167" type="curve" smooth="yes"/>
      <point x="731" y="-167" type="line"/>
      <point x="754" y="-83" type="line"/>
      <point x="715" y="-83" type="line" smooth="yes"/>
      <point x="691" y="-83"/>
      <point x="680" y="-76"/>
      <point x="680" y="-62" type="curve" smooth="yes"/>
      <point x="680" y="-48"/>
      <point x="696" y="-44"/>
      <point x="728" y="-44" type="curve"/>
      <point x="750" y="37" type="line"/>
      <point x="715" y="37" type="line" smooth="yes"/>
      <point x="702" y="37"/>
      <point x="685" y="41"/>
      <point x="685" y="55" type="curve" smooth="yes"/>
      <point x="685" y="71"/>
      <point x="702" y="75"/>
      <point x="715" y="75" type="curve" smooth="yes"/>
      <point x="757" y="75" type="line"/>
      <point x="757" y="569" type="line"/>
      <point x="868" y="569" type="line"/>
      <point x="851" y="680" type="line"/>
      <point x="-11" y="680" type="line"/>
      <point x="6" y="569" type="line"/>
      <point x="616" y="569" type="line"/>
      <point x="616" y="486" type="line"/>
      <point x="596" y="497"/>
      <point x="566" y="503"/>
      <point x="543" y="503" type="curve" smooth="yes"/>
      <point x="490" y="503"/>
      <point x="437" y="485"/>
      <point x="403" y="450" type="curve"/>
      <point x="367" y="484"/>
      <point x="313" y="503"/>
      <point x="257" y="503" type="curve" smooth="yes"/>
      <point x="146" y="503"/>
      <point x="52" y="416"/>
      <point x="52" y="319" type="curve" smooth="yes"/>
      <point x="52" y="217"/>
      <point x="93" y="134"/>
      <point x="176" y="-24" type="curve"/>
      <point x="288" y="14" type="line"/>
      <point x="204" y="183"/>
      <point x="177" y="249"/>
      <point x="177" y="311" type="curve" smooth="yes"/>
      <point x="177" y="350"/>
      <point x="209" y="384"/>
      <point x="257" y="384" type="curve" smooth="yes"/>
      <point x="319" y="384"/>
      <point x="342" y="343"/>
      <point x="342" y="280" type="curve" smooth="yes"/>
      <point x="342" y="145" type="line"/>
      <point x="468" y="132" type="line"/>
      <point x="468" y="280" type="line" smooth="yes"/>
      <point x="468" y="343"/>
      <point x="498" y="387"/>
      <point x="542" y="387" type="curve" smooth="yes"/>
      <point x="580" y="387"/>
      <point x="608" y="357"/>
      <point x="616" y="311" type="curve"/>
      <point x="616" y="136" type="line"/>
      <point x="593" y="120"/>
      <point x="576" y="92"/>
      <point x="576" y="55" type="curve" smooth="yes"/>
    </contour>
  </outline>
</glyph>
<glyph name="dv_MatraVocalicL" format="1">
  <advance width="0"/>
  <unicode hex="0962"/>
  <outline>
    <contour>
      <point x="285" y="-156" type="line" smooth="yes"/>
      <point x="285" y="-132"/>
      <point x="304" y="-118"/>
      <point x="323" y="-118" type="curve" smooth="yes"/>
      <point x="339" y="-118"/>
      <point x="356" y="-126"/>
      <point x="356" y="-143" type="curve" smooth="yes"/>
      <point x="356" y="-179"/>
      <point x="317" y="-214"/>
      <point x="317" y="-269" type="curve" smooth="yes"/>
      <point x="317" y="-321"/>
      <point x="370" y="-338"/>
      <point x="404" y="-338" type="curve" smooth="yes"/>
      <point x="436" y="-338" type="line"/>
      <point x="460" y="-248" type="line"/>
      <point x="441" y="-248" type="line" smooth="yes"/>
      <point x="431" y="-248"/>
      <point x="428" y="-241"/>
      <point x="428" y="-233" type="curve" smooth="yes"/>
      <point x="428" y="-229"/>
      <point x="429" y="-224"/>
      <point x="431" y="-221" type="curve"/>
      <point x="433" y="-218" type="line"/>
      <point x="447" y="-195"/>
      <point x="461" y="-170"/>
      <point x="461" y="-135" type="curve" smooth="yes"/>
      <point x="461" y="-74"/>
      <point x="409" y="-19"/>
      <point x="332" y="-19" type="curve" smooth="yes"/>
      <point x="294" y="-19"/>
      <point x="255" y="-41"/>
      <point x="239" y="-67" type="curve"/>
      <point x="223" y="-39"/>
      <point x="188" y="-19"/>
      <point x="149" y="-19" type="curve" smooth="yes"/>
      <point x="71" y="-19"/>
      <point x="17" y="-74"/>
      <point x="17" y="-135" type="curve" smooth="yes"/>
      <point x="17" y="-196"/>
      <point x="42" y="-247"/>
      <point x="92" y="-342" type="curve"/>
      <point x="194" y="-319" type="line"/>
      <point x="186" y="-304" type="line"/>
      <point x="141" y="-219"/>
      <point x="121" y="-182"/>
      <point x="121" y="-142" type="curve" smooth="yes"/>
      <point x="121" y="-132"/>
      <point x="136" y="-118"/>
      <point x="154" y="-118" type="curve" smooth="yes"/>
      <point x="174" y="-118"/>
      <point x="193" y="-130"/>
      <point x="193" y="-156" type="curve" smooth="yes"/>
      <point x="193" y="-229" type="line"/>
      <point x="285" y="-253" type="line"/>
    </contour>
  </outline>
</glyph>
<glyph name="dv_DoubleDanda" format="1">
  <advance width="787"/>
  <unicode hex="0965"/>
  <outline>
    <contour>
      <point x="281" y="755" type="line"/>
      <point x="140" y="771" type="line"/>
      <point x="140" y="0" type="line"/>
      <point x="281" y="-16" type="line"/>
    </contour>
    <contour>
      <point x="647" y="755" type="line"/>
      <point x="505" y="771" type="line"/>
      <point x="505" y="0" type="line"/>
      <point x="647" y="-16" type="line"/>
    </contour>
  </outline>
</glyph>
<glyph name="dv_One" format="1">
  <advance width="408"/>
  <unicode hex="0967"/>
  <outline>
    <contour>
      <point x="48" y="334" type="line"/>
      <point x="45" y="286" type="line"/>
      <point x="241" y="-20" type="line"/>
      <point x="374" y="12" type="line"/>
      <point x="178" y="288" type="line"/>
      <point x="249" y="344" type="line" smooth="yes"/>
      <point x="330" y="409"/>
      <point x="365" y="480"/>
      <point x="365" y="544" type="curve" smooth="yes"/>
      <point x="365" y="633"/>
      <point x="304" y="699"/>
      <point x="208" y="699" type="curve" smooth="yes"/>
      <point x="131" y="699"/>
      <point x="57" y="638"/>
      <point x="57" y="547" type="curve" smooth="yes"/>
      <point x="57" y="488"/>
      <point x="117" y="427"/>
      <point x="153" y="417" type="curve"/>
    </contour>
  </outline>
</glyph>
<glyph name="dv_Six" format="1">
  <advance width="596"/>
  <unicode hex="096C"/>
  <outline>
    <contour>
      <point x="69" y="471"/>
      <point x="99" y="406"/>
      <point x="162" y="386" type="curve"/>
      <point x="97" y="371"/>
      <point x="57" y="310"/>
      <point x="57" y="249" type="curve" smooth="yes"/>
      <point x="57" y="142"/>
      <point x="148" y="62"/>
      <point x="288" y="62" type="curve" smooth="yes"/>
      <point x="321" y="62"/>
      <point x="356" y="62"/>
      <point x="388" y="71" type="curve"/>
      <point x="451" y="-43" type="line"/>
      <point x="562" y="-1" type="line"/>
      <point x="542" y="34"/>
      <point x="514" y="76"/>
      <point x="494" y="113" type="curve"/>
      <point x="512" y="134"/>
      <point x="524" y="162"/>
      <point x="524" y="185" type="curve" smooth="yes"/>
      <point x="524" y="238"/>
      <point x="463" y="274"/>
      <point x="413" y="274" type="curve" smooth="yes"/>
      <point x="368" y="274"/>
      <point x="339" y="244"/>
      <point x="339" y="199" type="curve" smooth="yes"/>
      <point x="339" y="179" type="line"/>
      <point x="329" y="177"/>
      <point x="318" y="176"/>
      <point x="307" y="176" type="curve" smooth="yes"/>
      <point x="250" y="176"/>
      <point x="199" y="203"/>
      <point x="199" y="249" type="curve" smooth="yes"/>
      <point x="199" y="297"/>
      <point x="239" y="338"/>
      <point x="321" y="338" type="curve" smooth="yes"/>
      <point x="416" y="338" type="line"/>
      <point x="406" y="440" type="line"/>
      <point x="314" y="440" type="line" smooth="yes"/>
      <point x="248" y="440"/>
      <point x="211" y="475"/>
      <point x="211" y="524" type="curve" smooth="yes"/>
      <point x="211" y="562"/>
      <point x="247" y="584"/>
      <point x="298" y="585" type="curve"/>
      <point x="303" y="585" type="line"/>
      <point x="360" y="585"/>
      <point x="422" y="555"/>
      <point x="461" y="526" type="curve"/>
      <point x="478" y="640" type="line"/>
      <point x="419" y="679"/>
      <point x="352" y="699"/>
      <point x="276" y="699" type="curve" smooth="yes"/>
      <point x="138" y="699"/>
      <point x="69" y="617"/>
      <point x="69" y="526" type="curve" smooth="yes"/>
    </contour>
  </outline>
</glyph>
<glyph name="dv_Seven" format="1">
  <advance width="758"/>
  <unicode hex="096D"/>
  <outline>
    <contour>
      <point x="496" y="262"/>
      <point x="536" y="272"/>
      <point x="567" y="290" type="curve"/>
      <point x="560" y="182"/>
      <point x="492" y="107"/>
      <point x="378" y="107" type="curve" smooth="yes"/>
      <point x="253" y="107"/>
      <point x="175" y="198"/>
      <point x="175" y="357" type="curve"/>
      <point x="33" y="357" type="line"/>
      <point x="33" y="120"/>
      <point x="152" y="-18"/>
      <point x="378" y="-18" type="curve" smooth="yes"/>
      <point x="593" y="-18"/>
      <point x="713" y="127"/>
      <point x="713" y="302" type="curve" smooth="yes"/>
      <point x="713" y="498"/>
      <point x="633" y="629"/>
      <point x="464" y="629" type="curve" smooth="yes"/>
      <point x="352" y="629"/>
      <point x="273" y="546"/>
      <point x="273" y="436" type="curve" smooth="yes"/>
      <point x="273" y="335"/>
      <point x="357" y="262"/>
      <point x="468" y="262" type="curve" smooth="yes"/>
    </contour>
    <contour>
      <point x="520" y="511"/>
      <point x="547" y="471"/>
      <point x="560" y="414" type="curve"/>
      <point x="538" y="389"/>
      <point x="506" y="377"/>
      <point x="475" y="377" type="curve" smooth="yes"/>
      <point x="433" y="377"/>
      <point x="405" y="402"/>
      <point x="405" y="444" type="curve" smooth="yes"/>
      <point x="405" y="485"/>
      <point x="440" y="511"/>
      <point x="469" y="511" type="curve" smooth="yes"/>
    </contour>
  </outline>
</glyph>
<glyph name="dv_Nine" format="1">
  <advance width="503"/>
  <unicode hex="096F"/>
  <outline>
    <contour>
      <point x="447" y="608"/>
      <point x="379" y="694"/>
      <point x="251" y="694" type="curve" smooth="yes"/>
      <point x="111" y="694"/>
      <point x="45" y="594"/>
      <point x="45" y="497" type="curve" smooth="yes"/>
      <point x="45" y="412"/>
      <point x="103" y="346"/>
      <point x="149" y="278" type="curve"/>
      <point x="162" y="259" type="line"/>
      <point x="209" y="191"/>
      <point x="246" y="137"/>
      <point x="246" y="119" type="curve" smooth="yes"/>
      <point x="246" y="90"/>
      <point x="227" y="83"/>
      <point x="195" y="74" type="curve"/>
      <point x="216" y="-26" type="line"/>
      <point x="311" y="-8"/>
      <point x="374" y="36"/>
      <point x="374" y="107" type="curve" smooth="yes"/>
      <point x="374" y="164"/>
      <point x="365" y="182"/>
      <point x="273" y="318" type="curve" smooth="yes"/>
      <point x="270" y="322"/>
      <point x="248" y="349"/>
      <point x="245" y="354" type="curve"/>
      <point x="349" y="357"/>
      <point x="447" y="410"/>
      <point x="447" y="514" type="curve" smooth="yes"/>
    </contour>
  </outline>
</glyph>
<glyph name="dv_Abbreviation" format="1">
  <advance width="571"/>
  <unicode hex="0970"/>
  <outline>
    <contour>
      <point x="531" y="421"/>
      <point x="424" y="530"/>
      <point x="288" y="530" type="curve" smooth="yes"/>
      <point x="146" y="530"/>
      <point x="40" y="423"/>
      <point x="40" y="288" type="curve" smooth="yes"/>
      <point x="40" y="149"/>
      <point x="145" y="41"/>
      <point x="287" y="41" type="curve" smooth="yes"/>
      <point x="424" y="41"/>
      <point x="531" y="149"/>
      <point x="531" y="284" type="curve" smooth="yes"/>
    </contour>
    <contour>
      <point x="410" y="207"/>
      <point x="353" y="156"/>
      <point x="287" y="156" type="curve" smooth="yes"/>
      <point x="219" y="156"/>
      <point x="162" y="206"/>
      <point x="162" y="286" type="curve" smooth="yes"/>
      <point x="162" y="360"/>
      <point x="219" y="412"/>
      <point x="287" y="412" type="curve" smooth="yes"/>
      <point x="353" y="412"/>
      <point x="410" y="363"/>
      <point x="410" y="286" type="curve" smooth="yes"/>
    </contour>
  </outline>
</glyph>
<glyph name="dv_Highspacedot" format="1">
  <advance width="236"/>
  <unicode hex="0971"/>
  <outline>
    <contour>
      <point x="40" y="251"/>
      <point x="74" y="217"/>
      <point x="117" y="217" type="curve" smooth="yes"/>
      <point x="162" y="217"/>
      <point x="196" y="251"/>
      <point x="196" y="295" type="curve" smooth="yes"/>
      <point x="196" y="338"/>
      <point x="162" y="373"/>
      <point x="117" y="373" type="curve" smooth="yes"/>
      <point x="74" y="373"/>
      <point x="40" y="338"/>
      <point x="40" y="295" type="curve" smooth="yes"/>
    </contour>
  </outline>
</glyph>
